<svg version="1.1" xmlns="http://www.w3.org/2000/svg" viewBox="0 0 2156.6666666666642 580" width="2156.6666666666642" height="580" filter="invert(93%) hue-rotate(180deg)">
  <!-- svg-source:excalidraw -->
  
  <defs>
    <style class="style-fonts">
      @font-face {
        font-family: "Virgil";
        src: url("https://excalidraw.com/Virgil.woff2");
      }
      @font-face {
        font-family: "Cascadia";
        src: url("https://excalidraw.com/Cascadia.woff2");
      }
      @font-face {
        font-family: "Assistant";
        src: url("https://excalidraw.com/Assistant-Regular.woff2");
      }
    </style>
    
  </defs>
  <rect x="0" y="0" width="2156.6666666666642" height="580" fill="#ffffff"></rect><g stroke-linecap="round" transform="translate(53.246914068004116 260.185574395975) rotate(0 147.5 147.5)"><path d="M295 147.5 C295 151.36, 294.85 155.23, 294.55 159.07 C294.24 162.92, 293.79 166.76, 293.18 170.57 C292.58 174.38, 291.83 178.18, 290.92 181.93 C290.02 185.68, 288.97 189.41, 287.78 193.08 C286.59 196.75, 285.25 200.38, 283.77 203.95 C282.3 207.51, 280.67 211.03, 278.92 214.46 C277.17 217.9, 275.28 221.28, 273.26 224.57 C271.25 227.86, 269.1 231.08, 266.83 234.2 C264.56 237.32, 262.17 240.36, 259.66 243.29 C257.15 246.23, 254.53 249.07, 251.8 251.8 C249.07 254.53, 246.23 257.15, 243.29 259.66 C240.36 262.17, 237.32 264.56, 234.2 266.83 C231.08 269.1, 227.86 271.25, 224.57 273.26 C221.28 275.28, 217.9 277.17, 214.46 278.92 C211.03 280.67, 207.51 282.3, 203.95 283.77 C200.38 285.25, 196.75 286.59, 193.08 287.78 C189.41 288.97, 185.68 290.02, 181.93 290.92 C178.18 291.83, 174.38 292.58, 170.57 293.18 C166.76 293.79, 162.92 294.24, 159.07 294.55 C155.23 294.85, 151.36 295, 147.5 295 C143.64 295, 139.77 294.85, 135.93 294.55 C132.08 294.24, 128.24 293.79, 124.43 293.18 C120.62 292.58, 116.82 291.83, 113.07 290.92 C109.32 290.02, 105.59 288.97, 101.92 287.78 C98.25 286.59, 94.62 285.25, 91.05 283.77 C87.49 282.3, 83.97 280.67, 80.54 278.92 C77.1 277.17, 73.72 275.28, 70.43 273.26 C67.14 271.25, 63.92 269.1, 60.8 266.83 C57.68 264.56, 54.64 262.17, 51.71 259.66 C48.77 257.15, 45.93 254.53, 43.2 251.8 C40.47 249.07, 37.85 246.23, 35.34 243.29 C32.83 240.36, 30.44 237.32, 28.17 234.2 C25.9 231.08, 23.75 227.86, 21.74 224.57 C19.72 221.28, 17.83 217.9, 16.08 214.46 C14.33 211.03, 12.7 207.51, 11.23 203.95 C9.75 200.38, 8.41 196.75, 7.22 193.08 C6.03 189.41, 4.98 185.68, 4.08 181.93 C3.17 178.18, 2.42 174.38, 1.82 170.57 C1.21 166.76, 0.76 162.92, 0.45 159.07 C0.15 155.23, 0 151.36, 0 147.5 C0 143.64, 0.15 139.77, 0.45 135.93 C0.76 132.08, 1.21 128.24, 1.82 124.43 C2.42 120.62, 3.17 116.82, 4.08 113.07 C4.98 109.32, 6.03 105.59, 7.22 101.92 C8.41 98.25, 9.75 94.62, 11.23 91.05 C12.7 87.49, 14.33 83.97, 16.08 80.54 C17.83 77.1, 19.72 73.72, 21.74 70.43 C23.75 67.14, 25.9 63.92, 28.17 60.8 C30.44 57.68, 32.83 54.64, 35.34 51.71 C37.85 48.77, 40.47 45.93, 43.2 43.2 C45.93 40.47, 48.77 37.85, 51.71 35.34 C54.64 32.83, 57.68 30.44, 60.8 28.17 C63.92 25.9, 67.14 23.75, 70.43 21.74 C73.72 19.72, 77.1 17.83, 80.54 16.08 C83.97 14.33, 87.49 12.7, 91.05 11.23 C94.62 9.75, 98.25 8.41, 101.92 7.22 C105.59 6.03, 109.32 4.98, 113.07 4.08 C116.82 3.17, 120.62 2.42, 124.43 1.82 C128.24 1.21, 132.08 0.76, 135.93 0.45 C139.77 0.15, 143.64 0, 147.5 0 C151.36 0, 155.23 0.15, 159.07 0.45 C162.92 0.76, 166.76 1.21, 170.57 1.82 C174.38 2.42, 178.18 3.17, 181.93 4.08 C185.68 4.98, 189.41 6.03, 193.08 7.22 C196.75 8.41, 200.38 9.75, 203.95 11.23 C207.51 12.7, 211.03 14.33, 214.46 16.08 C217.9 17.83, 221.28 19.72, 224.57 21.74 C227.86 23.75, 231.08 25.9, 234.2 28.17 C237.32 30.44, 240.36 32.83, 243.29 35.34 C246.23 37.85, 249.07 40.47, 251.8 43.2 C254.53 45.93, 257.15 48.77, 259.66 51.71 C262.17 54.64, 264.56 57.68, 266.83 60.8 C269.1 63.92, 271.25 67.14, 273.26 70.43 C275.28 73.72, 277.17 77.1, 278.92 80.54 C280.67 83.97, 282.3 87.49, 283.77 91.05 C285.25 94.62, 286.59 98.25, 287.78 101.92 C288.97 105.59, 290.02 109.32, 290.92 113.07 C291.83 116.82, 292.58 120.62, 293.18 124.43 C293.79 128.24, 294.24 132.08, 294.55 135.93 C294.85 139.77, 295 143.64, 295 147.5" stroke="#1e1e1e" stroke-width="4" fill="none"></path></g><g transform="translate(121.67366231710912 366.0415297784348) rotate(0 79.2750015258789 41.8457943925232)"><text x="79.2750015258789" y="29.325532710280385" font-family="Virgil, Segoe UI Emoji" font-size="33.476635514018696px" fill="#1e1e1e" text-anchor="middle" style="white-space: pre;" direction="ltr" dominant-baseline="alphabetic">Heuristic</text><text x="79.2750015258789" y="71.17132710280376" font-family="Virgil, Segoe UI Emoji" font-size="33.476635514018696px" fill="#1e1e1e" text-anchor="middle" style="white-space: pre;" direction="ltr" dominant-baseline="alphabetic">Identified</text></g><g stroke-linecap="round" transform="translate(894.7469140680041 303.685574395975) rotate(0 175 99)"><path d="M32 0 C89.55 0, 147.1 0, 318 0 M32 0 C138.47 0, 244.94 0, 318 0 M318 0 C339.33 0, 350 10.67, 350 32 M318 0 C339.33 0, 350 10.67, 350 32 M350 32 C350 75.74, 350 119.49, 350 166 M350 32 C350 70.28, 350 108.57, 350 166 M350 166 C350 187.33, 339.33 198, 318 198 M350 166 C350 187.33, 339.33 198, 318 198 M318 198 C256.42 198, 194.83 198, 32 198 M318 198 C213.83 198, 109.65 198, 32 198 M32 198 C10.67 198, 0 187.33, 0 166 M32 198 C10.67 198, 0 187.33, 0 166 M0 166 C0 126.49, 0 86.99, 0 32 M0 166 C0 113.53, 0 61.06, 0 32 M0 32 C0 10.67, 10.67 0, 32 0 M0 32 C0 10.67, 10.67 0, 32 0" stroke="#1e1e1e" stroke-width="4" fill="none"></path></g><g transform="translate(977.0052453668322 380.185574395975) rotate(0 92.74166870117188 22.5)"><text x="92.74166870117188" y="31.536" font-family="Virgil, Segoe UI Emoji" font-size="36px" fill="#1e1e1e" text-anchor="middle" style="white-space: pre;" direction="ltr" dominant-baseline="alphabetic">Send Alert</text></g><g stroke-linecap="round" transform="translate(439.7469140680041 304.685574395975) rotate(0 175 99)"><path d="M32 0 C97.61 0, 163.21 0, 318 0 M32 0 C121.22 0, 210.43 0, 318 0 M318 0 C339.33 0, 350 10.67, 350 32 M318 0 C339.33 0, 350 10.67, 350 32 M350 32 C350 82.01, 350 132.02, 350 166 M350 32 C350 72.92, 350 113.84, 350 166 M350 166 C350 187.33, 339.33 198, 318 198 M350 166 C350 187.33, 339.33 198, 318 198 M318 198 C215.34 198, 112.67 198, 32 198 M318 198 C258.79 198, 199.59 198, 32 198 M32 198 C10.67 198, 0 187.33, 0 166 M32 198 C10.67 198, 0 187.33, 0 166 M0 166 C0 132.54, 0 99.08, 0 32 M0 166 C0 120.93, 0 75.86, 0 32 M0 32 C0 10.67, 10.67 0, 32 0 M0 32 C0 10.67, 10.67 0, 32 0" stroke="#1e1e1e" stroke-width="4" fill="none"></path></g><g transform="translate(525.9969140680041 381.185574395975) rotate(0 88.75 22.5)"><text x="88.75" y="31.536" font-family="Virgil, Segoe UI Emoji" font-size="36px" fill="#1e1e1e" text-anchor="middle" style="white-space: pre;" direction="ltr" dominant-baseline="alphabetic">Log Event</text></g><g stroke-linecap="round" transform="translate(1327.7469140680041 300.685574395975) rotate(0 175 99)"><path d="M32 0 C140.06 0, 248.11 0, 318 0 M32 0 C136.04 0, 240.09 0, 318 0 M318 0 C339.33 0, 350 10.67, 350 32 M318 0 C339.33 0, 350 10.67, 350 32 M350 32 C350 68.63, 350 105.25, 350 166 M350 32 C350 74.64, 350 117.27, 350 166 M350 166 C350 187.33, 339.33 198, 318 198 M350 166 C350 187.33, 339.33 198, 318 198 M318 198 C209.29 198, 100.57 198, 32 198 M318 198 C253.39 198, 188.79 198, 32 198 M32 198 C10.67 198, 0 187.33, 0 166 M32 198 C10.67 198, 0 187.33, 0 166 M0 166 C0 135.86, 0 105.72, 0 32 M0 166 C0 125.33, 0 84.66, 0 32 M0 32 C0 10.67, 10.67 0, 32 0 M0 32 C0 10.67, 10.67 0, 32 0" stroke="#1e1e1e" stroke-width="4" fill="none"></path></g><g transform="translate(1371.671917119762 377.185574395975) rotate(0 131.0749969482422 22.5)"><text x="131.0749969482422" y="31.536" font-family="Virgil, Segoe UI Emoji" font-size="36px" fill="#1e1e1e" text-anchor="middle" style="white-space: pre;" direction="ltr" dominant-baseline="alphabetic">Execute Script</text></g><g stroke-linecap="round" transform="translate(1785.2469140680005 238.18557439597498) rotate(0 158.5 158.5)"><path d="M317 158.5 C317 162.45, 316.85 166.41, 316.56 170.34 C316.26 174.28, 315.82 178.22, 315.23 182.12 C314.64 186.03, 313.9 189.92, 313.03 193.77 C312.15 197.62, 311.12 201.45, 309.96 205.22 C308.79 208.99, 307.49 212.73, 306.04 216.41 C304.6 220.08, 303.02 223.71, 301.3 227.27 C299.59 230.83, 297.74 234.33, 295.77 237.75 C293.79 241.17, 291.68 244.52, 289.46 247.79 C287.23 251.05, 284.88 254.24, 282.42 257.32 C279.96 260.41, 277.37 263.41, 274.69 266.31 C272 269.2, 269.2 272, 266.31 274.69 C263.41 277.37, 260.41 279.96, 257.32 282.42 C254.24 284.88, 251.05 287.23, 247.79 289.46 C244.52 291.68, 241.17 293.79, 237.75 295.77 C234.33 297.74, 230.83 299.59, 227.27 301.3 C223.71 303.02, 220.08 304.6, 216.41 306.04 C212.73 307.49, 208.99 308.79, 205.22 309.96 C201.45 311.12, 197.62 312.15, 193.77 313.03 C189.92 313.9, 186.03 314.64, 182.12 315.23 C178.22 315.82, 174.28 316.26, 170.34 316.56 C166.41 316.85, 162.45 317, 158.5 317 C154.55 317, 150.59 316.85, 146.66 316.56 C142.72 316.26, 138.78 315.82, 134.88 315.23 C130.97 314.64, 127.08 313.9, 123.23 313.03 C119.38 312.15, 115.55 311.12, 111.78 309.96 C108.01 308.79, 104.27 307.49, 100.59 306.04 C96.92 304.6, 93.29 303.02, 89.73 301.3 C86.17 299.59, 82.67 297.74, 79.25 295.77 C75.83 293.79, 72.48 291.68, 69.21 289.46 C65.95 287.23, 62.76 284.88, 59.68 282.42 C56.59 279.96, 53.59 277.37, 50.69 274.69 C47.8 272, 45 269.2, 42.31 266.31 C39.63 263.41, 37.04 260.41, 34.58 257.32 C32.12 254.24, 29.77 251.05, 27.54 247.79 C25.32 244.52, 23.21 241.17, 21.23 237.75 C19.26 234.33, 17.41 230.83, 15.7 227.27 C13.98 223.71, 12.4 220.08, 10.96 216.41 C9.51 212.73, 8.21 208.99, 7.04 205.22 C5.88 201.45, 4.85 197.62, 3.97 193.77 C3.1 189.92, 2.36 186.03, 1.77 182.12 C1.18 178.22, 0.74 174.28, 0.44 170.34 C0.15 166.41, 0 162.45, 0 158.5 C0 154.55, 0.15 150.59, 0.44 146.66 C0.74 142.72, 1.18 138.78, 1.77 134.88 C2.36 130.97, 3.1 127.08, 3.97 123.23 C4.85 119.38, 5.88 115.55, 7.04 111.78 C8.21 108.01, 9.51 104.27, 10.96 100.59 C12.4 96.92, 13.98 93.29, 15.7 89.73 C17.41 86.17, 19.26 82.67, 21.23 79.25 C23.21 75.83, 25.32 72.48, 27.54 69.21 C29.77 65.95, 32.12 62.76, 34.58 59.68 C37.04 56.59, 39.63 53.59, 42.31 50.69 C45 47.8, 47.8 45, 50.69 42.31 C53.59 39.63, 56.59 37.04, 59.68 34.58 C62.76 32.12, 65.95 29.77, 69.21 27.54 C72.48 25.32, 75.83 23.21, 79.25 21.23 C82.67 19.26, 86.17 17.41, 89.73 15.7 C93.29 13.98, 96.92 12.4, 100.59 10.96 C104.27 9.51, 108.01 8.21, 111.78 7.04 C115.55 5.88, 119.38 4.85, 123.23 3.97 C127.08 3.1, 130.97 2.36, 134.88 1.77 C138.78 1.18, 142.72 0.74, 146.66 0.44 C150.59 0.15, 154.55 0, 158.5 0 C162.45 0, 166.41 0.15, 170.34 0.44 C174.28 0.74, 178.22 1.18, 182.12 1.77 C186.03 2.36, 189.92 3.1, 193.77 3.97 C197.62 4.85, 201.45 5.88, 205.22 7.04 C208.99 8.21, 212.73 9.51, 216.41 10.96 C220.08 12.4, 223.71 13.98, 227.27 15.7 C230.83 17.41, 234.33 19.26, 237.75 21.23 C241.17 23.21, 244.52 25.32, 247.79 27.54 C251.05 29.77, 254.24 32.12, 257.32 34.58 C260.41 37.04, 263.41 39.63, 266.31 42.31 C269.2 45, 272 47.8, 274.69 50.69 C277.37 53.59, 279.96 56.59, 282.42 59.68 C284.88 62.76, 287.23 65.95, 289.46 69.21 C291.68 72.48, 293.79 75.83, 295.77 79.25 C297.74 82.67, 299.59 86.17, 301.3 89.73 C303.02 93.29, 304.6 96.92, 306.04 100.59 C307.49 104.27, 308.79 108.01, 309.96 111.78 C311.12 115.55, 312.15 119.38, 313.03 123.23 C313.9 127.08, 314.64 130.97, 315.23 134.88 C315.82 138.78, 316.26 142.72, 316.56 146.66 C316.85 150.59, 317 154.55, 317 158.5" stroke="#1e1e1e" stroke-width="4" fill="none"></path></g><g transform="translate(1843.4788236005152 358.17567318305737) rotate(0 100.19166564941406 38.433476394850004)"><text x="100.19166564941406" y="26.93418025751074" font-family="Virgil, Segoe UI Emoji" font-size="30.746781115879838px" fill="#1e1e1e" text-anchor="middle" style="white-space: pre;" direction="ltr" dominant-baseline="alphabetic">Administrator</text><text x="100.19166564941406" y="65.36765665236054" font-family="Virgil, Segoe UI Emoji" font-size="30.746781115879838px" fill="#1e1e1e" text-anchor="middle" style="white-space: pre;" direction="ltr" dominant-baseline="alphabetic">Notified</text></g><g stroke-linecap="round"><g transform="translate(344.7469140680041 405.685574395975) rotate(0 46 0)"><path d="M0 0 C15.33 0, 76.67 0, 92 0 M0 0 C15.33 0, 76.67 0, 92 0" stroke="#1e1e1e" stroke-width="4" fill="none"></path></g><g transform="translate(344.7469140680041 405.685574395975) rotate(0 46 0)"><path d="M68.51 8.55 C74.71 6.29, 80.92 4.03, 92 0 M68.51 8.55 C76.96 5.47, 85.42 2.39, 92 0" stroke="#1e1e1e" stroke-width="4" fill="none"></path></g><g transform="translate(344.7469140680041 405.685574395975) rotate(0 46 0)"><path d="M68.51 -8.55 C74.71 -6.29, 80.92 -4.03, 92 0 M68.51 -8.55 C76.96 -5.47, 85.42 -2.39, 92 0" stroke="#1e1e1e" stroke-width="4" fill="none"></path></g></g><mask></mask><g stroke-linecap="round"><g transform="translate(790.7469140680041 401.685574395975) rotate(0 51 0)"><path d="M0 0 C17 0, 85 0, 102 0 M0 0 C17 0, 85 0, 102 0" stroke="#1e1e1e" stroke-width="4" fill="none"></path></g><g transform="translate(790.7469140680041 401.685574395975) rotate(0 51 0)"><path d="M78.51 8.55 C85.86 5.87, 93.22 3.2, 102 0 M78.51 8.55 C86.07 5.8, 93.63 3.04, 102 0" stroke="#1e1e1e" stroke-width="4" fill="none"></path></g><g transform="translate(790.7469140680041 401.685574395975) rotate(0 51 0)"><path d="M78.51 -8.55 C85.86 -5.87, 93.22 -3.2, 102 0 M78.51 -8.55 C86.07 -5.8, 93.63 -3.04, 102 0" stroke="#1e1e1e" stroke-width="4" fill="none"></path></g></g><mask></mask><g stroke-linecap="round"><g transform="translate(1242.7469140680041 403.685574395975) rotate(0 41 0)"><path d="M0 0 C13.67 0, 68.33 0, 82 0 M0 0 C13.67 0, 68.33 0, 82 0" stroke="#1e1e1e" stroke-width="4" fill="none"></path></g><g transform="translate(1242.7469140680041 403.685574395975) rotate(0 41 0)"><path d="M58.51 8.55 C67.56 5.26, 76.61 1.96, 82 0 M58.51 8.55 C65.15 6.13, 71.8 3.71, 82 0" stroke="#1e1e1e" stroke-width="4" fill="none"></path></g><g transform="translate(1242.7469140680041 403.685574395975) rotate(0 41 0)"><path d="M58.51 -8.55 C67.56 -5.26, 76.61 -1.96, 82 0 M58.51 -8.55 C65.15 -6.13, 71.8 -3.71, 82 0" stroke="#1e1e1e" stroke-width="4" fill="none"></path></g></g><mask></mask><g stroke-linecap="round"><g transform="translate(1676.7469140680005 405.685574395975) rotate(0 54 0)"><path d="M0 0 C18 0, 90 0, 108 0 M0 0 C18 0, 90 0, 108 0" stroke="#1e1e1e" stroke-width="4" fill="none"></path></g><g transform="translate(1676.7469140680005 405.685574395975) rotate(0 54 0)"><path d="M84.51 8.55 C92.27 5.73, 100.03 2.9, 108 0 M84.51 8.55 C89.31 6.8, 94.12 5.05, 108 0" stroke="#1e1e1e" stroke-width="4" fill="none"></path></g><g transform="translate(1676.7469140680005 405.685574395975) rotate(0 54 0)"><path d="M84.51 -8.55 C92.27 -5.73, 100.03 -2.9, 108 0 M84.51 -8.55 C89.31 -6.8, 94.12 -5.05, 108 0" stroke="#1e1e1e" stroke-width="4" fill="none"></path></g></g><mask></mask><g stroke-linecap="round" transform="translate(10 10) rotate(0 1066.666666666666 280)"><path d="M32 0 C550.48 0, 1068.96 0, 2101.33 0 M32 0 C455.19 0, 878.38 0, 2101.33 0 M2101.33 0 C2122.67 0, 2133.33 10.67, 2133.33 32 M2101.33 0 C2122.67 0, 2133.33 10.67, 2133.33 32 M2133.33 32 C2133.33 162.26, 2133.33 292.52, 2133.33 528 M2133.33 32 C2133.33 212.3, 2133.33 392.6, 2133.33 528 M2133.33 528 C2133.33 549.33, 2122.67 560, 2101.33 560 M2133.33 528 C2133.33 549.33, 2122.67 560, 2101.33 560 M2101.33 560 C1577.3 560, 1053.27 560, 32 560 M2101.33 560 C1618.76 560, 1136.19 560, 32 560 M32 560 C10.67 560, 0 549.33, 0 528 M32 560 C10.67 560, 0 549.33, 0 528 M0 528 C0 381.76, 0 235.51, 0 32 M0 528 C0 342.69, 0 157.37, 0 32 M0 32 C0 10.67, 10.67 0, 32 0 M0 32 C0 10.67, 10.67 0, 32 0" stroke="#1e1e1e" stroke-width="4" fill="none"></path></g><g stroke-linecap="round"><g transform="translate(13.33333333333212 183.33333333333212) rotate(0 1066.666666666666 0)"><path d="M0 0 C355.56 0, 1777.78 0, 2133.33 0 M0 0 C355.56 0, 1777.78 0, 2133.33 0" stroke="#1e1e1e" stroke-width="4" fill="none"></path></g></g><mask></mask><g transform="translate(838.7666702270471 46.66666666666606) rotate(0 219.6308545713091 60.83333333333394)"><text x="219.63085457130933" y="85.26400000000083" font-family="Virgil, Segoe UI Emoji" font-size="97.3333333333343px" fill="#1e1e1e" text-anchor="middle" style="white-space: pre;" direction="ltr" dominant-baseline="alphabetic">ERP Flow</text></g></svg>