<svg version="1.1" xmlns="http://www.w3.org/2000/svg" viewBox="0 0 3280 629.1666666666661" width="3280" height="629.1666666666661" filter="invert(93%) hue-rotate(180deg)">
  <!-- svg-source:excalidraw -->
  
  <defs>
    <style class="style-fonts">
      @font-face {
        font-family: "Virgil";
        src: url("https://excalidraw.com/Virgil.woff2");
      }
      @font-face {
        font-family: "Cascadia";
        src: url("https://excalidraw.com/Cascadia.woff2");
      }
      @font-face {
        font-family: "Assistant";
        src: url("https://excalidraw.com/Assistant-Regular.woff2");
      }
    </style>
    
  </defs>
  <rect x="0" y="0" width="3280" height="629.1666666666661" fill="#ffffff"></rect><g stroke-linecap="round" transform="translate(54.09523809528764 203.76190476190277) rotate(0 198.33333333333394 198.33333333333394)"><path d="M396.67 198.33 C396.67 202.84, 396.51 207.37, 396.2 211.87 C395.9 216.37, 395.43 220.87, 394.82 225.34 C394.21 229.81, 393.44 234.27, 392.52 238.69 C391.6 243.1, 390.53 247.5, 389.31 251.84 C388.09 256.19, 386.73 260.5, 385.22 264.75 C383.7 269, 382.04 273.21, 380.25 277.35 C378.45 281.49, 376.51 285.57, 374.43 289.58 C372.35 293.59, 370.14 297.53, 367.79 301.38 C365.45 305.24, 362.97 309.02, 360.37 312.71 C357.76 316.39, 355.03 320, 352.18 323.5 C349.34 327, 346.36 330.41, 343.28 333.71 C340.2 337, 337 340.2, 333.71 343.28 C330.41 346.36, 327 349.34, 323.5 352.18 C320 355.03, 316.39 357.76, 312.71 360.37 C309.02 362.97, 305.24 365.45, 301.38 367.79 C297.53 370.14, 293.59 372.35, 289.58 374.43 C285.57 376.51, 281.49 378.45, 277.35 380.25 C273.21 382.04, 269 383.7, 264.75 385.22 C260.5 386.73, 256.19 388.09, 251.84 389.31 C247.5 390.53, 243.1 391.6, 238.69 392.52 C234.27 393.44, 229.81 394.21, 225.34 394.82 C220.87 395.43, 216.37 395.9, 211.87 396.2 C207.37 396.51, 202.84 396.67, 198.33 396.67 C193.82 396.67, 189.3 396.51, 184.8 396.2 C180.3 395.9, 175.8 395.43, 171.33 394.82 C166.86 394.21, 162.4 393.44, 157.98 392.52 C153.56 391.6, 149.17 390.53, 144.82 389.31 C140.48 388.09, 136.17 386.73, 131.92 385.22 C127.66 383.7, 123.46 382.04, 119.32 380.25 C115.18 378.45, 111.09 376.51, 107.09 374.43 C103.08 372.35, 99.14 370.14, 95.28 367.79 C91.43 365.45, 87.64 362.97, 83.96 360.37 C80.27 357.76, 76.67 355.03, 73.17 352.18 C69.67 349.34, 66.26 346.36, 62.96 343.28 C59.66 340.2, 56.46 337, 53.38 333.71 C50.3 330.41, 47.33 327, 44.48 323.5 C41.64 320, 38.9 316.39, 36.3 312.71 C33.7 309.02, 31.22 305.24, 28.87 301.38 C26.53 297.53, 24.31 293.59, 22.24 289.58 C20.16 285.57, 18.22 281.49, 16.42 277.35 C14.62 273.21, 12.96 269, 11.45 264.75 C9.94 260.5, 8.57 256.19, 7.35 251.84 C6.14 247.5, 5.07 243.1, 4.15 238.69 C3.23 234.27, 2.46 229.81, 1.85 225.34 C1.23 220.87, 0.77 216.37, 0.46 211.87 C0.15 207.37, 0 202.84, 0 198.33 C0 193.82, 0.15 189.3, 0.46 184.8 C0.77 180.3, 1.23 175.8, 1.85 171.33 C2.46 166.86, 3.23 162.4, 4.15 157.98 C5.07 153.56, 6.14 149.17, 7.35 144.82 C8.57 140.48, 9.94 136.17, 11.45 131.92 C12.96 127.66, 14.62 123.46, 16.42 119.32 C18.22 115.18, 20.16 111.09, 22.24 107.09 C24.31 103.08, 26.53 99.14, 28.87 95.28 C31.22 91.43, 33.7 87.64, 36.3 83.96 C38.9 80.27, 41.64 76.67, 44.48 73.17 C47.33 69.67, 50.3 66.26, 53.38 62.96 C56.46 59.66, 59.66 56.46, 62.96 53.38 C66.26 50.3, 69.67 47.33, 73.17 44.48 C76.67 41.64, 80.27 38.9, 83.96 36.3 C87.64 33.7, 91.43 31.22, 95.28 28.87 C99.14 26.53, 103.08 24.31, 107.09 22.24 C111.09 20.16, 115.18 18.22, 119.32 16.42 C123.46 14.62, 127.66 12.96, 131.92 11.45 C136.17 9.94, 140.48 8.57, 144.82 7.35 C149.17 6.14, 153.56 5.07, 157.98 4.15 C162.4 3.23, 166.86 2.46, 171.33 1.85 C175.8 1.23, 180.3 0.77, 184.8 0.46 C189.3 0.15, 193.82 0, 198.33 0 C202.84 0, 207.37 0.15, 211.87 0.46 C216.37 0.77, 220.87 1.23, 225.34 1.85 C229.81 2.46, 234.27 3.23, 238.69 4.15 C243.1 5.07, 247.5 6.14, 251.84 7.35 C256.19 8.57, 260.5 9.94, 264.75 11.45 C269 12.96, 273.21 14.62, 277.35 16.42 C281.49 18.22, 285.57 20.16, 289.58 22.24 C293.59 24.31, 297.53 26.53, 301.38 28.87 C305.24 31.22, 309.02 33.7, 312.71 36.3 C316.39 38.9, 320 41.64, 323.5 44.48 C327 47.33, 330.41 50.3, 333.71 53.38 C337 56.46, 340.2 59.66, 343.28 62.96 C346.36 66.26, 349.34 69.67, 352.18 73.17 C355.03 76.67, 357.76 80.27, 360.37 83.96 C362.97 87.64, 365.45 91.43, 367.79 95.28 C370.14 99.14, 372.35 103.08, 374.43 107.09 C376.51 111.09, 378.45 115.18, 380.25 119.32 C382.04 123.46, 383.7 127.66, 385.22 131.92 C386.73 136.17, 388.09 140.48, 389.31 144.82 C390.53 149.17, 391.6 153.56, 392.52 157.98 C393.44 162.4, 394.21 166.86, 394.82 171.33 C395.43 175.8, 395.9 180.3, 396.2 184.8 C396.51 189.3, 396.67 193.82, 396.67 198.33" stroke="#1e1e1e" stroke-width="4" fill="none"></path></g><g transform="translate(165.50239214270186 379.35239315990475) rotate(0 86.68333435058594 22.5)"><text x="86.68333435058594" y="31.536" font-family="Virgil, Segoe UI Emoji" font-size="36px" fill="#1e1e1e" text-anchor="middle" style="white-space: pre;" direction="ltr" dominant-baseline="alphabetic">Data:&lt;T&gt;</text></g><g stroke-linecap="round" transform="translate(602.761904761941 278.42857142857065) rotate(0 201 116)"><path d="M32 0 C111.19 0, 190.39 0, 370 0 M32 0 C153.17 0, 274.35 0, 370 0 M370 0 C391.33 0, 402 10.67, 402 32 M370 0 C391.33 0, 402 10.67, 402 32 M402 32 C402 76.18, 402 120.37, 402 200 M402 32 C402 96.51, 402 161.03, 402 200 M402 200 C402 221.33, 391.33 232, 370 232 M402 200 C402 221.33, 391.33 232, 370 232 M370 232 C286.23 232, 202.45 232, 32 232 M370 232 C285.24 232, 200.48 232, 32 232 M32 232 C10.67 232, 0 221.33, 0 200 M32 232 C10.67 232, 0 221.33, 0 200 M0 200 C0 166.29, 0 132.58, 0 32 M0 200 C0 160.52, 0 121.04, 0 32 M0 32 C0 10.67, 10.67 0, 32 0 M0 32 C0 10.67, 10.67 0, 32 0" stroke="#1e1e1e" stroke-width="4" fill="none"></path></g><g transform="translate(609.9035673595972 304.42857142857065) rotate(0 193.85833740234375 90)"><text x="193.85833740234375" y="31.536" font-family="Virgil, Segoe UI Emoji" font-size="36px" fill="#1e1e1e" text-anchor="middle" style="white-space: pre;" direction="ltr" dominant-baseline="alphabetic">encrypted with pqxdh</text><text x="193.85833740234375" y="76.536" font-family="Virgil, Segoe UI Emoji" font-size="36px" fill="#1e1e1e" text-anchor="middle" style="white-space: pre;" direction="ltr" dominant-baseline="alphabetic">using VXEdDSA</text><text x="193.85833740234375" y="121.536" font-family="Virgil, Segoe UI Emoji" font-size="36px" fill="#1e1e1e" text-anchor="middle" style="white-space: pre;" direction="ltr" dominant-baseline="alphabetic">with a ec25519 key || </text><text x="193.85833740234375" y="166.536" font-family="Virgil, Segoe UI Emoji" font-size="36px" fill="#1e1e1e" text-anchor="middle" style="white-space: pre;" direction="ltr" dominant-baseline="alphabetic">p521?</text></g><g stroke-linecap="round"><g transform="translate(454.76190476194097 408.42857142857065) rotate(0 72 0)"><path d="M0 0 C24 0, 120 0, 144 0 M0 0 C24 0, 120 0, 144 0" stroke="#1e1e1e" stroke-width="4" fill="none"></path></g><g transform="translate(454.76190476194097 408.42857142857065) rotate(0 72 0)"><path d="M120.51 8.55 C126.01 6.55, 131.52 4.54, 144 0 M120.51 8.55 C127.23 6.1, 133.96 3.66, 144 0" stroke="#1e1e1e" stroke-width="4" fill="none"></path></g><g transform="translate(454.76190476194097 408.42857142857065) rotate(0 72 0)"><path d="M120.51 -8.55 C126.01 -6.55, 131.52 -4.54, 144 0 M120.51 -8.55 C127.23 -6.1, 133.96 -3.66, 144 0" stroke="#1e1e1e" stroke-width="4" fill="none"></path></g></g><mask></mask><g stroke-linecap="round" transform="translate(1165.1904761905098 274.71428571428623) rotate(0 201 116)"><path d="M32 0 C100.41 0, 168.82 0, 370 0 M32 0 C154.35 0, 276.71 0, 370 0 M370 0 C391.33 0, 402 10.67, 402 32 M370 0 C391.33 0, 402 10.67, 402 32 M402 32 C402 88.39, 402 144.77, 402 200 M402 32 C402 97.68, 402 163.36, 402 200 M402 200 C402 221.33, 391.33 232, 370 232 M402 200 C402 221.33, 391.33 232, 370 232 M370 232 C293.04 232, 216.08 232, 32 232 M370 232 C261.52 232, 153.04 232, 32 232 M32 232 C10.67 232, 0 221.33, 0 200 M32 232 C10.67 232, 0 221.33, 0 200 M0 200 C0 146.86, 0 93.72, 0 32 M0 200 C0 143.46, 0 86.92, 0 32 M0 32 C0 10.67, 10.67 0, 32 0 M0 32 C0 10.67, 10.67 0, 32 0" stroke="#1e1e1e" stroke-width="4" fill="none"></path></g><g transform="translate(1179.0071418399239 345.71428571428623) rotate(0 187.18333435058594 45)"><text x="187.18333435058594" y="31.536" font-family="Virgil, Segoe UI Emoji" font-size="36px" fill="#1e1e1e" text-anchor="middle" style="white-space: pre;" direction="ltr" dominant-baseline="alphabetic">Wrap encrypted</text><text x="187.18333435058594" y="76.536" font-family="Virgil, Segoe UI Emoji" font-size="36px" fill="#1e1e1e" text-anchor="middle" style="white-space: pre;" direction="ltr" dominant-baseline="alphabetic">data in gRPC packet</text></g><g stroke-linecap="round" transform="translate(1722.3333333333576 273.2857142857156) rotate(0 201 116)"><path d="M32 0 C119.9 0, 207.81 0, 370 0 M32 0 C115.15 0, 198.29 0, 370 0 M370 0 C391.33 0, 402 10.67, 402 32 M370 0 C391.33 0, 402 10.67, 402 32 M402 32 C402 81.8, 402 131.59, 402 200 M402 32 C402 89.71, 402 147.42, 402 200 M402 200 C402 221.33, 391.33 232, 370 232 M402 200 C402 221.33, 391.33 232, 370 232 M370 232 C243.77 232, 117.53 232, 32 232 M370 232 C291.78 232, 213.56 232, 32 232 M32 232 C10.67 232, 0 221.33, 0 200 M32 232 C10.67 232, 0 221.33, 0 200 M0 200 C0 138.03, 0 76.07, 0 32 M0 200 C0 142.96, 0 85.92, 0 32 M0 32 C0 10.67, 10.67 0, 32 0 M0 32 C0 10.67, 10.67 0, 32 0" stroke="#1e1e1e" stroke-width="4" fill="none"></path></g><g transform="translate(1757.4583333333576 344.2857142857156) rotate(0 165.875 45)"><text x="165.875" y="31.536" font-family="Virgil, Segoe UI Emoji" font-size="36px" fill="#1e1e1e" text-anchor="middle" style="white-space: pre;" direction="ltr" dominant-baseline="alphabetic">Send Message via </text><text x="165.875" y="76.536" font-family="Virgil, Segoe UI Emoji" font-size="36px" fill="#1e1e1e" text-anchor="middle" style="white-space: pre;" direction="ltr" dominant-baseline="alphabetic">gRPC over TLS</text></g><g stroke-linecap="round" transform="translate(2279.4761904762054 270.4285714285743) rotate(0 201 116)"><path d="M32 0 C129.93 0, 227.86 0, 370 0 M32 0 C160.64 0, 289.27 0, 370 0 M370 0 C391.33 0, 402 10.67, 402 32 M370 0 C391.33 0, 402 10.67, 402 32 M402 32 C402 91.03, 402 150.07, 402 200 M402 32 C402 96.45, 402 160.91, 402 200 M402 200 C402 221.33, 391.33 232, 370 232 M402 200 C402 221.33, 391.33 232, 370 232 M370 232 C250.26 232, 130.52 232, 32 232 M370 232 C273.78 232, 177.56 232, 32 232 M32 232 C10.67 232, 0 221.33, 0 200 M32 232 C10.67 232, 0 221.33, 0 200 M0 200 C0 133.5, 0 67, 0 32 M0 200 C0 153.85, 0 107.69, 0 32 M0 32 C0 10.67, 10.67 0, 32 0 M0 32 C0 10.67, 10.67 0, 32 0" stroke="#1e1e1e" stroke-width="4" fill="none"></path></g><g transform="translate(2343.884530930307 363.9285714285743) rotate(0 136.59165954589844 22.5)"><text x="136.59165954589844" y="31.536" font-family="Virgil, Segoe UI Emoji" font-size="36px" fill="#1e1e1e" text-anchor="middle" style="white-space: pre;" direction="ltr" dominant-baseline="alphabetic">Await Response</text></g><g stroke-linecap="round" transform="translate(2826.190476190466 194.99999999999818) rotate(0 198.33333333333394 198.33333333333394)"><path d="M396.67 198.33 C396.67 202.84, 396.51 207.37, 396.2 211.87 C395.9 216.37, 395.43 220.87, 394.82 225.34 C394.21 229.81, 393.44 234.27, 392.52 238.69 C391.6 243.1, 390.53 247.5, 389.31 251.84 C388.09 256.19, 386.73 260.5, 385.22 264.75 C383.7 269, 382.04 273.21, 380.25 277.35 C378.45 281.49, 376.51 285.57, 374.43 289.58 C372.35 293.59, 370.14 297.53, 367.79 301.38 C365.45 305.24, 362.97 309.02, 360.37 312.71 C357.76 316.39, 355.03 320, 352.18 323.5 C349.34 327, 346.36 330.41, 343.28 333.71 C340.2 337, 337 340.2, 333.71 343.28 C330.41 346.36, 327 349.34, 323.5 352.18 C320 355.03, 316.39 357.76, 312.71 360.37 C309.02 362.97, 305.24 365.45, 301.38 367.79 C297.53 370.14, 293.59 372.35, 289.58 374.43 C285.57 376.51, 281.49 378.45, 277.35 380.25 C273.21 382.04, 269 383.7, 264.75 385.22 C260.5 386.73, 256.19 388.09, 251.84 389.31 C247.5 390.53, 243.1 391.6, 238.69 392.52 C234.27 393.44, 229.81 394.21, 225.34 394.82 C220.87 395.43, 216.37 395.9, 211.87 396.2 C207.37 396.51, 202.84 396.67, 198.33 396.67 C193.82 396.67, 189.3 396.51, 184.8 396.2 C180.3 395.9, 175.8 395.43, 171.33 394.82 C166.86 394.21, 162.4 393.44, 157.98 392.52 C153.56 391.6, 149.17 390.53, 144.82 389.31 C140.48 388.09, 136.17 386.73, 131.92 385.22 C127.66 383.7, 123.46 382.04, 119.32 380.25 C115.18 378.45, 111.09 376.51, 107.09 374.43 C103.08 372.35, 99.14 370.14, 95.28 367.79 C91.43 365.45, 87.64 362.97, 83.96 360.37 C80.27 357.76, 76.67 355.03, 73.17 352.18 C69.67 349.34, 66.26 346.36, 62.96 343.28 C59.66 340.2, 56.46 337, 53.38 333.71 C50.3 330.41, 47.33 327, 44.48 323.5 C41.64 320, 38.9 316.39, 36.3 312.71 C33.7 309.02, 31.22 305.24, 28.87 301.38 C26.53 297.53, 24.31 293.59, 22.24 289.58 C20.16 285.57, 18.22 281.49, 16.42 277.35 C14.62 273.21, 12.96 269, 11.45 264.75 C9.94 260.5, 8.57 256.19, 7.35 251.84 C6.14 247.5, 5.07 243.1, 4.15 238.69 C3.23 234.27, 2.46 229.81, 1.85 225.34 C1.23 220.87, 0.77 216.37, 0.46 211.87 C0.15 207.37, 0 202.84, 0 198.33 C0 193.82, 0.15 189.3, 0.46 184.8 C0.77 180.3, 1.23 175.8, 1.85 171.33 C2.46 166.86, 3.23 162.4, 4.15 157.98 C5.07 153.56, 6.14 149.17, 7.35 144.82 C8.57 140.48, 9.94 136.17, 11.45 131.92 C12.96 127.66, 14.62 123.46, 16.42 119.32 C18.22 115.18, 20.16 111.09, 22.24 107.09 C24.31 103.08, 26.53 99.14, 28.87 95.28 C31.22 91.43, 33.7 87.64, 36.3 83.96 C38.9 80.27, 41.64 76.67, 44.48 73.17 C47.33 69.67, 50.3 66.26, 53.38 62.96 C56.46 59.66, 59.66 56.46, 62.96 53.38 C66.26 50.3, 69.67 47.33, 73.17 44.48 C76.67 41.64, 80.27 38.9, 83.96 36.3 C87.64 33.7, 91.43 31.22, 95.28 28.87 C99.14 26.53, 103.08 24.31, 107.09 22.24 C111.09 20.16, 115.18 18.22, 119.32 16.42 C123.46 14.62, 127.66 12.96, 131.92 11.45 C136.17 9.94, 140.48 8.57, 144.82 7.35 C149.17 6.14, 153.56 5.07, 157.98 4.15 C162.4 3.23, 166.86 2.46, 171.33 1.85 C175.8 1.23, 180.3 0.77, 184.8 0.46 C189.3 0.15, 193.82 0, 198.33 0 C202.84 0, 207.37 0.15, 211.87 0.46 C216.37 0.77, 220.87 1.23, 225.34 1.85 C229.81 2.46, 234.27 3.23, 238.69 4.15 C243.1 5.07, 247.5 6.14, 251.84 7.35 C256.19 8.57, 260.5 9.94, 264.75 11.45 C269 12.96, 273.21 14.62, 277.35 16.42 C281.49 18.22, 285.57 20.16, 289.58 22.24 C293.59 24.31, 297.53 26.53, 301.38 28.87 C305.24 31.22, 309.02 33.7, 312.71 36.3 C316.39 38.9, 320 41.64, 323.5 44.48 C327 47.33, 330.41 50.3, 333.71 53.38 C337 56.46, 340.2 59.66, 343.28 62.96 C346.36 66.26, 349.34 69.67, 352.18 73.17 C355.03 76.67, 357.76 80.27, 360.37 83.96 C362.97 87.64, 365.45 91.43, 367.79 95.28 C370.14 99.14, 372.35 103.08, 374.43 107.09 C376.51 111.09, 378.45 115.18, 380.25 119.32 C382.04 123.46, 383.7 127.66, 385.22 131.92 C386.73 136.17, 388.09 140.48, 389.31 144.82 C390.53 149.17, 391.6 153.56, 392.52 157.98 C393.44 162.4, 394.21 166.86, 394.82 171.33 C395.43 175.8, 395.9 180.3, 396.2 184.8 C396.51 189.3, 396.67 193.82, 396.67 198.33" stroke="#1e1e1e" stroke-width="4" fill="none"></path></g><g transform="translate(2889.6142928355366 375.59048839800016) rotate(0 134.6666717529297 17.5)"><text x="134.6666717529297" y="24.528" font-family="Virgil, Segoe UI Emoji" font-size="28px" fill="#1e1e1e" text-anchor="middle" style="white-space: pre;" direction="ltr" dominant-baseline="alphabetic">Response&lt;protobuf&gt;</text></g><g stroke-linecap="round"><g transform="translate(2682.4761904762054 390.34635761280515) rotate(0 71.36137953483376 2.4124509387038415)"><path d="M0 0 C23.79 0.8, 118.94 4.02, 142.72 4.82 M0 0 C23.79 0.8, 118.94 4.02, 142.72 4.82" stroke="#1e1e1e" stroke-width="4" fill="none"></path></g><g transform="translate(2682.4761904762054 390.34635761280515) rotate(0 71.36137953483376 2.4124509387038415)"><path d="M118.95 12.58 C123.72 11.02, 128.49 9.47, 142.72 4.82 M118.95 12.58 C127.5 9.79, 136.04 7, 142.72 4.82" stroke="#1e1e1e" stroke-width="4" fill="none"></path></g><g transform="translate(2682.4761904762054 390.34635761280515) rotate(0 71.36137953483376 2.4124509387038415)"><path d="M119.53 -4.51 C124.18 -2.64, 128.84 -0.77, 142.72 4.82 M119.53 -4.51 C127.87 -1.16, 136.21 2.2, 142.72 4.82" stroke="#1e1e1e" stroke-width="4" fill="none"></path></g></g><mask></mask><g stroke-linecap="round"><g transform="translate(2121.9047619047487 387.8571428571431) rotate(0 78.57142857142935 0)"><path d="M0 0 C26.19 0, 130.95 0, 157.14 0 M0 0 C26.19 0, 130.95 0, 157.14 0" stroke="#1e1e1e" stroke-width="4" fill="none"></path></g><g transform="translate(2121.9047619047487 387.8571428571431) rotate(0 78.57142857142935 0)"><path d="M133.65 8.55 C141.26 5.78, 148.88 3.01, 157.14 0 M133.65 8.55 C140.16 6.18, 146.67 3.81, 157.14 0" stroke="#1e1e1e" stroke-width="4" fill="none"></path></g><g transform="translate(2121.9047619047487 387.8571428571431) rotate(0 78.57142857142935 0)"><path d="M133.65 -8.55 C141.26 -5.78, 148.88 -3.01, 157.14 0 M133.65 -8.55 C140.16 -6.18, 146.67 -3.81, 157.14 0" stroke="#1e1e1e" stroke-width="4" fill="none"></path></g></g><mask></mask><g stroke-linecap="round"><g transform="translate(1564.7619047619191 390.7142857142844) rotate(0 77.85714285714312 0)"><path d="M0 0 C25.95 0, 129.76 0, 155.71 0 M0 0 C25.95 0, 129.76 0, 155.71 0" stroke="#1e1e1e" stroke-width="4" fill="none"></path></g><g transform="translate(1564.7619047619191 390.7142857142844) rotate(0 77.85714285714312 0)"><path d="M132.22 8.55 C139.09 6.05, 145.95 3.55, 155.71 0 M132.22 8.55 C139.85 5.77, 147.47 3, 155.71 0" stroke="#1e1e1e" stroke-width="4" fill="none"></path></g><g transform="translate(1564.7619047619191 390.7142857142844) rotate(0 77.85714285714312 0)"><path d="M132.22 -8.55 C139.09 -6.05, 145.95 -3.55, 155.71 0 M132.22 -8.55 C139.85 -5.77, 147.47 -3, 155.71 0" stroke="#1e1e1e" stroke-width="4" fill="none"></path></g></g><mask></mask><g stroke-linecap="round"><g transform="translate(1003.3333333333612 395) rotate(0 80 0)"><path d="M0 0 C26.67 0, 133.33 0, 160 0 M0 0 C26.67 0, 133.33 0, 160 0" stroke="#1e1e1e" stroke-width="4" fill="none"></path></g><g transform="translate(1003.3333333333612 395) rotate(0 80 0)"><path d="M136.51 8.55 C145.27 5.36, 154.03 2.17, 160 0 M136.51 8.55 C144.13 5.78, 151.75 3, 160 0" stroke="#1e1e1e" stroke-width="4" fill="none"></path></g><g transform="translate(1003.3333333333612 395) rotate(0 80 0)"><path d="M136.51 -8.55 C145.27 -5.36, 154.03 -2.17, 160 0 M136.51 -8.55 C144.13 -5.78, 151.75 -3, 160 0" stroke="#1e1e1e" stroke-width="4" fill="none"></path></g></g><mask></mask><g stroke-linecap="round" transform="translate(13.333333333335759 10) rotate(0 1628.3333333333321 304.58333333333303)"><path d="M32 0 C928.21 0, 1824.41 0, 3224.67 0 M32 0 C1183.24 0, 2334.48 0, 3224.67 0 M3224.67 0 C3246 0, 3256.67 10.67, 3256.67 32 M3224.67 0 C3246 0, 3256.67 10.67, 3256.67 32 M3256.67 32 C3256.67 157.68, 3256.67 283.37, 3256.67 577.17 M3256.67 32 C3256.67 191.45, 3256.67 350.91, 3256.67 577.17 M3256.67 577.17 C3256.67 598.5, 3246 609.17, 3224.67 609.17 M3256.67 577.17 C3256.67 598.5, 3246 609.17, 3224.67 609.17 M3224.67 609.17 C2032.28 609.17, 839.88 609.17, 32 609.17 M3224.67 609.17 C2128.67 609.17, 1032.67 609.17, 32 609.17 M32 609.17 C10.67 609.17, 0 598.5, 0 577.17 M32 609.17 C10.67 609.17, 0 598.5, 0 577.17 M0 577.17 C0 370.82, 0 164.48, 0 32 M0 577.17 C0 419.7, 0 262.24, 0 32 M0 32 C0 10.67, 10.67 0, 32 0 M0 32 C0 10.67, 10.67 0, 32 0" stroke="#1e1e1e" stroke-width="4" fill="none"></path></g><g stroke-linecap="round"><g transform="translate(10 181.66666666666606) rotate(0 1625.8333333333412 0)"><path d="M0 0 C541.94 0, 2709.72 0, 3251.67 0 M0 0 C541.94 0, 2709.72 0, 3251.67 0" stroke="#1e1e1e" stroke-width="4" fill="none"></path></g></g><mask></mask><g transform="translate(1143.0333353678543 48.33333333333394) rotate(0 521.5833282470703 56.25)"><text x="521.5833282470707" y="78.84000000000009" font-family="Virgil, Segoe UI Emoji" font-size="90.00000000000009px" fill="#1e1e1e" text-anchor="middle" style="white-space: pre;" direction="ltr" dominant-baseline="alphabetic">Network Messaging Flow</text></g></svg>