<svg version="1.1" xmlns="http://www.w3.org/2000/svg" viewBox="0 0 2327.4999999999964 915.5555555555575" width="2327.4999999999964" height="915.5555555555575" filter="invert(93%) hue-rotate(180deg)">
  <!-- svg-source:excalidraw -->
  
  <defs>
    <style class="style-fonts">
      @font-face {
        font-family: "Virgil";
        src: url("https://excalidraw.com/Virgil.woff2");
      }
      @font-face {
        font-family: "Cascadia";
        src: url("https://excalidraw.com/Cascadia.woff2");
      }
      @font-face {
        font-family: "Assistant";
        src: url("https://excalidraw.com/Assistant-Regular.woff2");
      }
    </style>
    
  </defs>
  <rect x="0" y="0" width="2327.4999999999964" height="915.5555555555575" fill="#ffffff"></rect><g stroke-linecap="round" transform="translate(25.488019655756943 256.4833140378587) rotate(0 147.5 147.5)"><path d="M295 147.5 C295 151.36, 294.85 155.23, 294.55 159.07 C294.24 162.92, 293.79 166.76, 293.18 170.57 C292.58 174.38, 291.83 178.18, 290.92 181.93 C290.02 185.68, 288.97 189.41, 287.78 193.08 C286.59 196.75, 285.25 200.38, 283.77 203.95 C282.3 207.51, 280.67 211.03, 278.92 214.46 C277.17 217.9, 275.28 221.28, 273.26 224.57 C271.25 227.86, 269.1 231.08, 266.83 234.2 C264.56 237.32, 262.17 240.36, 259.66 243.29 C257.15 246.23, 254.53 249.07, 251.8 251.8 C249.07 254.53, 246.23 257.15, 243.29 259.66 C240.36 262.17, 237.32 264.56, 234.2 266.83 C231.08 269.1, 227.86 271.25, 224.57 273.26 C221.28 275.28, 217.9 277.17, 214.46 278.92 C211.03 280.67, 207.51 282.3, 203.95 283.77 C200.38 285.25, 196.75 286.59, 193.08 287.78 C189.41 288.97, 185.68 290.02, 181.93 290.92 C178.18 291.83, 174.38 292.58, 170.57 293.18 C166.76 293.79, 162.92 294.24, 159.07 294.55 C155.23 294.85, 151.36 295, 147.5 295 C143.64 295, 139.77 294.85, 135.93 294.55 C132.08 294.24, 128.24 293.79, 124.43 293.18 C120.62 292.58, 116.82 291.83, 113.07 290.92 C109.32 290.02, 105.59 288.97, 101.92 287.78 C98.25 286.59, 94.62 285.25, 91.05 283.77 C87.49 282.3, 83.97 280.67, 80.54 278.92 C77.1 277.17, 73.72 275.28, 70.43 273.26 C67.14 271.25, 63.92 269.1, 60.8 266.83 C57.68 264.56, 54.64 262.17, 51.71 259.66 C48.77 257.15, 45.93 254.53, 43.2 251.8 C40.47 249.07, 37.85 246.23, 35.34 243.29 C32.83 240.36, 30.44 237.32, 28.17 234.2 C25.9 231.08, 23.75 227.86, 21.74 224.57 C19.72 221.28, 17.83 217.9, 16.08 214.46 C14.33 211.03, 12.7 207.51, 11.23 203.95 C9.75 200.38, 8.41 196.75, 7.22 193.08 C6.03 189.41, 4.98 185.68, 4.08 181.93 C3.17 178.18, 2.42 174.38, 1.82 170.57 C1.21 166.76, 0.76 162.92, 0.45 159.07 C0.15 155.23, 0 151.36, 0 147.5 C0 143.64, 0.15 139.77, 0.45 135.93 C0.76 132.08, 1.21 128.24, 1.82 124.43 C2.42 120.62, 3.17 116.82, 4.08 113.07 C4.98 109.32, 6.03 105.59, 7.22 101.92 C8.41 98.25, 9.75 94.62, 11.23 91.05 C12.7 87.49, 14.33 83.97, 16.08 80.54 C17.83 77.1, 19.72 73.72, 21.74 70.43 C23.75 67.14, 25.9 63.92, 28.17 60.8 C30.44 57.68, 32.83 54.64, 35.34 51.71 C37.85 48.77, 40.47 45.93, 43.2 43.2 C45.93 40.47, 48.77 37.85, 51.71 35.34 C54.64 32.83, 57.68 30.44, 60.8 28.17 C63.92 25.9, 67.14 23.75, 70.43 21.74 C73.72 19.72, 77.1 17.83, 80.54 16.08 C83.97 14.33, 87.49 12.7, 91.05 11.23 C94.62 9.75, 98.25 8.41, 101.92 7.22 C105.59 6.03, 109.32 4.98, 113.07 4.08 C116.82 3.17, 120.62 2.42, 124.43 1.82 C128.24 1.21, 132.08 0.76, 135.93 0.45 C139.77 0.15, 143.64 0, 147.5 0 C151.36 0, 155.23 0.15, 159.07 0.45 C162.92 0.76, 166.76 1.21, 170.57 1.82 C174.38 2.42, 178.18 3.17, 181.93 4.08 C185.68 4.98, 189.41 6.03, 193.08 7.22 C196.75 8.41, 200.38 9.75, 203.95 11.23 C207.51 12.7, 211.03 14.33, 214.46 16.08 C217.9 17.83, 221.28 19.72, 224.57 21.74 C227.86 23.75, 231.08 25.9, 234.2 28.17 C237.32 30.44, 240.36 32.83, 243.29 35.34 C246.23 37.85, 249.07 40.47, 251.8 43.2 C254.53 45.93, 257.15 48.77, 259.66 51.71 C262.17 54.64, 264.56 57.68, 266.83 60.8 C269.1 63.92, 271.25 67.14, 273.26 70.43 C275.28 73.72, 277.17 77.1, 278.92 80.54 C280.67 83.97, 282.3 87.49, 283.77 91.05 C285.25 94.62, 286.59 98.25, 287.78 101.92 C288.97 105.59, 290.02 109.32, 290.92 113.07 C291.83 116.82, 292.58 120.62, 293.18 124.43 C293.79 128.24, 294.24 132.08, 294.55 135.93 C294.85 139.77, 295 143.64, 295 147.5" stroke="#1e1e1e" stroke-width="4" fill="none"></path></g><g transform="translate(87.29809920369007 362.3392694203194) rotate(0 85.89167022705078 41.8457943925232)"><text x="85.89167022705078" y="29.325532710280385" font-family="Virgil, Segoe UI Emoji" font-size="33.476635514018696px" fill="#1e1e1e" text-anchor="middle" style="white-space: pre;" direction="ltr" dominant-baseline="alphabetic">Generated</text><text x="85.89167022705078" y="71.17132710280376" font-family="Virgil, Segoe UI Emoji" font-size="33.476635514018696px" fill="#1e1e1e" text-anchor="middle" style="white-space: pre;" direction="ltr" dominant-baseline="alphabetic">Secret</text></g><g stroke-linecap="round" transform="translate(461.0513773972998 311.43098710720824) rotate(0 163 93)"><path d="M32 0 C127.23 0, 222.46 0, 294 0 M32 0 C98.01 0, 164.03 0, 294 0 M294 0 C315.33 0, 326 10.67, 326 32 M294 0 C315.33 0, 326 10.67, 326 32 M326 32 C326 58.46, 326 84.92, 326 154 M326 32 C326 68.07, 326 104.14, 326 154 M326 154 C326 175.33, 315.33 186, 294 186 M326 154 C326 175.33, 315.33 186, 294 186 M294 186 C213.5 186, 133 186, 32 186 M294 186 C192.1 186, 90.21 186, 32 186 M32 186 C10.67 186, 0 175.33, 0 154 M32 186 C10.67 186, 0 175.33, 0 154 M0 154 C0 113.22, 0 72.43, 0 32 M0 154 C0 126.31, 0 98.62, 0 32 M0 32 C0 10.67, 10.67 0, 32 0 M0 32 C0 10.67, 10.67 0, 32 0" stroke="#1e1e1e" stroke-width="4" fill="none"></path></g><g transform="translate(591.2263766343603 381.93098710720824) rotate(0 32.82500076293945 22.5)"><text x="32.82500076293945" y="31.536" font-family="Virgil, Segoe UI Emoji" font-size="36px" fill="#1e1e1e" text-anchor="middle" style="white-space: pre;" direction="ltr" dominant-baseline="alphabetic">SSS</text></g><g stroke-linecap="round"><g transform="translate(321.43632697707653 407.90122846202394) rotate(0 69.30752521011163 0)"><path d="M0 0 C23.1 0, 115.51 0, 138.62 0 M0 0 C23.1 0, 115.51 0, 138.62 0" stroke="#1e1e1e" stroke-width="4" fill="none"></path></g><g transform="translate(321.43632697707653 407.90122846202394) rotate(0 69.30752521011163 0)"><path d="M115.12 8.55 C121.71 6.15, 128.3 3.75, 138.62 0 M115.12 8.55 C120.63 6.54, 126.15 4.54, 138.62 0" stroke="#1e1e1e" stroke-width="4" fill="none"></path></g><g transform="translate(321.43632697707653 407.90122846202394) rotate(0 69.30752521011163 0)"><path d="M115.12 -8.55 C121.71 -6.15, 128.3 -3.75, 138.62 0 M115.12 -8.55 C120.63 -6.54, 126.15 -4.54, 138.62 0" stroke="#1e1e1e" stroke-width="4" fill="none"></path></g></g><mask></mask><g stroke-linecap="round"><g transform="translate(788.0513773973034 362.3871871682604) rotate(0 170.65717857465097 -81.29688186156909)"><path d="M0 0 C22.06 -23.66, 75.45 -114.84, 132.34 -141.94 C189.22 -169.04, 306.48 -159.15, 341.31 -162.59 M0 0 C22.06 -23.66, 75.45 -114.84, 132.34 -141.94 C189.22 -169.04, 306.48 -159.15, 341.31 -162.59" stroke="#1e1e1e" stroke-width="4" fill="none"></path></g><g transform="translate(788.0513773973034 362.3871871682604) rotate(0 170.65717857465097 -81.29688186156909)"><path d="M317.97 -153.64 C325.07 -156.36, 332.17 -159.09, 341.31 -162.59 M317.97 -153.64 C324.26 -156.05, 330.56 -158.47, 341.31 -162.59" stroke="#1e1e1e" stroke-width="4" fill="none"></path></g><g transform="translate(788.0513773973034 362.3871871682604) rotate(0 170.65717857465097 -81.29688186156909)"><path d="M317.68 -170.74 C324.87 -168.26, 332.06 -165.78, 341.31 -162.59 M317.68 -170.74 C324.05 -168.54, 330.42 -166.35, 341.31 -162.59" stroke="#1e1e1e" stroke-width="4" fill="none"></path></g></g><mask></mask><g stroke-linecap="round"><g transform="translate(788.0513773973071 390.0701392001538) rotate(0 171.72450718433538 -18.065880758552794)"><path d="M0 0 C25.2 -5.86, 93.98 -29.16, 151.23 -35.18 C208.47 -41.2, 311.41 -35.97, 343.45 -36.13 M0 0 C25.2 -5.86, 93.98 -29.16, 151.23 -35.18 C208.47 -41.2, 311.41 -35.97, 343.45 -36.13" stroke="#1e1e1e" stroke-width="4" fill="none"></path></g><g transform="translate(788.0513773973071 390.0701392001538) rotate(0 171.72450718433538 -18.065880758552794)"><path d="M319.8 -28.03 C327.64 -30.72, 335.49 -33.41, 343.45 -36.13 M319.8 -28.03 C328.71 -31.09, 337.63 -34.14, 343.45 -36.13" stroke="#1e1e1e" stroke-width="4" fill="none"></path></g><g transform="translate(788.0513773973071 390.0701392001538) rotate(0 171.72450718433538 -18.065880758552794)"><path d="M320.13 -45.13 C327.86 -42.15, 335.6 -39.16, 343.45 -36.13 M320.13 -45.13 C328.92 -41.74, 337.71 -38.35, 343.45 -36.13" stroke="#1e1e1e" stroke-width="4" fill="none"></path></g></g><mask></mask><g stroke-linecap="round"><g transform="translate(788.0513773973071 423.58367630589873) rotate(0 172.01777773097638 43.30865739901856)"><path d="M0 0 C26.32 11.33, 100.55 53.54, 157.89 67.97 C215.23 82.41, 313.01 83.51, 344.04 86.62 M0 0 C26.32 11.33, 100.55 53.54, 157.89 67.97 C215.23 82.41, 313.01 83.51, 344.04 86.62" stroke="#1e1e1e" stroke-width="4" fill="none"></path></g><g transform="translate(788.0513773973071 423.58367630589873) rotate(0 172.01777773097638 43.30865739901856)"><path d="M320.06 93.7 C328.25 91.28, 336.43 88.86, 344.04 86.62 M320.06 93.7 C325.71 92.03, 331.36 90.36, 344.04 86.62" stroke="#1e1e1e" stroke-width="4" fill="none"></path></g><g transform="translate(788.0513773973071 423.58367630589873) rotate(0 172.01777773097638 43.30865739901856)"><path d="M321.12 76.63 C328.94 80.04, 336.77 83.45, 344.04 86.62 M321.12 76.63 C326.52 78.98, 331.92 81.34, 344.04 86.62" stroke="#1e1e1e" stroke-width="4" fill="none"></path></g></g><mask></mask><g stroke-linecap="round"><g transform="translate(788.0513773973034 444.36186590176385) rotate(0 169.89111553944167 108.27755734171205)"><path d="M0 0 C25.02 29.53, 93.48 141.1, 150.12 177.19 C206.75 213.29, 308.17 209.99, 339.78 216.56 M0 0 C25.02 29.53, 93.48 141.1, 150.12 177.19 C206.75 213.29, 308.17 209.99, 339.78 216.56" stroke="#1e1e1e" stroke-width="4" fill="none"></path></g><g transform="translate(788.0513773973034 444.36186590176385) rotate(0 169.89111553944167 108.27755734171205)"><path d="M315.53 222.64 C324.66 220.35, 333.79 218.06, 339.78 216.56 M315.53 222.64 C324.12 220.49, 332.71 218.33, 339.78 216.56" stroke="#1e1e1e" stroke-width="4" fill="none"></path></g><g transform="translate(788.0513773973034 444.36186590176385) rotate(0 169.89111553944167 108.27755734171205)"><path d="M317.29 205.63 C325.76 209.74, 334.23 213.86, 339.78 216.56 M317.29 205.63 C325.26 209.5, 333.22 213.37, 339.78 216.56" stroke="#1e1e1e" stroke-width="4" fill="none"></path></g></g><mask></mask><g stroke-linecap="round"><g transform="translate(788.0513773973071 471.6900068341247) rotate(0 169.91106845780814 175.7399278432231)"><path d="M0 0 C17.98 52.94, 51.26 259.06, 107.89 317.64 C164.53 376.22, 301.17 345.84, 339.82 351.48 M0 0 C17.98 52.94, 51.26 259.06, 107.89 317.64 C164.53 376.22, 301.17 345.84, 339.82 351.48" stroke="#1e1e1e" stroke-width="4" fill="none"></path></g><g transform="translate(788.0513773973071 471.6900068341247) rotate(0 169.91106845780814 175.7399278432231)"><path d="M316.53 360.56 C322.93 358.06, 329.34 355.57, 339.82 351.48 M316.53 360.56 C321.75 358.52, 326.97 356.49, 339.82 351.48" stroke="#1e1e1e" stroke-width="4" fill="none"></path></g><g transform="translate(788.0513773973071 471.6900068341247) rotate(0 169.91106845780814 175.7399278432231)"><path d="M316.14 343.46 C322.65 345.67, 329.17 347.87, 339.82 351.48 M316.14 343.46 C321.45 345.26, 326.76 347.06, 339.82 351.48" stroke="#1e1e1e" stroke-width="4" fill="none"></path></g></g><mask></mask><g stroke-linecap="round" transform="translate(10 10) rotate(0 1153.7499999999982 447.77777777777874)"><path d="M32 0 C708.92 0, 1385.84 0, 2275.5 0 M32 0 C840.52 0, 1649.03 0, 2275.5 0 M2275.5 0 C2296.83 0, 2307.5 10.67, 2307.5 32 M2275.5 0 C2296.83 0, 2307.5 10.67, 2307.5 32 M2307.5 32 C2307.5 250.14, 2307.5 468.27, 2307.5 863.56 M2307.5 32 C2307.5 210.16, 2307.5 388.32, 2307.5 863.56 M2307.5 863.56 C2307.5 884.89, 2296.83 895.56, 2275.5 895.56 M2307.5 863.56 C2307.5 884.89, 2296.83 895.56, 2275.5 895.56 M2275.5 895.56 C1622.75 895.56, 970 895.56, 32 895.56 M2275.5 895.56 C1803.38 895.56, 1331.27 895.56, 32 895.56 M32 895.56 C10.67 895.56, 0 884.89, 0 863.56 M32 895.56 C10.67 895.56, 0 884.89, 0 863.56 M0 863.56 C0 670.78, 0 478, 0 32 M0 863.56 C0 536.47, 0 209.38, 0 32 M0 32 C0 10.67, 10.67 0, 32 0 M0 32 C0 10.67, 10.67 0, 32 0" stroke="#1e1e1e" stroke-width="4" fill="none"></path></g><g stroke-linecap="round"><g transform="translate(10.66666666668607 111.66666666666697) rotate(0 1152.0833333333612 0)"><path d="M0 0 C384.03 0, 1920.14 0, 2304.17 0 M0 0 C384.03 0, 1920.14 0, 2304.17 0" stroke="#1e1e1e" stroke-width="4" fill="none"></path></g></g><mask></mask><g transform="translate(975.6111111111059 25.16666666666697) rotate(0 224.822222222223 37.75)"><text x="224.82222222222236" y="52.91040000000004" font-family="Virgil, Segoe UI Emoji" font-size="60.40000000000005px" fill="#1e1e1e" text-anchor="middle" style="white-space: pre;" direction="ltr" dominant-baseline="alphabetic">Secret Sharder</text></g><g stroke-linecap="round" transform="translate(1133.1666666667406 115.99999999999909) rotate(0 85 78.33333333333303)"><path d="M170 78.33 C170 81.06, 169.84 83.81, 169.53 86.52 C169.22 89.24, 168.76 91.95, 168.14 94.62 C167.53 97.29, 166.76 99.94, 165.84 102.54 C164.92 105.14, 163.86 107.7, 162.65 110.19 C161.45 112.69, 160.09 115.14, 158.61 117.5 C157.13 119.86, 155.51 122.17, 153.77 124.38 C152.03 126.58, 150.15 128.72, 148.17 130.75 C146.19 132.78, 144.08 134.72, 141.88 136.55 C139.68 138.37, 137.36 140.1, 134.96 141.71 C132.57 143.31, 130.06 144.81, 127.5 146.17 C124.94 147.54, 122.28 148.78, 119.57 149.89 C116.87 151, 114.08 151.99, 111.27 152.83 C108.45 153.68, 105.57 154.39, 102.67 154.95 C99.78 155.52, 96.83 155.95, 93.88 156.24 C90.94 156.52, 87.96 156.67, 85 156.67 C82.04 156.67, 79.06 156.52, 76.12 156.24 C73.17 155.95, 70.22 155.52, 67.33 154.95 C64.43 154.39, 61.55 153.68, 58.73 152.83 C55.92 151.99, 53.13 151, 50.43 149.89 C47.72 148.78, 45.06 147.54, 42.5 146.17 C39.94 144.81, 37.43 143.31, 35.04 141.71 C32.64 140.1, 30.32 138.37, 28.12 136.55 C25.92 134.72, 23.81 132.78, 21.83 130.75 C19.85 128.72, 17.97 126.58, 16.23 124.38 C14.49 122.17, 12.87 119.86, 11.39 117.5 C9.91 115.14, 8.55 112.69, 7.35 110.19 C6.14 107.7, 5.08 105.14, 4.16 102.54 C3.24 99.94, 2.47 97.29, 1.86 94.62 C1.24 91.95, 0.78 89.24, 0.47 86.52 C0.16 83.81, 0 81.06, 0 78.33 C0 75.6, 0.16 72.86, 0.47 70.15 C0.78 67.43, 1.24 64.72, 1.86 62.05 C2.47 59.38, 3.24 56.72, 4.16 54.13 C5.08 51.53, 6.14 48.97, 7.35 46.47 C8.55 43.98, 9.91 41.53, 11.39 39.17 C12.87 36.8, 14.49 34.5, 16.23 32.29 C17.97 30.08, 19.85 27.95, 21.83 25.92 C23.81 23.89, 25.92 21.95, 28.12 20.12 C30.32 18.29, 32.64 16.56, 35.04 14.96 C37.43 13.36, 39.94 11.86, 42.5 10.49 C45.06 9.13, 47.72 7.88, 50.43 6.77 C53.13 5.66, 55.92 4.68, 58.73 3.83 C61.55 2.99, 64.43 2.28, 67.33 1.71 C70.22 1.14, 73.17 0.71, 76.12 0.43 C79.06 0.14, 82.04 0, 85 0 C87.96 0, 90.94 0.14, 93.88 0.43 C96.83 0.71, 99.78 1.14, 102.67 1.71 C105.57 2.28, 108.45 2.99, 111.27 3.83 C114.08 4.68, 116.87 5.66, 119.57 6.77 C122.28 7.88, 124.94 9.13, 127.5 10.49 C130.06 11.86, 132.57 13.36, 134.96 14.96 C137.36 16.56, 139.68 18.29, 141.88 20.12 C144.08 21.95, 146.19 23.89, 148.17 25.92 C150.15 27.95, 152.03 30.08, 153.77 32.29 C155.51 34.5, 157.13 36.8, 158.61 39.17 C160.09 41.53, 161.45 43.98, 162.65 46.47 C163.86 48.97, 164.92 51.53, 165.84 54.13 C166.76 56.72, 167.53 59.38, 168.14 62.05 C168.76 64.72, 169.22 67.43, 169.53 70.15 C169.84 72.86, 169.92 76.97, 170 78.33 C170.08 79.7, 170.08 76.97, 170 78.33" stroke="#1e1e1e" stroke-width="4" fill="none"></path></g><g transform="translate(1168.2375895029436 149.44330214038655) rotate(0 49.82500076293945 45)"><text x="49.82500076293945" y="31.536" font-family="Virgil, Segoe UI Emoji" font-size="36px" fill="#1e1e1e" text-anchor="middle" style="white-space: pre;" direction="ltr" dominant-baseline="alphabetic">Shard</text><text x="49.82500076293945" y="76.536" font-family="Virgil, Segoe UI Emoji" font-size="36px" fill="#1e1e1e" text-anchor="middle" style="white-space: pre;" direction="ltr" dominant-baseline="alphabetic">1</text></g><g stroke-linecap="round" transform="translate(1134.2777777778465 272.66666666666606) rotate(0 85 78.33333333333303)"><path d="M170 78.33 C170 81.06, 169.84 83.81, 169.53 86.52 C169.22 89.24, 168.76 91.95, 168.14 94.62 C167.53 97.29, 166.76 99.94, 165.84 102.54 C164.92 105.14, 163.86 107.7, 162.65 110.19 C161.45 112.69, 160.09 115.14, 158.61 117.5 C157.13 119.86, 155.51 122.17, 153.77 124.38 C152.03 126.58, 150.15 128.72, 148.17 130.75 C146.19 132.78, 144.08 134.72, 141.88 136.55 C139.68 138.37, 137.36 140.1, 134.96 141.71 C132.57 143.31, 130.06 144.81, 127.5 146.17 C124.94 147.54, 122.28 148.78, 119.57 149.89 C116.87 151, 114.08 151.99, 111.27 152.83 C108.45 153.68, 105.57 154.39, 102.67 154.95 C99.78 155.52, 96.83 155.95, 93.88 156.24 C90.94 156.52, 87.96 156.67, 85 156.67 C82.04 156.67, 79.06 156.52, 76.12 156.24 C73.17 155.95, 70.22 155.52, 67.33 154.95 C64.43 154.39, 61.55 153.68, 58.73 152.83 C55.92 151.99, 53.13 151, 50.43 149.89 C47.72 148.78, 45.06 147.54, 42.5 146.17 C39.94 144.81, 37.43 143.31, 35.04 141.71 C32.64 140.1, 30.32 138.37, 28.12 136.55 C25.92 134.72, 23.81 132.78, 21.83 130.75 C19.85 128.72, 17.97 126.58, 16.23 124.38 C14.49 122.17, 12.87 119.86, 11.39 117.5 C9.91 115.14, 8.55 112.69, 7.35 110.19 C6.14 107.7, 5.08 105.14, 4.16 102.54 C3.24 99.94, 2.47 97.29, 1.86 94.62 C1.24 91.95, 0.78 89.24, 0.47 86.52 C0.16 83.81, 0 81.06, 0 78.33 C0 75.6, 0.16 72.86, 0.47 70.15 C0.78 67.43, 1.24 64.72, 1.86 62.05 C2.47 59.38, 3.24 56.72, 4.16 54.13 C5.08 51.53, 6.14 48.97, 7.35 46.47 C8.55 43.98, 9.91 41.53, 11.39 39.17 C12.87 36.8, 14.49 34.5, 16.23 32.29 C17.97 30.08, 19.85 27.95, 21.83 25.92 C23.81 23.89, 25.92 21.95, 28.12 20.12 C30.32 18.29, 32.64 16.56, 35.04 14.96 C37.43 13.36, 39.94 11.86, 42.5 10.49 C45.06 9.13, 47.72 7.88, 50.43 6.77 C53.13 5.66, 55.92 4.68, 58.73 3.83 C61.55 2.99, 64.43 2.28, 67.33 1.71 C70.22 1.14, 73.17 0.71, 76.12 0.43 C79.06 0.14, 82.04 0, 85 0 C87.96 0, 90.94 0.14, 93.88 0.43 C96.83 0.71, 99.78 1.14, 102.67 1.71 C105.57 2.28, 108.45 2.99, 111.27 3.83 C114.08 4.68, 116.87 5.66, 119.57 6.77 C122.28 7.88, 124.94 9.13, 127.5 10.49 C130.06 11.86, 132.57 13.36, 134.96 14.96 C137.36 16.56, 139.68 18.29, 141.88 20.12 C144.08 21.95, 146.19 23.89, 148.17 25.92 C150.15 27.95, 152.03 30.08, 153.77 32.29 C155.51 34.5, 157.13 36.8, 158.61 39.17 C160.09 41.53, 161.45 43.98, 162.65 46.47 C163.86 48.97, 164.92 51.53, 165.84 54.13 C166.76 56.72, 167.53 59.38, 168.14 62.05 C168.76 64.72, 169.22 67.43, 169.53 70.15 C169.84 72.86, 169.92 76.97, 170 78.33 C170.08 79.7, 170.08 76.97, 170 78.33" stroke="#1e1e1e" stroke-width="4" fill="none"></path></g><g transform="translate(1169.3487006140494 306.1099688070535) rotate(0 49.82500076293945 45)"><text x="49.82500076293945" y="31.536" font-family="Virgil, Segoe UI Emoji" font-size="36px" fill="#1e1e1e" text-anchor="middle" style="white-space: pre;" direction="ltr" dominant-baseline="alphabetic">Shard</text><text x="49.82500076293945" y="76.536" font-family="Virgil, Segoe UI Emoji" font-size="36px" fill="#1e1e1e" text-anchor="middle" style="white-space: pre;" direction="ltr" dominant-baseline="alphabetic">2</text></g><g stroke-linecap="round" transform="translate(1135.3888888889633 430.44444444444343) rotate(0 85 78.33333333333303)"><path d="M170 78.33 C170 81.06, 169.84 83.81, 169.53 86.52 C169.22 89.24, 168.76 91.95, 168.14 94.62 C167.53 97.29, 166.76 99.94, 165.84 102.54 C164.92 105.14, 163.86 107.7, 162.65 110.19 C161.45 112.69, 160.09 115.14, 158.61 117.5 C157.13 119.86, 155.51 122.17, 153.77 124.38 C152.03 126.58, 150.15 128.72, 148.17 130.75 C146.19 132.78, 144.08 134.72, 141.88 136.55 C139.68 138.37, 137.36 140.1, 134.96 141.71 C132.57 143.31, 130.06 144.81, 127.5 146.17 C124.94 147.54, 122.28 148.78, 119.57 149.89 C116.87 151, 114.08 151.99, 111.27 152.83 C108.45 153.68, 105.57 154.39, 102.67 154.95 C99.78 155.52, 96.83 155.95, 93.88 156.24 C90.94 156.52, 87.96 156.67, 85 156.67 C82.04 156.67, 79.06 156.52, 76.12 156.24 C73.17 155.95, 70.22 155.52, 67.33 154.95 C64.43 154.39, 61.55 153.68, 58.73 152.83 C55.92 151.99, 53.13 151, 50.43 149.89 C47.72 148.78, 45.06 147.54, 42.5 146.17 C39.94 144.81, 37.43 143.31, 35.04 141.71 C32.64 140.1, 30.32 138.37, 28.12 136.55 C25.92 134.72, 23.81 132.78, 21.83 130.75 C19.85 128.72, 17.97 126.58, 16.23 124.38 C14.49 122.17, 12.87 119.86, 11.39 117.5 C9.91 115.14, 8.55 112.69, 7.35 110.19 C6.14 107.7, 5.08 105.14, 4.16 102.54 C3.24 99.94, 2.47 97.29, 1.86 94.62 C1.24 91.95, 0.78 89.24, 0.47 86.52 C0.16 83.81, 0 81.06, 0 78.33 C0 75.6, 0.16 72.86, 0.47 70.15 C0.78 67.43, 1.24 64.72, 1.86 62.05 C2.47 59.38, 3.24 56.72, 4.16 54.13 C5.08 51.53, 6.14 48.97, 7.35 46.47 C8.55 43.98, 9.91 41.53, 11.39 39.17 C12.87 36.8, 14.49 34.5, 16.23 32.29 C17.97 30.08, 19.85 27.95, 21.83 25.92 C23.81 23.89, 25.92 21.95, 28.12 20.12 C30.32 18.29, 32.64 16.56, 35.04 14.96 C37.43 13.36, 39.94 11.86, 42.5 10.49 C45.06 9.13, 47.72 7.88, 50.43 6.77 C53.13 5.66, 55.92 4.68, 58.73 3.83 C61.55 2.99, 64.43 2.28, 67.33 1.71 C70.22 1.14, 73.17 0.71, 76.12 0.43 C79.06 0.14, 82.04 0, 85 0 C87.96 0, 90.94 0.14, 93.88 0.43 C96.83 0.71, 99.78 1.14, 102.67 1.71 C105.57 2.28, 108.45 2.99, 111.27 3.83 C114.08 4.68, 116.87 5.66, 119.57 6.77 C122.28 7.88, 124.94 9.13, 127.5 10.49 C130.06 11.86, 132.57 13.36, 134.96 14.96 C137.36 16.56, 139.68 18.29, 141.88 20.12 C144.08 21.95, 146.19 23.89, 148.17 25.92 C150.15 27.95, 152.03 30.08, 153.77 32.29 C155.51 34.5, 157.13 36.8, 158.61 39.17 C160.09 41.53, 161.45 43.98, 162.65 46.47 C163.86 48.97, 164.92 51.53, 165.84 54.13 C166.76 56.72, 167.53 59.38, 168.14 62.05 C168.76 64.72, 169.22 67.43, 169.53 70.15 C169.84 72.86, 169.92 76.97, 170 78.33 C170.08 79.7, 170.08 76.97, 170 78.33" stroke="#1e1e1e" stroke-width="4" fill="none"></path></g><g transform="translate(1170.4598117251662 463.8877465848309) rotate(0 49.82500076293945 45)"><text x="49.82500076293945" y="31.536" font-family="Virgil, Segoe UI Emoji" font-size="36px" fill="#1e1e1e" text-anchor="middle" style="white-space: pre;" direction="ltr" dominant-baseline="alphabetic">Shard</text><text x="49.82500076293945" y="76.536" font-family="Virgil, Segoe UI Emoji" font-size="36px" fill="#1e1e1e" text-anchor="middle" style="white-space: pre;" direction="ltr" dominant-baseline="alphabetic">3</text></g><g stroke-linecap="round" transform="translate(1133.722222222288 586.5555555555566) rotate(0 85 78.33333333333348)"><path d="M170 78.33 C170 81.06, 169.84 83.81, 169.53 86.52 C169.22 89.24, 168.76 91.95, 168.14 94.62 C167.53 97.29, 166.76 99.94, 165.84 102.54 C164.92 105.14, 163.86 107.7, 162.65 110.19 C161.45 112.69, 160.09 115.14, 158.61 117.5 C157.13 119.86, 155.51 122.17, 153.77 124.38 C152.03 126.58, 150.15 128.72, 148.17 130.75 C146.19 132.78, 144.08 134.72, 141.88 136.55 C139.68 138.37, 137.36 140.1, 134.96 141.71 C132.57 143.31, 130.06 144.81, 127.5 146.17 C124.94 147.54, 122.28 148.78, 119.57 149.89 C116.87 151, 114.08 151.99, 111.27 152.83 C108.45 153.68, 105.57 154.39, 102.67 154.95 C99.78 155.52, 96.83 155.95, 93.88 156.24 C90.94 156.52, 87.96 156.67, 85 156.67 C82.04 156.67, 79.06 156.52, 76.12 156.24 C73.17 155.95, 70.22 155.52, 67.33 154.95 C64.43 154.39, 61.55 153.68, 58.73 152.83 C55.92 151.99, 53.13 151, 50.43 149.89 C47.72 148.78, 45.06 147.54, 42.5 146.17 C39.94 144.81, 37.43 143.31, 35.04 141.71 C32.64 140.1, 30.32 138.37, 28.12 136.55 C25.92 134.72, 23.81 132.78, 21.83 130.75 C19.85 128.72, 17.97 126.58, 16.23 124.38 C14.49 122.17, 12.87 119.86, 11.39 117.5 C9.91 115.14, 8.55 112.69, 7.35 110.19 C6.14 107.7, 5.08 105.14, 4.16 102.54 C3.24 99.94, 2.47 97.29, 1.86 94.62 C1.24 91.95, 0.78 89.24, 0.47 86.52 C0.16 83.81, 0 81.06, 0 78.33 C0 75.6, 0.16 72.86, 0.47 70.15 C0.78 67.43, 1.24 64.72, 1.86 62.05 C2.47 59.38, 3.24 56.72, 4.16 54.13 C5.08 51.53, 6.14 48.97, 7.35 46.47 C8.55 43.98, 9.91 41.53, 11.39 39.17 C12.87 36.8, 14.49 34.5, 16.23 32.29 C17.97 30.08, 19.85 27.95, 21.83 25.92 C23.81 23.89, 25.92 21.95, 28.12 20.12 C30.32 18.29, 32.64 16.56, 35.04 14.96 C37.43 13.36, 39.94 11.86, 42.5 10.49 C45.06 9.13, 47.72 7.88, 50.43 6.77 C53.13 5.66, 55.92 4.68, 58.73 3.83 C61.55 2.99, 64.43 2.28, 67.33 1.71 C70.22 1.14, 73.17 0.71, 76.12 0.43 C79.06 0.14, 82.04 0, 85 0 C87.96 0, 90.94 0.14, 93.88 0.43 C96.83 0.71, 99.78 1.14, 102.67 1.71 C105.57 2.28, 108.45 2.99, 111.27 3.83 C114.08 4.68, 116.87 5.66, 119.57 6.77 C122.28 7.88, 124.94 9.13, 127.5 10.49 C130.06 11.86, 132.57 13.36, 134.96 14.96 C137.36 16.56, 139.68 18.29, 141.88 20.12 C144.08 21.95, 146.19 23.89, 148.17 25.92 C150.15 27.95, 152.03 30.08, 153.77 32.29 C155.51 34.5, 157.13 36.8, 158.61 39.17 C160.09 41.53, 161.45 43.98, 162.65 46.47 C163.86 48.97, 164.92 51.53, 165.84 54.13 C166.76 56.72, 167.53 59.38, 168.14 62.05 C168.76 64.72, 169.22 67.43, 169.53 70.15 C169.84 72.86, 169.92 76.97, 170 78.33 C170.08 79.7, 170.08 76.97, 170 78.33" stroke="#1e1e1e" stroke-width="4" fill="none"></path></g><g transform="translate(1168.793145058491 619.998857695944) rotate(0 49.82500076293945 44.999999999999545)"><text x="49.82500076293945" y="31.536" font-family="Virgil, Segoe UI Emoji" font-size="36px" fill="#1e1e1e" text-anchor="middle" style="white-space: pre;" direction="ltr" dominant-baseline="alphabetic">Shard</text><text x="49.82500076293945" y="76.536" font-family="Virgil, Segoe UI Emoji" font-size="36px" fill="#1e1e1e" text-anchor="middle" style="white-space: pre;" direction="ltr" dominant-baseline="alphabetic">4</text></g><g stroke-linecap="round" transform="translate(1132.6111111111895 742.1111111111104) rotate(0 85 78.33333333333303)"><path d="M170 78.33 C170 81.06, 169.84 83.81, 169.53 86.52 C169.22 89.24, 168.76 91.95, 168.14 94.62 C167.53 97.29, 166.76 99.94, 165.84 102.54 C164.92 105.14, 163.86 107.7, 162.65 110.19 C161.45 112.69, 160.09 115.14, 158.61 117.5 C157.13 119.86, 155.51 122.17, 153.77 124.38 C152.03 126.58, 150.15 128.72, 148.17 130.75 C146.19 132.78, 144.08 134.72, 141.88 136.55 C139.68 138.37, 137.36 140.1, 134.96 141.71 C132.57 143.31, 130.06 144.81, 127.5 146.17 C124.94 147.54, 122.28 148.78, 119.57 149.89 C116.87 151, 114.08 151.99, 111.27 152.83 C108.45 153.68, 105.57 154.39, 102.67 154.95 C99.78 155.52, 96.83 155.95, 93.88 156.24 C90.94 156.52, 87.96 156.67, 85 156.67 C82.04 156.67, 79.06 156.52, 76.12 156.24 C73.17 155.95, 70.22 155.52, 67.33 154.95 C64.43 154.39, 61.55 153.68, 58.73 152.83 C55.92 151.99, 53.13 151, 50.43 149.89 C47.72 148.78, 45.06 147.54, 42.5 146.17 C39.94 144.81, 37.43 143.31, 35.04 141.71 C32.64 140.1, 30.32 138.37, 28.12 136.55 C25.92 134.72, 23.81 132.78, 21.83 130.75 C19.85 128.72, 17.97 126.58, 16.23 124.38 C14.49 122.17, 12.87 119.86, 11.39 117.5 C9.91 115.14, 8.55 112.69, 7.35 110.19 C6.14 107.7, 5.08 105.14, 4.16 102.54 C3.24 99.94, 2.47 97.29, 1.86 94.62 C1.24 91.95, 0.78 89.24, 0.47 86.52 C0.16 83.81, 0 81.06, 0 78.33 C0 75.6, 0.16 72.86, 0.47 70.15 C0.78 67.43, 1.24 64.72, 1.86 62.05 C2.47 59.38, 3.24 56.72, 4.16 54.13 C5.08 51.53, 6.14 48.97, 7.35 46.47 C8.55 43.98, 9.91 41.53, 11.39 39.17 C12.87 36.8, 14.49 34.5, 16.23 32.29 C17.97 30.08, 19.85 27.95, 21.83 25.92 C23.81 23.89, 25.92 21.95, 28.12 20.12 C30.32 18.29, 32.64 16.56, 35.04 14.96 C37.43 13.36, 39.94 11.86, 42.5 10.49 C45.06 9.13, 47.72 7.88, 50.43 6.77 C53.13 5.66, 55.92 4.68, 58.73 3.83 C61.55 2.99, 64.43 2.28, 67.33 1.71 C70.22 1.14, 73.17 0.71, 76.12 0.43 C79.06 0.14, 82.04 0, 85 0 C87.96 0, 90.94 0.14, 93.88 0.43 C96.83 0.71, 99.78 1.14, 102.67 1.71 C105.57 2.28, 108.45 2.99, 111.27 3.83 C114.08 4.68, 116.87 5.66, 119.57 6.77 C122.28 7.88, 124.94 9.13, 127.5 10.49 C130.06 11.86, 132.57 13.36, 134.96 14.96 C137.36 16.56, 139.68 18.29, 141.88 20.12 C144.08 21.95, 146.19 23.89, 148.17 25.92 C150.15 27.95, 152.03 30.08, 153.77 32.29 C155.51 34.5, 157.13 36.8, 158.61 39.17 C160.09 41.53, 161.45 43.98, 162.65 46.47 C163.86 48.97, 164.92 51.53, 165.84 54.13 C166.76 56.72, 167.53 59.38, 168.14 62.05 C168.76 64.72, 169.22 67.43, 169.53 70.15 C169.84 72.86, 169.92 76.97, 170 78.33 C170.08 79.7, 170.08 76.97, 170 78.33" stroke="#1e1e1e" stroke-width="4" fill="none"></path></g><g transform="translate(1167.6820339473925 775.5544132514979) rotate(0 49.82500076293945 45)"><text x="49.82500076293945" y="31.536" font-family="Virgil, Segoe UI Emoji" font-size="36px" fill="#1e1e1e" text-anchor="middle" style="white-space: pre;" direction="ltr" dominant-baseline="alphabetic">Shard</text><text x="49.82500076293945" y="76.536" font-family="Virgil, Segoe UI Emoji" font-size="36px" fill="#1e1e1e" text-anchor="middle" style="white-space: pre;" direction="ltr" dominant-baseline="alphabetic">5</text></g><g stroke-linecap="round" transform="translate(1995.3333333334085 344.94444444444616) rotate(0 152.5 153.5)"><path d="M305 153.5 C305 157.51, 304.84 161.54, 304.53 165.54 C304.22 169.55, 303.75 173.55, 303.12 177.51 C302.5 181.48, 301.72 185.43, 300.79 189.33 C299.86 193.24, 298.77 197.12, 297.54 200.93 C296.3 204.75, 294.92 208.53, 293.39 212.24 C291.87 215.95, 290.19 219.61, 288.38 223.19 C286.57 226.76, 284.61 230.28, 282.53 233.7 C280.44 237.13, 278.22 240.48, 275.88 243.73 C273.53 246.97, 271.05 250.14, 268.46 253.19 C265.87 256.24, 263.15 259.2, 260.33 262.04 C257.51 264.88, 254.57 267.62, 251.54 270.22 C248.51 272.83, 245.36 275.32, 242.14 277.68 C238.91 280.04, 235.58 282.28, 232.18 284.38 C228.78 286.48, 225.29 288.45, 221.73 290.27 C218.18 292.09, 214.54 293.78, 210.86 295.32 C207.17 296.85, 203.42 298.25, 199.63 299.49 C195.83 300.73, 191.98 301.82, 188.1 302.76 C184.22 303.7, 180.3 304.48, 176.36 305.11 C172.42 305.74, 168.44 306.21, 164.47 306.53 C160.49 306.84, 156.49 307, 152.5 307 C148.51 307, 144.51 306.84, 140.53 306.53 C136.56 306.21, 132.58 305.74, 128.64 305.11 C124.7 304.48, 120.78 303.7, 116.9 302.76 C113.02 301.82, 109.17 300.73, 105.37 299.49 C101.58 298.25, 97.83 296.85, 94.14 295.32 C90.46 293.78, 86.82 292.09, 83.27 290.27 C79.71 288.45, 76.22 286.48, 72.82 284.38 C69.42 282.28, 66.09 280.04, 62.86 277.68 C59.64 275.32, 56.49 272.83, 53.46 270.22 C50.43 267.62, 47.49 264.88, 44.67 262.04 C41.85 259.2, 39.13 256.24, 36.54 253.19 C33.95 250.14, 31.47 246.97, 29.12 243.73 C26.78 240.48, 24.56 237.13, 22.47 233.7 C20.39 230.28, 18.43 226.76, 16.62 223.19 C14.81 219.61, 13.13 215.95, 11.61 212.24 C10.08 208.53, 8.7 204.75, 7.46 200.93 C6.23 197.12, 5.14 193.24, 4.21 189.33 C3.28 185.43, 2.5 181.48, 1.88 177.51 C1.25 173.55, 0.78 169.55, 0.47 165.54 C0.16 161.54, 0 157.51, 0 153.5 C0 149.49, 0.16 145.46, 0.47 141.46 C0.78 137.45, 1.25 133.45, 1.88 129.49 C2.5 125.52, 3.28 121.57, 4.21 117.67 C5.14 113.76, 6.23 109.88, 7.46 106.07 C8.7 102.25, 10.08 98.47, 11.61 94.76 C13.13 91.05, 14.81 87.39, 16.62 83.81 C18.43 80.24, 20.39 76.72, 22.47 73.3 C24.56 69.87, 26.78 66.52, 29.12 63.27 C31.47 60.03, 33.95 56.86, 36.54 53.81 C39.13 50.76, 41.85 47.8, 44.67 44.96 C47.49 42.12, 50.43 39.38, 53.46 36.78 C56.49 34.17, 59.64 31.68, 62.86 29.32 C66.09 26.96, 69.42 24.72, 72.82 22.62 C76.22 20.52, 79.71 18.55, 83.27 16.73 C86.82 14.91, 90.46 13.22, 94.14 11.68 C97.83 10.15, 101.58 8.75, 105.37 7.51 C109.17 6.27, 113.02 5.18, 116.9 4.24 C120.78 3.3, 124.7 2.52, 128.64 1.89 C132.58 1.26, 136.56 0.79, 140.53 0.47 C144.51 0.16, 148.51 0, 152.5 0 C156.49 0, 160.49 0.16, 164.47 0.47 C168.44 0.79, 172.42 1.26, 176.36 1.89 C180.3 2.52, 184.22 3.3, 188.1 4.24 C191.98 5.18, 195.83 6.27, 199.63 7.51 C203.42 8.75, 207.17 10.15, 210.86 11.68 C214.54 13.22, 218.18 14.91, 221.73 16.73 C225.29 18.55, 228.78 20.52, 232.18 22.62 C235.58 24.72, 238.91 26.96, 242.14 29.32 C245.36 31.68, 248.51 34.17, 251.54 36.78 C254.57 39.38, 257.51 42.12, 260.33 44.96 C263.15 47.8, 265.87 50.76, 268.46 53.81 C271.05 56.86, 273.53 60.03, 275.88 63.27 C278.22 66.52, 280.44 69.87, 282.53 73.3 C284.61 76.72, 286.57 80.24, 288.38 83.81 C290.19 87.39, 291.87 91.05, 293.39 94.76 C294.92 98.47, 296.3 102.25, 297.54 106.07 C298.77 109.88, 299.86 113.76, 300.79 117.67 C301.72 121.57, 302.5 125.52, 303.12 129.49 C303.75 133.45, 304.22 137.45, 304.53 141.46 C304.84 145.46, 305 149.49, 305 153.5" stroke="#1e1e1e" stroke-width="4" fill="none"></path></g><g transform="translate(2048.057883553047 477.4806563360489) rotate(0 99.94166564941406 20.9228971962616)"><text x="99.94166564941406" y="29.325532710280385" font-family="Virgil, Segoe UI Emoji" font-size="33.476635514018696px" fill="#1e1e1e" text-anchor="middle" style="white-space: pre;" direction="ltr" dominant-baseline="alphabetic">Vec&lt;Shards&gt;</text></g><g stroke-linecap="round" transform="translate(1555.8333333334085 405.44444444444616) rotate(0 163 93)"><path d="M32 0 C88.18 0, 144.36 0, 294 0 M32 0 C118.25 0, 204.49 0, 294 0 M294 0 C315.33 0, 326 10.67, 326 32 M294 0 C315.33 0, 326 10.67, 326 32 M326 32 C326 68.75, 326 105.5, 326 154 M326 32 C326 66.8, 326 101.6, 326 154 M326 154 C326 175.33, 315.33 186, 294 186 M326 154 C326 175.33, 315.33 186, 294 186 M294 186 C200.83 186, 107.65 186, 32 186 M294 186 C241.54 186, 189.08 186, 32 186 M32 186 C10.67 186, 0 175.33, 0 154 M32 186 C10.67 186, 0 175.33, 0 154 M0 154 C0 129.3, 0 104.6, 0 32 M0 154 C0 115.25, 0 76.49, 0 32 M0 32 C0 10.67, 10.67 0, 32 0 M0 32 C0 10.67, 10.67 0, 32 0" stroke="#1e1e1e" stroke-width="4" fill="none"></path></g><g transform="translate(1643.1750005087015 475.94444444444616) rotate(0 75.65833282470703 22.5)"><text x="75.65833282470703" y="31.536" font-family="Virgil, Segoe UI Emoji" font-size="36px" fill="#1e1e1e" text-anchor="middle" style="white-space: pre;" direction="ltr" dominant-baseline="alphabetic">into_vec</text></g><g stroke-linecap="round"><g transform="translate(1882.8333333334085 497.6748838598405) rotate(0 54.996240889977344 -0.2553611803396052)"><path d="M0 0 C18.33 -0.09, 91.66 -0.43, 109.99 -0.51 M0 0 C18.33 -0.09, 91.66 -0.43, 109.99 -0.51" stroke="#1e1e1e" stroke-width="4" fill="none"></path></g><g transform="translate(1882.8333333334085 497.6748838598405) rotate(0 54.996240889977344 -0.2553611803396052)"><path d="M86.54 8.15 C91.64 6.27, 96.73 4.38, 109.99 -0.51 M86.54 8.15 C92.54 5.93, 98.54 3.72, 109.99 -0.51" stroke="#1e1e1e" stroke-width="4" fill="none"></path></g><g transform="translate(1882.8333333334085 497.6748838598405) rotate(0 54.996240889977344 -0.2553611803396052)"><path d="M86.46 -8.95 C91.57 -7.12, 96.69 -5.28, 109.99 -0.51 M86.46 -8.95 C92.48 -6.79, 98.51 -4.63, 109.99 -0.51" stroke="#1e1e1e" stroke-width="4" fill="none"></path></g></g><mask></mask><g stroke-linecap="round"><g transform="translate(1303.7024357268783 186.10140389819662) rotate(0 130.28888248473777 110.98835288916189)"><path d="M0 0 C24.19 10.39, 101.7 25.35, 145.13 62.34 C188.56 99.34, 241.34 195.37, 260.58 221.98 M0 0 C24.19 10.39, 101.7 25.35, 145.13 62.34 C188.56 99.34, 241.34 195.37, 260.58 221.98" stroke="#1e1e1e" stroke-width="4" fill="none"></path></g><g transform="translate(1303.7024357268783 186.10140389819662) rotate(0 130.28888248473777 110.98835288916189)"><path d="M240.68 206.84 C246.62 211.36, 252.57 215.88, 260.58 221.98 M240.68 206.84 C246.79 211.49, 252.9 216.14, 260.58 221.98" stroke="#1e1e1e" stroke-width="4" fill="none"></path></g><g transform="translate(1303.7024357268783 186.10140389819662) rotate(0 130.28888248473777 110.98835288916189)"><path d="M255.07 197.59 C256.71 204.87, 258.36 212.16, 260.58 221.98 M255.07 197.59 C256.76 205.08, 258.45 212.57, 260.58 221.98" stroke="#1e1e1e" stroke-width="4" fill="none"></path></g></g><mask></mask><g stroke-linecap="round"><g transform="translate(1304.173852779997 363.67048033432457) rotate(0 122.3297402767057 50.40669265084534)"><path d="M0 0 C20.78 2.8, 83.88 -0.03, 124.66 16.77 C165.44 33.58, 224.66 86.81, 244.66 100.81 M0 0 C20.78 2.8, 83.88 -0.03, 124.66 16.77 C165.44 33.58, 224.66 86.81, 244.66 100.81" stroke="#1e1e1e" stroke-width="4" fill="none"></path></g><g transform="translate(1304.173852779997 363.67048033432457) rotate(0 122.3297402767057 50.40669265084534)"><path d="M220.89 93.07 C227.78 95.32, 234.68 97.56, 244.66 100.81 M220.89 93.07 C226.27 94.82, 231.66 96.58, 244.66 100.81" stroke="#1e1e1e" stroke-width="4" fill="none"></path></g><g transform="translate(1304.173852779997 363.67048033432457) rotate(0 122.3297402767057 50.40669265084534)"><path d="M231.43 79.6 C235.27 85.75, 239.1 91.91, 244.66 100.81 M231.43 79.6 C234.42 84.41, 237.42 89.21, 244.66 100.81" stroke="#1e1e1e" stroke-width="4" fill="none"></path></g></g><mask></mask><g stroke-linecap="round"><g transform="translate(1306.388884414133 508.80337010640505) rotate(0 123.2222244596378 0.5166339607239934)"><path d="M0 0 C41.07 0.17, 205.37 0.86, 246.44 1.03 M0 0 C41.07 0.17, 205.37 0.86, 246.44 1.03" stroke="#1e1e1e" stroke-width="4" fill="none"></path></g><g transform="translate(1306.388884414133 508.80337010640505) rotate(0 123.2222244596378 0.5166339607239934)"><path d="M222.92 9.49 C228.92 7.33, 234.92 5.17, 246.44 1.03 M222.92 9.49 C230.61 6.72, 238.3 3.96, 246.44 1.03" stroke="#1e1e1e" stroke-width="4" fill="none"></path></g><g transform="translate(1306.388884414133 508.80337010640505) rotate(0 123.2222244596378 0.5166339607239934)"><path d="M222.99 -7.62 C228.97 -5.41, 234.96 -3.2, 246.44 1.03 M222.99 -7.62 C230.66 -4.79, 238.33 -1.96, 246.44 1.03" stroke="#1e1e1e" stroke-width="4" fill="none"></path></g></g><mask></mask><g stroke-linecap="round"><g transform="translate(1304.041871760397 654.9296263351025) rotate(0 125.39573078650574 -52.52325476037959)"><path d="M0 0 C17.13 -2.41, 60.99 3.02, 102.79 -14.49 C144.59 -31.99, 226.12 -89.95, 250.79 -105.05 M0 0 C17.13 -2.41, 60.99 3.02, 102.79 -14.49 C144.59 -31.99, 226.12 -89.95, 250.79 -105.05" stroke="#1e1e1e" stroke-width="4" fill="none"></path></g><g transform="translate(1304.041871760397 654.9296263351025) rotate(0 125.39573078650574 -52.52325476037959)"><path d="M235.83 -85.02 C239.07 -89.35, 242.3 -93.68, 250.79 -105.05 M235.83 -85.02 C241.02 -91.97, 246.22 -98.92, 250.79 -105.05" stroke="#1e1e1e" stroke-width="4" fill="none"></path></g><g transform="translate(1304.041871760397 654.9296263351025) rotate(0 125.39573078650574 -52.52325476037959)"><path d="M226.46 -99.32 C231.72 -100.56, 236.98 -101.8, 250.79 -105.05 M226.46 -99.32 C234.9 -101.31, 243.35 -103.29, 250.79 -105.05" stroke="#1e1e1e" stroke-width="4" fill="none"></path></g></g><mask></mask><g stroke-linecap="round"><g transform="translate(1302.1762274345201 800.7125693675471) rotate(0 133.37592048833358 -103.13406246155091)"><path d="M0 0 C27.44 -12.71, 120.2 -41.89, 164.66 -76.27 C209.12 -110.65, 249.74 -184.6, 266.75 -206.27 M0 0 C27.44 -12.71, 120.2 -41.89, 164.66 -76.27 C209.12 -110.65, 249.74 -184.6, 266.75 -206.27" stroke="#1e1e1e" stroke-width="4" fill="none"></path></g><g transform="translate(1302.1762274345201 800.7125693675471) rotate(0 133.37592048833358 -103.13406246155091)"><path d="M260.62 -182.03 C262.44 -189.23, 264.27 -196.44, 266.75 -206.27 M260.62 -182.03 C262.83 -190.78, 265.05 -199.52, 266.75 -206.27" stroke="#1e1e1e" stroke-width="4" fill="none"></path></g><g transform="translate(1302.1762274345201 800.7125693675471) rotate(0 133.37592048833358 -103.13406246155091)"><path d="M246.48 -191.64 C252.5 -195.99, 258.53 -200.33, 266.75 -206.27 M246.48 -191.64 C253.79 -196.92, 261.11 -202.2, 266.75 -206.27" stroke="#1e1e1e" stroke-width="4" fill="none"></path></g></g><mask></mask></svg>