<svg version="1.1" xmlns="http://www.w3.org/2000/svg" viewBox="0 0 2653.121455619712 632.5427265060653" width="2653.121455619712" height="632.5427265060653" filter="invert(93%) hue-rotate(180deg)">
  <!-- svg-source:excalidraw -->
  
  <defs>
    <style class="style-fonts">
      @font-face {
        font-family: "Virgil";
        src: url("https://excalidraw.com/Virgil.woff2");
      }
      @font-face {
        font-family: "Cascadia";
        src: url("https://excalidraw.com/Cascadia.woff2");
      }
      @font-face {
        font-family: "Assistant";
        src: url("https://excalidraw.com/Assistant-Regular.woff2");
      }
    </style>
    
  </defs>
  <rect x="0" y="0" width="2653.121455619712" height="632.5427265060653" fill="#ffffff"></rect><g stroke-linecap="round" transform="translate(968.4551802555106 290.3368566138997) rotate(0 163 93)"><path d="M32 0 C134.01 0, 236.03 0, 294 0 M32 0 C109.83 0, 187.65 0, 294 0 M294 0 C315.33 0, 326 10.67, 326 32 M294 0 C315.33 0, 326 10.67, 326 32 M326 32 C326 79, 326 126.01, 326 154 M326 32 C326 67.98, 326 103.97, 326 154 M326 154 C326 175.33, 315.33 186, 294 186 M326 154 C326 175.33, 315.33 186, 294 186 M294 186 C199.58 186, 105.15 186, 32 186 M294 186 C231.27 186, 168.55 186, 32 186 M32 186 C10.67 186, 0 175.33, 0 154 M32 186 C10.67 186, 0 175.33, 0 154 M0 154 C0 114.73, 0 75.45, 0 32 M0 154 C0 117.47, 0 80.93, 0 32 M0 32 C0 10.67, 10.67 0, 32 0 M0 32 C0 10.67, 10.67 0, 32 0" stroke="#1e1e1e" stroke-width="4" fill="none"></path></g><g transform="translate(1063.3301802555106 360.8368566138997) rotate(0 68.125 22.5)"><text x="68.125" y="31.536" font-family="Virgil, Segoe UI Emoji" font-size="36px" fill="#1e1e1e" text-anchor="middle" style="white-space: pre;" direction="ltr" dominant-baseline="alphabetic">SHA256</text></g><g stroke-linecap="round"><g transform="translate(819.4551802555106 381.3368566138997) rotate(0 71.35483066742563 0.5084220270596234)"><path d="M0 0 C23.78 0.17, 118.92 0.85, 142.71 1.02 M0 0 C23.78 0.17, 118.92 0.85, 142.71 1.02" stroke="#1e1e1e" stroke-width="4" fill="none"></path></g><g transform="translate(819.4551802555106 381.3368566138997) rotate(0 71.35483066742563 0.5084220270596234)"><path d="M119.16 9.4 C127.74 6.34, 136.32 3.29, 142.71 1.02 M119.16 9.4 C127.4 6.46, 135.65 3.53, 142.71 1.02" stroke="#1e1e1e" stroke-width="4" fill="none"></path></g><g transform="translate(819.4551802555106 381.3368566138997) rotate(0 71.35483066742563 0.5084220270596234)"><path d="M119.28 -7.7 C127.82 -4.52, 136.36 -1.35, 142.71 1.02 M119.28 -7.7 C127.48 -4.65, 135.69 -1.6, 142.71 1.02" stroke="#1e1e1e" stroke-width="4" fill="none"></path></g></g><mask></mask><g stroke-linecap="round" transform="translate(1424.4551802555106 290.3368566138997) rotate(0 163 93)"><path d="M32 0 C99.02 0, 166.04 0, 294 0 M32 0 C124.44 0, 216.88 0, 294 0 M294 0 C315.33 0, 326 10.67, 326 32 M294 0 C315.33 0, 326 10.67, 326 32 M326 32 C326 76.11, 326 120.22, 326 154 M326 32 C326 67.77, 326 103.53, 326 154 M326 154 C326 175.33, 315.33 186, 294 186 M326 154 C326 175.33, 315.33 186, 294 186 M294 186 C193.63 186, 93.26 186, 32 186 M294 186 C235.48 186, 176.96 186, 32 186 M32 186 C10.67 186, 0 175.33, 0 154 M32 186 C10.67 186, 0 175.33, 0 154 M0 154 C0 126.08, 0 98.17, 0 32 M0 154 C0 118.32, 0 82.63, 0 32 M0 32 C0 10.67, 10.67 0, 32 0 M0 32 C0 10.67, 10.67 0, 32 0" stroke="#1e1e1e" stroke-width="4" fill="none"></path></g><g transform="translate(1470.3218489566825 338.3368566138997) rotate(0 117.13333129882812 45)"><text x="117.13333129882812" y="31.536" font-family="Virgil, Segoe UI Emoji" font-size="36px" fill="#1e1e1e" text-anchor="middle" style="white-space: pre;" direction="ltr" dominant-baseline="alphabetic">PBKDF2</text><text x="117.13333129882812" y="76.536" font-family="Virgil, Segoe UI Emoji" font-size="36px" fill="#1e1e1e" text-anchor="middle" style="white-space: pre;" direction="ltr" dominant-baseline="alphabetic">600k Passes</text></g><g stroke-linecap="round"><g transform="translate(1293.4551802555106 380.3368566138997) rotate(0 66 -0.5)"><path d="M0 0 C22 -0.17, 110 -0.83, 132 -1 M0 0 C22 -0.17, 110 -0.83, 132 -1" stroke="#1e1e1e" stroke-width="4" fill="none"></path></g><g transform="translate(1293.4551802555106 380.3368566138997) rotate(0 66 -0.5)"><path d="M108.57 7.73 C116.09 4.93, 123.62 2.12, 132 -1 M108.57 7.73 C116.67 4.71, 124.78 1.69, 132 -1" stroke="#1e1e1e" stroke-width="4" fill="none"></path></g><g transform="translate(1293.4551802555106 380.3368566138997) rotate(0 66 -0.5)"><path d="M108.44 -9.37 C116.01 -6.68, 123.57 -4, 132 -1 M108.44 -9.37 C116.59 -6.48, 124.74 -3.58, 132 -1" stroke="#1e1e1e" stroke-width="4" fill="none"></path></g></g><mask></mask><g stroke-linecap="round" transform="translate(1868.4551802555143 291.3368566138997) rotate(0 163 93)"><path d="M32 0 C115.23 0, 198.46 0, 294 0 M32 0 C136.72 0, 241.45 0, 294 0 M294 0 C315.33 0, 326 10.67, 326 32 M294 0 C315.33 0, 326 10.67, 326 32 M326 32 C326 73.9, 326 115.8, 326 154 M326 32 C326 70.52, 326 109.04, 326 154 M326 154 C326 175.33, 315.33 186, 294 186 M326 154 C326 175.33, 315.33 186, 294 186 M294 186 C227.14 186, 160.29 186, 32 186 M294 186 C196.6 186, 99.19 186, 32 186 M32 186 C10.67 186, 0 175.33, 0 154 M32 186 C10.67 186, 0 175.33, 0 154 M0 154 C0 109.31, 0 64.62, 0 32 M0 154 C0 128.37, 0 102.73, 0 32 M0 32 C0 10.67, 10.67 0, 32 0 M0 32 C0 10.67, 10.67 0, 32 0" stroke="#1e1e1e" stroke-width="4" fill="none"></path></g><g transform="translate(1930.5218459049283 361.8368566138997) rotate(0 100.93333435058594 22.5)"><text x="100.93333435058594" y="31.536" font-family="Virgil, Segoe UI Emoji" font-size="36px" fill="#1e1e1e" text-anchor="middle" style="white-space: pre;" direction="ltr" dominant-baseline="alphabetic">Ballon-Hash</text></g><g stroke-linecap="round"><g transform="translate(1748.4551802555143 378.3368566138997) rotate(0 61 -0.5)"><path d="M0 0 C20.33 -0.17, 101.67 -0.83, 122 -1 M0 0 C20.33 -0.17, 101.67 -0.83, 122 -1" stroke="#1e1e1e" stroke-width="4" fill="none"></path></g><g transform="translate(1748.4551802555143 378.3368566138997) rotate(0 61 -0.5)"><path d="M98.58 7.74 C107.28 4.49, 115.99 1.24, 122 -1 M98.58 7.74 C103.57 5.88, 108.56 4.02, 122 -1" stroke="#1e1e1e" stroke-width="4" fill="none"></path></g><g transform="translate(1748.4551802555143 378.3368566138997) rotate(0 61 -0.5)"><path d="M98.44 -9.36 C107.2 -6.25, 115.95 -3.14, 122 -1 M98.44 -9.36 C103.46 -7.58, 108.48 -5.79, 122 -1" stroke="#1e1e1e" stroke-width="4" fill="none"></path></g></g><mask></mask><g stroke-linecap="round" transform="translate(2315.4551802555143 235.33685661389973) rotate(0 147.5 147.5)"><path d="M295 147.5 C295 151.36, 294.85 155.23, 294.55 159.07 C294.24 162.92, 293.79 166.76, 293.18 170.57 C292.58 174.38, 291.83 178.18, 290.92 181.93 C290.02 185.68, 288.97 189.41, 287.78 193.08 C286.59 196.75, 285.25 200.38, 283.77 203.95 C282.3 207.51, 280.67 211.03, 278.92 214.46 C277.17 217.9, 275.28 221.28, 273.26 224.57 C271.25 227.86, 269.1 231.08, 266.83 234.2 C264.56 237.32, 262.17 240.36, 259.66 243.29 C257.15 246.23, 254.53 249.07, 251.8 251.8 C249.07 254.53, 246.23 257.15, 243.29 259.66 C240.36 262.17, 237.32 264.56, 234.2 266.83 C231.08 269.1, 227.86 271.25, 224.57 273.26 C221.28 275.28, 217.9 277.17, 214.46 278.92 C211.03 280.67, 207.51 282.3, 203.95 283.77 C200.38 285.25, 196.75 286.59, 193.08 287.78 C189.41 288.97, 185.68 290.02, 181.93 290.92 C178.18 291.83, 174.38 292.58, 170.57 293.18 C166.76 293.79, 162.92 294.24, 159.07 294.55 C155.23 294.85, 151.36 295, 147.5 295 C143.64 295, 139.77 294.85, 135.93 294.55 C132.08 294.24, 128.24 293.79, 124.43 293.18 C120.62 292.58, 116.82 291.83, 113.07 290.92 C109.32 290.02, 105.59 288.97, 101.92 287.78 C98.25 286.59, 94.62 285.25, 91.05 283.77 C87.49 282.3, 83.97 280.67, 80.54 278.92 C77.1 277.17, 73.72 275.28, 70.43 273.26 C67.14 271.25, 63.92 269.1, 60.8 266.83 C57.68 264.56, 54.64 262.17, 51.71 259.66 C48.77 257.15, 45.93 254.53, 43.2 251.8 C40.47 249.07, 37.85 246.23, 35.34 243.29 C32.83 240.36, 30.44 237.32, 28.17 234.2 C25.9 231.08, 23.75 227.86, 21.74 224.57 C19.72 221.28, 17.83 217.9, 16.08 214.46 C14.33 211.03, 12.7 207.51, 11.23 203.95 C9.75 200.38, 8.41 196.75, 7.22 193.08 C6.03 189.41, 4.98 185.68, 4.08 181.93 C3.17 178.18, 2.42 174.38, 1.82 170.57 C1.21 166.76, 0.76 162.92, 0.45 159.07 C0.15 155.23, 0 151.36, 0 147.5 C0 143.64, 0.15 139.77, 0.45 135.93 C0.76 132.08, 1.21 128.24, 1.82 124.43 C2.42 120.62, 3.17 116.82, 4.08 113.07 C4.98 109.32, 6.03 105.59, 7.22 101.92 C8.41 98.25, 9.75 94.62, 11.23 91.05 C12.7 87.49, 14.33 83.97, 16.08 80.54 C17.83 77.1, 19.72 73.72, 21.74 70.43 C23.75 67.14, 25.9 63.92, 28.17 60.8 C30.44 57.68, 32.83 54.64, 35.34 51.71 C37.85 48.77, 40.47 45.93, 43.2 43.2 C45.93 40.47, 48.77 37.85, 51.71 35.34 C54.64 32.83, 57.68 30.44, 60.8 28.17 C63.92 25.9, 67.14 23.75, 70.43 21.74 C73.72 19.72, 77.1 17.83, 80.54 16.08 C83.97 14.33, 87.49 12.7, 91.05 11.23 C94.62 9.75, 98.25 8.41, 101.92 7.22 C105.59 6.03, 109.32 4.98, 113.07 4.08 C116.82 3.17, 120.62 2.42, 124.43 1.82 C128.24 1.21, 132.08 0.76, 135.93 0.45 C139.77 0.15, 143.64 0, 147.5 0 C151.36 0, 155.23 0.15, 159.07 0.45 C162.92 0.76, 166.76 1.21, 170.57 1.82 C174.38 2.42, 178.18 3.17, 181.93 4.08 C185.68 4.98, 189.41 6.03, 193.08 7.22 C196.75 8.41, 200.38 9.75, 203.95 11.23 C207.51 12.7, 211.03 14.33, 214.46 16.08 C217.9 17.83, 221.28 19.72, 224.57 21.74 C227.86 23.75, 231.08 25.9, 234.2 28.17 C237.32 30.44, 240.36 32.83, 243.29 35.34 C246.23 37.85, 249.07 40.47, 251.8 43.2 C254.53 45.93, 257.15 48.77, 259.66 51.71 C262.17 54.64, 264.56 57.68, 266.83 60.8 C269.1 63.92, 271.25 67.14, 273.26 70.43 C275.28 73.72, 277.17 77.1, 278.92 80.54 C280.67 83.97, 282.3 87.49, 283.77 91.05 C285.25 94.62, 286.59 98.25, 287.78 101.92 C288.97 105.59, 290.02 109.32, 290.92 113.07 C291.83 116.82, 292.58 120.62, 293.18 124.43 C293.79 128.24, 294.24 132.08, 294.55 135.93 C294.85 139.77, 295 143.64, 295 147.5" stroke="#1e1e1e" stroke-width="4" fill="none"></path></g><g transform="translate(2377.26525980344 341.19281199636043) rotate(0 85.89167022705078 41.8457943925232)"><text x="85.89167022705078" y="29.325532710280385" font-family="Virgil, Segoe UI Emoji" font-size="33.476635514018696px" fill="#1e1e1e" text-anchor="middle" style="white-space: pre;" direction="ltr" dominant-baseline="alphabetic">Generated</text><text x="85.89167022705078" y="71.17132710280376" font-family="Virgil, Segoe UI Emoji" font-size="33.476635514018696px" fill="#1e1e1e" text-anchor="middle" style="white-space: pre;" direction="ltr" dominant-baseline="alphabetic">Secret</text></g><g stroke-linecap="round"><g transform="translate(2204.1214556197156 391.5859961359847) rotate(0 54.3785768112939 -1.8528767954303476)"><path d="M0 0 C18.13 -0.62, 90.63 -3.09, 108.76 -3.71 M0 0 C18.13 -0.62, 90.63 -3.09, 108.76 -3.71" stroke="#1e1e1e" stroke-width="4" fill="none"></path></g><g transform="translate(2204.1214556197156 391.5859961359847) rotate(0 54.3785768112939 -1.8528767954303476)"><path d="M85.57 5.64 C91.39 3.3, 97.2 0.95, 108.76 -3.71 M85.57 5.64 C90.92 3.48, 96.26 1.33, 108.76 -3.71" stroke="#1e1e1e" stroke-width="4" fill="none"></path></g><g transform="translate(2204.1214556197156 391.5859961359847) rotate(0 54.3785768112939 -1.8528767954303476)"><path d="M84.99 -11.45 C90.95 -9.51, 96.91 -7.56, 108.76 -3.71 M84.99 -11.45 C90.47 -9.67, 95.95 -7.88, 108.76 -3.71" stroke="#1e1e1e" stroke-width="4" fill="none"></path></g></g><mask></mask><g stroke-linecap="round" transform="translate(540.4551802555106 237.33685661389973) rotate(0 139 139)"><path d="M278 139 C278 142.83, 277.84 146.67, 277.53 150.48 C277.21 154.29, 276.73 158.1, 276.1 161.88 C275.47 165.65, 274.69 169.41, 273.75 173.12 C272.81 176.83, 271.71 180.51, 270.47 184.13 C269.23 187.75, 267.83 191.33, 266.29 194.84 C264.76 198.34, 263.07 201.79, 261.25 205.16 C259.43 208.52, 257.46 211.82, 255.37 215.03 C253.27 218.23, 251.04 221.36, 248.69 224.38 C246.34 227.39, 243.86 230.33, 241.27 233.14 C238.67 235.96, 235.96 238.67, 233.14 241.27 C230.33 243.86, 227.39 246.34, 224.38 248.69 C221.36 251.04, 218.23 253.27, 215.03 255.37 C211.82 257.46, 208.52 259.43, 205.16 261.25 C201.79 263.07, 198.34 264.76, 194.84 266.29 C191.33 267.83, 187.75 269.23, 184.13 270.47 C180.51 271.71, 176.83 272.81, 173.12 273.75 C169.41 274.69, 165.65 275.47, 161.88 276.1 C158.1 276.73, 154.29 277.21, 150.48 277.53 C146.67 277.84, 142.83 278, 139 278 C135.17 278, 131.33 277.84, 127.52 277.53 C123.71 277.21, 119.9 276.73, 116.12 276.1 C112.35 275.47, 108.59 274.69, 104.88 273.75 C101.17 272.81, 97.49 271.71, 93.87 270.47 C90.25 269.23, 86.67 267.83, 83.16 266.29 C79.66 264.76, 76.21 263.07, 72.84 261.25 C69.48 259.43, 66.18 257.46, 62.97 255.37 C59.77 253.27, 56.64 251.04, 53.62 248.69 C50.61 246.34, 47.67 243.86, 44.86 241.27 C42.04 238.67, 39.33 235.96, 36.73 233.14 C34.14 230.33, 31.66 227.39, 29.31 224.38 C26.96 221.36, 24.73 218.23, 22.63 215.03 C20.54 211.82, 18.57 208.52, 16.75 205.16 C14.93 201.79, 13.24 198.34, 11.71 194.84 C10.17 191.33, 8.77 187.75, 7.53 184.13 C6.29 180.51, 5.19 176.83, 4.25 173.12 C3.31 169.41, 2.53 165.65, 1.9 161.88 C1.27 158.1, 0.79 154.29, 0.47 150.48 C0.16 146.67, 0 142.83, 0 139 C0 135.17, 0.16 131.33, 0.47 127.52 C0.79 123.71, 1.27 119.9, 1.9 116.12 C2.53 112.35, 3.31 108.59, 4.25 104.88 C5.19 101.17, 6.29 97.49, 7.53 93.87 C8.77 90.25, 10.17 86.67, 11.71 83.16 C13.24 79.66, 14.93 76.21, 16.75 72.84 C18.57 69.48, 20.54 66.18, 22.63 62.97 C24.73 59.77, 26.96 56.64, 29.31 53.62 C31.66 50.61, 34.14 47.67, 36.73 44.86 C39.33 42.04, 42.04 39.33, 44.86 36.73 C47.67 34.14, 50.61 31.66, 53.62 29.31 C56.64 26.96, 59.77 24.73, 62.97 22.63 C66.18 20.54, 69.48 18.57, 72.84 16.75 C76.21 14.93, 79.66 13.24, 83.16 11.71 C86.67 10.17, 90.25 8.77, 93.87 7.53 C97.49 6.29, 101.17 5.19, 104.88 4.25 C108.59 3.31, 112.35 2.53, 116.12 1.9 C119.9 1.27, 123.71 0.79, 127.52 0.47 C131.33 0.16, 135.17 0, 139 0 C142.83 0, 146.67 0.16, 150.48 0.47 C154.29 0.79, 158.1 1.27, 161.88 1.9 C165.65 2.53, 169.41 3.31, 173.12 4.25 C176.83 5.19, 180.51 6.29, 184.13 7.53 C187.75 8.77, 191.33 10.17, 194.84 11.71 C198.34 13.24, 201.79 14.93, 205.16 16.75 C208.52 18.57, 211.82 20.54, 215.03 22.63 C218.23 24.73, 221.36 26.96, 224.38 29.31 C227.39 31.66, 230.33 34.14, 233.14 36.73 C235.96 39.33, 238.67 42.04, 241.27 44.86 C243.86 47.67, 246.34 50.61, 248.69 53.62 C251.04 56.64, 253.27 59.77, 255.37 62.97 C257.46 66.18, 259.43 69.48, 261.25 72.84 C263.07 76.21, 264.76 79.66, 266.29 83.16 C267.83 86.67, 269.23 90.25, 270.47 93.87 C271.71 97.49, 272.81 101.17, 273.75 104.88 C274.69 108.59, 275.47 112.35, 276.1 116.12 C276.73 119.9, 277.21 123.71, 277.53 127.52 C277.84 131.33, 278 135.17, 278 139" stroke="#1e1e1e" stroke-width="4" fill="none"></path></g><g transform="translate(611.5923407223381 309.0490140289694) rotate(0 68.07499694824219 67.5)"><text x="68.07499694824219" y="31.536" font-family="Virgil, Segoe UI Emoji" font-size="36px" fill="#1e1e1e" text-anchor="middle" style="white-space: pre;" direction="ltr" dominant-baseline="alphabetic">12 Word</text><text x="68.07499694824219" y="76.536" font-family="Virgil, Segoe UI Emoji" font-size="36px" fill="#1e1e1e" text-anchor="middle" style="white-space: pre;" direction="ltr" dominant-baseline="alphabetic">Pass </text><text x="68.07499694824219" y="121.536" font-family="Virgil, Segoe UI Emoji" font-size="36px" fill="#1e1e1e" text-anchor="middle" style="white-space: pre;" direction="ltr" dominant-baseline="alphabetic">Phrase</text></g><g stroke-linecap="round" transform="translate(34.4266666086005 148.65112223021788) rotate(0 166 218.5)"><path d="M32 0 C102.1 0, 172.2 0, 300 0 M32 0 C124.06 0, 216.11 0, 300 0 M300 0 C321.33 0, 332 10.67, 332 32 M300 0 C321.33 0, 332 10.67, 332 32 M332 32 C332 117.41, 332 202.82, 332 405 M332 32 C332 131.54, 332 231.08, 332 405 M332 405 C332 426.33, 321.33 437, 300 437 M332 405 C332 426.33, 321.33 437, 300 437 M300 437 C245.43 437, 190.87 437, 32 437 M300 437 C244.58 437, 189.16 437, 32 437 M32 437 C10.67 437, 0 426.33, 0 405 M32 437 C10.67 437, 0 426.33, 0 405 M0 405 C0 316.35, 0 227.71, 0 32 M0 405 C0 277.45, 0 149.91, 0 32 M0 32 C0 10.67, 10.67 0, 32 0 M0 32 C0 10.67, 10.67 0, 32 0" stroke="#1e1e1e" stroke-width="4" fill="none"></path></g><g stroke-linecap="round"><g transform="translate(47.4266666086005 220.65112223021788) rotate(0 61.1006493506502 0)"><path d="M0 0 C20.37 0, 101.83 0, 122.2 0 M0 0 C20.37 0, 101.83 0, 122.2 0" stroke="#1e1e1e" stroke-width="4" fill="none"></path></g></g><mask></mask><g stroke-linecap="round"><g transform="translate(48.2253679073001 240.65112223021788) rotate(0 61.1006493506502 0)"><path d="M0 0 C20.37 0, 101.83 0, 122.2 0 M0 0 C20.37 0, 101.83 0, 122.2 0" stroke="#1e1e1e" stroke-width="4" fill="none"></path></g></g><mask></mask><g stroke-linecap="round"><g transform="translate(225.9266666086005 221.65112223021788) rotate(0 61.1006493506502 0)"><path d="M0 0 C20.37 0, 101.83 0, 122.2 0 M0 0 C20.37 0, 101.83 0, 122.2 0" stroke="#1e1e1e" stroke-width="4" fill="none"></path></g></g><mask></mask><g stroke-linecap="round"><g transform="translate(226.7253679073001 241.65112223021788) rotate(0 61.1006493506502 0)"><path d="M0 0 C20.37 0, 101.83 0, 122.2 0 M0 0 C20.37 0, 101.83 0, 122.2 0" stroke="#1e1e1e" stroke-width="4" fill="none"></path></g></g><mask></mask><g stroke-linecap="round"><g transform="translate(47.6766666086005 253.15112223021788) rotate(0 61.1006493506502 0)"><path d="M0 0 C20.37 0, 101.83 0, 122.2 0 M0 0 C20.37 0, 101.83 0, 122.2 0" stroke="#1e1e1e" stroke-width="4" fill="none"></path></g></g><mask></mask><g stroke-linecap="round"><g transform="translate(48.4753679073001 273.1511222302179) rotate(0 61.1006493506502 0)"><path d="M0 0 C20.37 0, 101.83 0, 122.2 0 M0 0 C20.37 0, 101.83 0, 122.2 0" stroke="#1e1e1e" stroke-width="4" fill="none"></path></g></g><mask></mask><g stroke-linecap="round"><g transform="translate(226.1766666086005 254.15112223021788) rotate(0 61.1006493506502 0)"><path d="M0 0 C20.37 0, 101.83 0, 122.2 0 M0 0 C20.37 0, 101.83 0, 122.2 0" stroke="#1e1e1e" stroke-width="4" fill="none"></path></g></g><mask></mask><g stroke-linecap="round"><g transform="translate(226.9753679073001 274.1511222302179) rotate(0 61.1006493506502 0)"><path d="M0 0 C20.37 0, 101.83 0, 122.2 0 M0 0 C20.37 0, 101.83 0, 122.2 0" stroke="#1e1e1e" stroke-width="4" fill="none"></path></g></g><mask></mask><g stroke-linecap="round"><g transform="translate(49.5516666086005 284.9011222302179) rotate(0 61.1006493506502 0)"><path d="M0 0 C20.37 0, 101.83 0, 122.2 0 M0 0 C20.37 0, 101.83 0, 122.2 0" stroke="#1e1e1e" stroke-width="4" fill="none"></path></g></g><mask></mask><g stroke-linecap="round"><g transform="translate(50.3503679073001 304.9011222302179) rotate(0 61.1006493506502 0)"><path d="M0 0 C20.37 0, 101.83 0, 122.2 0 M0 0 C20.37 0, 101.83 0, 122.2 0" stroke="#1e1e1e" stroke-width="4" fill="none"></path></g></g><mask></mask><g stroke-linecap="round"><g transform="translate(228.0516666086005 285.9011222302179) rotate(0 61.1006493506502 0)"><path d="M0 0 C20.37 0, 101.83 0, 122.2 0 M0 0 C20.37 0, 101.83 0, 122.2 0" stroke="#1e1e1e" stroke-width="4" fill="none"></path></g></g><mask></mask><g stroke-linecap="round"><g transform="translate(228.8503679073001 305.9011222302179) rotate(0 61.1006493506502 0)"><path d="M0 0 C20.37 0, 101.83 0, 122.2 0 M0 0 C20.37 0, 101.83 0, 122.2 0" stroke="#1e1e1e" stroke-width="4" fill="none"></path></g></g><mask></mask><g stroke-linecap="round"><g transform="translate(49.8016666086005 317.4011222302179) rotate(0 61.1006493506502 0)"><path d="M0 0 C20.37 0, 101.83 0, 122.2 0 M0 0 C20.37 0, 101.83 0, 122.2 0" stroke="#1e1e1e" stroke-width="4" fill="none"></path></g></g><mask></mask><g stroke-linecap="round"><g transform="translate(50.6003679073001 337.4011222302179) rotate(0 61.1006493506502 0)"><path d="M0 0 C20.37 0, 101.83 0, 122.2 0 M0 0 C20.37 0, 101.83 0, 122.2 0" stroke="#1e1e1e" stroke-width="4" fill="none"></path></g></g><mask></mask><g stroke-linecap="round"><g transform="translate(228.3016666086005 318.4011222302179) rotate(0 61.1006493506502 0)"><path d="M0 0 C20.37 0, 101.83 0, 122.2 0 M0 0 C20.37 0, 101.83 0, 122.2 0" stroke="#1e1e1e" stroke-width="4" fill="none"></path></g></g><mask></mask><g stroke-linecap="round"><g transform="translate(229.1003679073001 338.4011222302179) rotate(0 61.1006493506502 0)"><path d="M0 0 C20.37 0, 101.83 0, 122.2 0 M0 0 C20.37 0, 101.83 0, 122.2 0" stroke="#1e1e1e" stroke-width="4" fill="none"></path></g></g><mask></mask><g stroke-linecap="round"><g transform="translate(50.4891666086005 346.7761222302179) rotate(0 61.1006493506502 0)"><path d="M0 0 C20.37 0, 101.83 0, 122.2 0 M0 0 C20.37 0, 101.83 0, 122.2 0" stroke="#1e1e1e" stroke-width="4" fill="none"></path></g></g><mask></mask><g stroke-linecap="round"><g transform="translate(51.2878679073001 366.7761222302179) rotate(0 61.1006493506502 0)"><path d="M0 0 C20.37 0, 101.83 0, 122.2 0 M0 0 C20.37 0, 101.83 0, 122.2 0" stroke="#1e1e1e" stroke-width="4" fill="none"></path></g></g><mask></mask><g stroke-linecap="round"><g transform="translate(228.9891666086005 347.7761222302179) rotate(0 61.1006493506502 0)"><path d="M0 0 C20.37 0, 101.83 0, 122.2 0 M0 0 C20.37 0, 101.83 0, 122.2 0" stroke="#1e1e1e" stroke-width="4" fill="none"></path></g></g><mask></mask><g stroke-linecap="round"><g transform="translate(229.7878679073001 367.7761222302179) rotate(0 61.1006493506502 0)"><path d="M0 0 C20.37 0, 101.83 0, 122.2 0 M0 0 C20.37 0, 101.83 0, 122.2 0" stroke="#1e1e1e" stroke-width="4" fill="none"></path></g></g><mask></mask><g stroke-linecap="round"><g transform="translate(50.7391666086005 379.2761222302179) rotate(0 61.1006493506502 0)"><path d="M0 0 C20.37 0, 101.83 0, 122.2 0 M0 0 C20.37 0, 101.83 0, 122.2 0" stroke="#1e1e1e" stroke-width="4" fill="none"></path></g></g><mask></mask><g stroke-linecap="round"><g transform="translate(51.5378679073001 399.2761222302179) rotate(0 61.1006493506502 0)"><path d="M0 0 C20.37 0, 101.83 0, 122.2 0 M0 0 C20.37 0, 101.83 0, 122.2 0" stroke="#1e1e1e" stroke-width="4" fill="none"></path></g></g><mask></mask><g stroke-linecap="round"><g transform="translate(229.2391666086005 380.2761222302179) rotate(0 61.1006493506502 0)"><path d="M0 0 C20.37 0, 101.83 0, 122.2 0 M0 0 C20.37 0, 101.83 0, 122.2 0" stroke="#1e1e1e" stroke-width="4" fill="none"></path></g></g><mask></mask><g stroke-linecap="round"><g transform="translate(230.0378679073001 400.2761222302179) rotate(0 61.1006493506502 0)"><path d="M0 0 C20.37 0, 101.83 0, 122.2 0 M0 0 C20.37 0, 101.83 0, 122.2 0" stroke="#1e1e1e" stroke-width="4" fill="none"></path></g></g><mask></mask><g stroke-linecap="round"><g transform="translate(52.6141666086005 411.0261222302179) rotate(0 61.1006493506502 0)"><path d="M0 0 C20.37 0, 101.83 0, 122.2 0 M0 0 C20.37 0, 101.83 0, 122.2 0" stroke="#1e1e1e" stroke-width="4" fill="none"></path></g></g><mask></mask><g stroke-linecap="round"><g transform="translate(53.4128679073001 431.0261222302179) rotate(0 61.1006493506502 0)"><path d="M0 0 C20.37 0, 101.83 0, 122.2 0 M0 0 C20.37 0, 101.83 0, 122.2 0" stroke="#1e1e1e" stroke-width="4" fill="none"></path></g></g><mask></mask><g stroke-linecap="round"><g transform="translate(231.1141666086005 412.0261222302179) rotate(0 61.1006493506502 0)"><path d="M0 0 C20.37 0, 101.83 0, 122.2 0 M0 0 C20.37 0, 101.83 0, 122.2 0" stroke="#1e1e1e" stroke-width="4" fill="none"></path></g></g><mask></mask><g stroke-linecap="round"><g transform="translate(231.9128679073001 432.0261222302179) rotate(0 61.1006493506502 0)"><path d="M0 0 C20.37 0, 101.83 0, 122.2 0 M0 0 C20.37 0, 101.83 0, 122.2 0" stroke="#1e1e1e" stroke-width="4" fill="none"></path></g></g><mask></mask><g stroke-linecap="round"><g transform="translate(52.8641666086005 443.5261222302179) rotate(0 61.1006493506502 0)"><path d="M0 0 C20.37 0, 101.83 0, 122.2 0 M0 0 C20.37 0, 101.83 0, 122.2 0" stroke="#1e1e1e" stroke-width="4" fill="none"></path></g></g><mask></mask><g stroke-linecap="round"><g transform="translate(53.6628679073001 463.5261222302179) rotate(0 61.1006493506502 0)"><path d="M0 0 C20.37 0, 101.83 0, 122.2 0 M0 0 C20.37 0, 101.83 0, 122.2 0" stroke="#1e1e1e" stroke-width="4" fill="none"></path></g></g><mask></mask><g stroke-linecap="round"><g transform="translate(231.3641666086005 444.5261222302179) rotate(0 61.1006493506502 0)"><path d="M0 0 C20.37 0, 101.83 0, 122.2 0 M0 0 C20.37 0, 101.83 0, 122.2 0" stroke="#1e1e1e" stroke-width="4" fill="none"></path></g></g><mask></mask><g stroke-linecap="round"><g transform="translate(232.1628679073001 464.5261222302179) rotate(0 61.1006493506502 0)"><path d="M0 0 C20.37 0, 101.83 0, 122.2 0 M0 0 C20.37 0, 101.83 0, 122.2 0" stroke="#1e1e1e" stroke-width="4" fill="none"></path></g></g><mask></mask><g stroke-linecap="round"><g transform="translate(52.4891666086005 473.7761222302179) rotate(0 61.1006493506502 0)"><path d="M0 0 C20.37 0, 101.83 0, 122.2 0 M0 0 C20.37 0, 101.83 0, 122.2 0" stroke="#1e1e1e" stroke-width="4" fill="none"></path></g></g><mask></mask><g stroke-linecap="round"><g transform="translate(53.2878679073001 493.7761222302179) rotate(0 61.1006493506502 0)"><path d="M0 0 C20.37 0, 101.83 0, 122.2 0 M0 0 C20.37 0, 101.83 0, 122.2 0" stroke="#1e1e1e" stroke-width="4" fill="none"></path></g></g><mask></mask><g stroke-linecap="round"><g transform="translate(230.9891666086005 474.7761222302179) rotate(0 61.1006493506502 0)"><path d="M0 0 C20.37 0, 101.83 0, 122.2 0 M0 0 C20.37 0, 101.83 0, 122.2 0" stroke="#1e1e1e" stroke-width="4" fill="none"></path></g></g><mask></mask><g stroke-linecap="round"><g transform="translate(231.7878679073001 494.7761222302179) rotate(0 61.1006493506502 0)"><path d="M0 0 C20.37 0, 101.83 0, 122.2 0 M0 0 C20.37 0, 101.83 0, 122.2 0" stroke="#1e1e1e" stroke-width="4" fill="none"></path></g></g><mask></mask><g stroke-linecap="round"><g transform="translate(52.7391666086005 506.2761222302179) rotate(0 61.1006493506502 0)"><path d="M0 0 C20.37 0, 101.83 0, 122.2 0 M0 0 C20.37 0, 101.83 0, 122.2 0" stroke="#1e1e1e" stroke-width="4" fill="none"></path></g></g><mask></mask><g stroke-linecap="round"><g transform="translate(53.5378679073001 526.2761222302179) rotate(0 61.1006493506502 0)"><path d="M0 0 C20.37 0, 101.83 0, 122.2 0 M0 0 C20.37 0, 101.83 0, 122.2 0" stroke="#1e1e1e" stroke-width="4" fill="none"></path></g></g><mask></mask><g stroke-linecap="round"><g transform="translate(231.2391666086005 507.2761222302179) rotate(0 61.1006493506502 0)"><path d="M0 0 C20.37 0, 101.83 0, 122.2 0 M0 0 C20.37 0, 101.83 0, 122.2 0" stroke="#1e1e1e" stroke-width="4" fill="none"></path></g></g><mask></mask><g stroke-linecap="round"><g transform="translate(232.0378679073001 527.2761222302179) rotate(0 61.1006493506502 0)"><path d="M0 0 C20.37 0, 101.83 0, 122.2 0 M0 0 C20.37 0, 101.83 0, 122.2 0" stroke="#1e1e1e" stroke-width="4" fill="none"></path></g></g><mask></mask><g stroke-linecap="round"><g transform="translate(54.6141666086005 538.0261222302179) rotate(0 61.1006493506502 0)"><path d="M0 0 C20.37 0, 101.83 0, 122.2 0 M0 0 C20.37 0, 101.83 0, 122.2 0" stroke="#1e1e1e" stroke-width="4" fill="none"></path></g></g><mask></mask><g stroke-linecap="round"><g transform="translate(55.4128679073001 558.0261222302179) rotate(0 61.1006493506502 0)"><path d="M0 0 C20.37 0, 101.83 0, 122.2 0 M0 0 C20.37 0, 101.83 0, 122.2 0" stroke="#1e1e1e" stroke-width="4" fill="none"></path></g></g><mask></mask><g stroke-linecap="round"><g transform="translate(233.1141666086005 539.0261222302179) rotate(0 61.1006493506502 0)"><path d="M0 0 C20.37 0, 101.83 0, 122.2 0 M0 0 C20.37 0, 101.83 0, 122.2 0" stroke="#1e1e1e" stroke-width="4" fill="none"></path></g></g><mask></mask><g stroke-linecap="round"><g transform="translate(233.9128679073001 559.0261222302179) rotate(0 61.1006493506502 0)"><path d="M0 0 C20.37 0, 101.83 0, 122.2 0 M0 0 C20.37 0, 101.83 0, 122.2 0" stroke="#1e1e1e" stroke-width="4" fill="none"></path></g></g><mask></mask><g transform="translate(55.322370077268715 169.30000879286217) rotate(0 147.88333129882812 17.5)"><text x="0" y="24.528" font-family="Virgil, Segoe UI Emoji" font-size="28px" fill="#1e1e1e" text-anchor="start" style="white-space: pre;" direction="ltr" dominant-baseline="alphabetic">Word List 100k words</text></g><g stroke-linecap="round"><g transform="translate(367.42666660860414 365.3342982061158) rotate(0 86.09747362419876 2.089032573239365)"><path d="M0 0 C28.7 0.7, 143.5 3.48, 172.19 4.18 M0 0 C28.7 0.7, 143.5 3.48, 172.19 4.18" stroke="#1e1e1e" stroke-width="4" fill="none"></path></g><g transform="translate(367.42666660860414 365.3342982061158) rotate(0 86.09747362419876 2.089032573239365)"><path d="M148.5 12.16 C153.62 10.43, 158.74 8.71, 172.19 4.18 M148.5 12.16 C153.73 10.39, 158.97 8.63, 172.19 4.18" stroke="#1e1e1e" stroke-width="4" fill="none"></path></g><g transform="translate(367.42666660860414 365.3342982061158) rotate(0 86.09747362419876 2.089032573239365)"><path d="M148.92 -4.94 C153.95 -2.97, 158.98 -1, 172.19 4.18 M148.92 -4.94 C154.06 -2.93, 159.2 -0.91, 172.19 4.18" stroke="#1e1e1e" stroke-width="4" fill="none"></path></g></g><mask></mask><g stroke-linecap="round" transform="translate(10.664841590358265 10) rotate(0 1316.2283070146768 306.27136325303263)"><path d="M32 0 C714.3 0, 1396.6 0, 2600.46 0 M32 0 C726.88 0, 1421.77 0, 2600.46 0 M2600.46 0 C2621.79 0, 2632.46 10.67, 2632.46 32 M2600.46 0 C2621.79 0, 2632.46 10.67, 2632.46 32 M2632.46 32 C2632.46 224.73, 2632.46 417.47, 2632.46 580.54 M2632.46 32 C2632.46 210.17, 2632.46 388.34, 2632.46 580.54 M2632.46 580.54 C2632.46 601.88, 2621.79 612.54, 2600.46 612.54 M2632.46 580.54 C2632.46 601.88, 2621.79 612.54, 2600.46 612.54 M2600.46 612.54 C2076.68 612.54, 1552.9 612.54, 32 612.54 M2600.46 612.54 C1913.36 612.54, 1226.27 612.54, 32 612.54 M32 612.54 C10.67 612.54, 0 601.88, 0 580.54 M32 612.54 C10.67 612.54, 0 601.88, 0 580.54 M0 580.54 C0 465.27, 0 350, 0 32 M0 580.54 C0 394.22, 0 207.91, 0 32 M0 32 C0 10.67, 10.67 0, 32 0 M0 32 C0 10.67, 10.67 0, 32 0" stroke="#1e1e1e" stroke-width="4" fill="none"></path></g><g transform="translate(1117.3289269530287 25.242849606119307) rotate(0 245.96784755161934 35.35714285714312)"><text x="245.96784755162014" y="49.556571428571786" font-family="Virgil, Segoe UI Emoji" font-size="56.571428571428974px" fill="#1e1e1e" text-anchor="middle" style="white-space: pre;" direction="ltr" dominant-baseline="alphabetic">Secret Generator</text></g><g stroke-linecap="round"><g transform="translate(10 112.3531309070604) rotate(0 1314.9999999999964 0)"><path d="M0 0 C438.33 0, 2191.67 0, 2630 0 M0 0 C438.33 0, 2191.67 0, 2630 0" stroke="#1e1e1e" stroke-width="4" fill="none"></path></g></g><mask></mask></svg>