<svg version="1.1" xmlns="http://www.w3.org/2000/svg" viewBox="0 0 2782.5 2764.999999999998" width="2782.5" height="2764.999999999998" filter="invert(93%) hue-rotate(180deg)">
  <!-- svg-source:excalidraw -->
  
  <defs>
    <style class="style-fonts">
      @font-face {
        font-family: "Virgil";
        src: url("https://excalidraw.com/Virgil.woff2");
      }
      @font-face {
        font-family: "Cascadia";
        src: url("https://excalidraw.com/Cascadia.woff2");
      }
      @font-face {
        font-family: "Assistant";
        src: url("https://excalidraw.com/Assistant-Regular.woff2");
      }
    </style>
    
  </defs>
  <rect x="0" y="0" width="2782.5" height="2764.999999999998" fill="#ffffff"></rect><g stroke-linecap="round" transform="translate(53.21414203648965 1113.5787625409685) rotate(0 163 93)"><path d="M32 0 C95.9 0, 159.79 0, 294 0 M32 0 C95.06 0, 158.11 0, 294 0 M294 0 C315.33 0, 326 10.67, 326 32 M294 0 C315.33 0, 326 10.67, 326 32 M326 32 C326 65.8, 326 99.61, 326 154 M326 32 C326 71.34, 326 110.69, 326 154 M326 154 C326 175.33, 315.33 186, 294 186 M326 154 C326 175.33, 315.33 186, 294 186 M294 186 C229.85 186, 165.71 186, 32 186 M294 186 C201 186, 108 186, 32 186 M32 186 C10.67 186, 0 175.33, 0 154 M32 186 C10.67 186, 0 175.33, 0 154 M0 154 C0 116.23, 0 78.45, 0 32 M0 154 C0 115.27, 0 76.54, 0 32 M0 32 C0 10.67, 10.67 0, 32 0 M0 32 C0 10.67, 10.67 0, 32 0" stroke="#1e1e1e" stroke-width="4" fill="none"></path></g><g transform="translate(64.68914814000527 1184.0787625409685) rotate(0 151.52499389648438 22.5)"><text x="151.52499389648438" y="31.536" font-family="Virgil, Segoe UI Emoji" font-size="36px" fill="#1e1e1e" text-anchor="middle" style="white-space: pre;" direction="ltr" dominant-baseline="alphabetic">Storage Manager</text></g><g stroke-linecap="round" transform="translate(1104.763993999506 1771.8151704667453) rotate(0 81.449328161847 30.535655613329254)"><path d="M15.27 0 C47.62 0, 79.97 0, 147.63 0 M15.27 0 C62.26 0, 109.26 0, 147.63 0 M147.63 0 C157.81 0, 162.9 5.09, 162.9 15.27 M147.63 0 C157.81 0, 162.9 5.09, 162.9 15.27 M162.9 15.27 C162.9 21.75, 162.9 28.22, 162.9 45.8 M162.9 15.27 C162.9 24.91, 162.9 34.56, 162.9 45.8 M162.9 45.8 C162.9 55.98, 157.81 61.07, 147.63 61.07 M162.9 45.8 C162.9 55.98, 157.81 61.07, 147.63 61.07 M147.63 61.07 C102.98 61.07, 58.34 61.07, 15.27 61.07 M147.63 61.07 C109.8 61.07, 71.96 61.07, 15.27 61.07 M15.27 61.07 C5.09 61.07, 0 55.98, 0 45.8 M15.27 61.07 C5.09 61.07, 0 55.98, 0 45.8 M0 45.8 C0 35.29, 0 24.77, 0 15.27 M0 45.8 C0 36.18, 0 26.57, 0 15.27 M0 15.27 C0 5.09, 5.09 0, 15.27 0 M0 15.27 C0 5.09, 5.09 0, 15.27 0" stroke="#1e1e1e" stroke-width="4" fill="none"></path></g><g transform="translate(1122.5133213984154 1779.8508260800754) rotate(0 63.70000076293945 22.5)"><text x="63.70000076293945" y="31.536" font-family="Virgil, Segoe UI Emoji" font-size="36px" fill="#1e1e1e" text-anchor="middle" style="white-space: pre;" direction="ltr" dominant-baseline="alphabetic">Shard 1</text></g><g stroke-linecap="round" transform="translate(1104.7639942268652 1985.5986420420977) rotate(0 81.449328161847 30.535655613329254)"><path d="M15.27 0 C44.51 0, 73.76 0, 147.63 0 M15.27 0 C43.91 0, 72.55 0, 147.63 0 M147.63 0 C157.81 0, 162.9 5.09, 162.9 15.27 M147.63 0 C157.81 0, 162.9 5.09, 162.9 15.27 M162.9 15.27 C162.9 24.7, 162.9 34.13, 162.9 45.8 M162.9 15.27 C162.9 26.42, 162.9 37.57, 162.9 45.8 M162.9 45.8 C162.9 55.98, 157.81 61.07, 147.63 61.07 M162.9 45.8 C162.9 55.98, 157.81 61.07, 147.63 61.07 M147.63 61.07 C96.55 61.07, 45.48 61.07, 15.27 61.07 M147.63 61.07 C119.85 61.07, 92.08 61.07, 15.27 61.07 M15.27 61.07 C5.09 61.07, 0 55.98, 0 45.8 M15.27 61.07 C5.09 61.07, 0 55.98, 0 45.8 M0 45.8 C0 38.36, 0 30.92, 0 15.27 M0 45.8 C0 39.55, 0 33.29, 0 15.27 M0 15.27 C0 5.09, 5.09 0, 15.27 0 M0 15.27 C0 5.09, 5.09 0, 15.27 0" stroke="#1e1e1e" stroke-width="4" fill="none"></path></g><g transform="translate(1114.5716521616632 1993.634297655426) rotate(0 71.64167022705078 22.5)"><text x="71.64167022705078" y="31.536" font-family="Virgil, Segoe UI Emoji" font-size="36px" fill="#1e1e1e" text-anchor="middle" style="white-space: pre;" direction="ltr" dominant-baseline="alphabetic">Shard 2</text></g><g stroke-linecap="round" transform="translate(1104.7639937753775 2219.4991547597256) rotate(0 81.449328161847 30.535655613329254)"><path d="M15.27 0 C56.65 0, 98.02 0, 147.63 0 M15.27 0 C46.58 0, 77.89 0, 147.63 0 M147.63 0 C157.81 0, 162.9 5.09, 162.9 15.27 M147.63 0 C157.81 0, 162.9 5.09, 162.9 15.27 M162.9 15.27 C162.9 24.89, 162.9 34.51, 162.9 45.8 M162.9 15.27 C162.9 26.28, 162.9 37.29, 162.9 45.8 M162.9 45.8 C162.9 55.98, 157.81 61.07, 147.63 61.07 M162.9 45.8 C162.9 55.98, 157.81 61.07, 147.63 61.07 M147.63 61.07 C118.01 61.07, 88.38 61.07, 15.27 61.07 M147.63 61.07 C106.25 61.07, 64.86 61.07, 15.27 61.07 M15.27 61.07 C5.09 61.07, 0 55.98, 0 45.8 M15.27 61.07 C5.09 61.07, 0 55.98, 0 45.8 M0 45.8 C0 34.03, 0 22.27, 0 15.27 M0 45.8 C0 37.72, 0 29.64, 0 15.27 M0 15.27 C0 5.09, 5.09 0, 15.27 0 M0 15.27 C0 5.09, 5.09 0, 15.27 0" stroke="#1e1e1e" stroke-width="4" fill="none"></path></g><g transform="translate(1115.1299860607614 2227.5348103730557) rotate(0 71.08333587646484 22.5)"><text x="71.08333587646484" y="31.536" font-family="Virgil, Segoe UI Emoji" font-size="36px" fill="#1e1e1e" text-anchor="middle" style="white-space: pre;" direction="ltr" dominant-baseline="alphabetic">Shard 3</text></g><g stroke-linecap="round" transform="translate(1104.7639940335284 2430.383828256641) rotate(0 81.449328161847 30.535655613329254)"><path d="M15.27 0 C67.67 0, 120.08 0, 147.63 0 M15.27 0 C62.79 0, 110.3 0, 147.63 0 M147.63 0 C157.81 0, 162.9 5.09, 162.9 15.27 M147.63 0 C157.81 0, 162.9 5.09, 162.9 15.27 M162.9 15.27 C162.9 24.68, 162.9 34.09, 162.9 45.8 M162.9 15.27 C162.9 22.35, 162.9 29.43, 162.9 45.8 M162.9 45.8 C162.9 55.98, 157.81 61.07, 147.63 61.07 M162.9 45.8 C162.9 55.98, 157.81 61.07, 147.63 61.07 M147.63 61.07 C113.99 61.07, 80.35 61.07, 15.27 61.07 M147.63 61.07 C96.52 61.07, 45.41 61.07, 15.27 61.07 M15.27 61.07 C5.09 61.07, 0 55.98, 0 45.8 M15.27 61.07 C5.09 61.07, 0 55.98, 0 45.8 M0 45.8 C0 38.99, 0 32.18, 0 15.27 M0 45.8 C0 39, 0 32.2, 0 15.27 M0 15.27 C0 5.09, 5.09 0, 15.27 0 M0 15.27 C0 5.09, 5.09 0, 15.27 0" stroke="#1e1e1e" stroke-width="4" fill="none"></path></g><g transform="translate(1115.8716550200843 2438.4194838699714) rotate(0 70.34166717529297 22.5)"><text x="70.34166717529297" y="31.536" font-family="Virgil, Segoe UI Emoji" font-size="36px" fill="#1e1e1e" text-anchor="middle" style="white-space: pre;" direction="ltr" dominant-baseline="alphabetic">Shard 4</text></g><g stroke-linecap="round" transform="translate(1104.7639940009321 2633.9615474274833) rotate(0 81.449328161847 30.535655613329254)"><path d="M15.27 0 C51.94 0, 88.62 0, 147.63 0 M15.27 0 C57.95 0, 100.64 0, 147.63 0 M147.63 0 C157.81 0, 162.9 5.09, 162.9 15.27 M147.63 0 C157.81 0, 162.9 5.09, 162.9 15.27 M162.9 15.27 C162.9 22.74, 162.9 30.22, 162.9 45.8 M162.9 15.27 C162.9 26.11, 162.9 36.95, 162.9 45.8 M162.9 45.8 C162.9 55.98, 157.81 61.07, 147.63 61.07 M162.9 45.8 C162.9 55.98, 157.81 61.07, 147.63 61.07 M147.63 61.07 C106.65 61.07, 65.66 61.07, 15.27 61.07 M147.63 61.07 C105.61 61.07, 63.59 61.07, 15.27 61.07 M15.27 61.07 C5.09 61.07, 0 55.98, 0 45.8 M15.27 61.07 C5.09 61.07, 0 55.98, 0 45.8 M0 45.8 C0 33.88, 0 21.96, 0 15.27 M0 45.8 C0 35.02, 0 24.23, 0 15.27 M0 15.27 C0 5.09, 5.09 0, 15.27 0 M0 15.27 C0 5.09, 5.09 0, 15.27 0" stroke="#1e1e1e" stroke-width="4" fill="none"></path></g><g transform="translate(1116.2633252145388 2641.9972030408117) rotate(0 69.94999694824219 22.5)"><text x="69.94999694824219" y="31.536" font-family="Virgil, Segoe UI Emoji" font-size="36px" fill="#1e1e1e" text-anchor="middle" style="white-space: pre;" direction="ltr" dominant-baseline="alphabetic">Shard 5</text></g><g stroke-linecap="round" transform="translate(1423.2339682991878 1761.0262011314444) rotate(0 163 40.56417751128356)"><path d="M20.28 0 C110.23 0, 200.18 0, 305.72 0 M20.28 0 C123.19 0, 226.1 0, 305.72 0 M305.72 0 C319.24 0, 326 6.76, 326 20.28 M305.72 0 C319.24 0, 326 6.76, 326 20.28 M326 20.28 C326 29.36, 326 38.44, 326 60.85 M326 20.28 C326 32.97, 326 45.65, 326 60.85 M326 60.85 C326 74.37, 319.24 81.13, 305.72 81.13 M326 60.85 C326 74.37, 319.24 81.13, 305.72 81.13 M305.72 81.13 C195.71 81.13, 85.7 81.13, 20.28 81.13 M305.72 81.13 C230.19 81.13, 154.66 81.13, 20.28 81.13 M20.28 81.13 C6.76 81.13, 0 74.37, 0 60.85 M20.28 81.13 C6.76 81.13, 0 74.37, 0 60.85 M0 60.85 C0 47.15, 0 33.46, 0 20.28 M0 60.85 C0 45.94, 0 31.04, 0 20.28 M0 20.28 C0 6.76, 6.76 0, 20.28 0 M0 20.28 C0 6.76, 6.76 0, 20.28 0" stroke="#1e1e1e" stroke-width="4" fill="none"></path></g><g transform="translate(1515.7256370003597 1779.090378642728) rotate(0 70.50833129882812 22.5)"><text x="70.50833129882812" y="31.536" font-family="Virgil, Segoe UI Emoji" font-size="36px" fill="#1e1e1e" text-anchor="middle" style="white-space: pre;" direction="ltr" dominant-baseline="alphabetic">Client 2</text></g><g stroke-linecap="round" transform="translate(1423.2339685385523 1975.5701200870153) rotate(0 163 40.56417751128356)"><path d="M20.28 0 C108.23 0, 196.18 0, 305.72 0 M20.28 0 C86.49 0, 152.7 0, 305.72 0 M305.72 0 C319.24 0, 326 6.76, 326 20.28 M305.72 0 C319.24 0, 326 6.76, 326 20.28 M326 20.28 C326 30.59, 326 40.9, 326 60.85 M326 20.28 C326 35.95, 326 51.61, 326 60.85 M326 60.85 C326 74.37, 319.24 81.13, 305.72 81.13 M326 60.85 C326 74.37, 319.24 81.13, 305.72 81.13 M305.72 81.13 C242.03 81.13, 178.34 81.13, 20.28 81.13 M305.72 81.13 C242.14 81.13, 178.56 81.13, 20.28 81.13 M20.28 81.13 C6.76 81.13, 0 74.37, 0 60.85 M20.28 81.13 C6.76 81.13, 0 74.37, 0 60.85 M0 60.85 C0 49.64, 0 38.42, 0 20.28 M0 60.85 C0 47.01, 0 33.18, 0 20.28 M0 20.28 C0 6.76, 6.76 0, 20.28 0 M0 20.28 C0 6.76, 6.76 0, 20.28 0" stroke="#1e1e1e" stroke-width="4" fill="none"></path></g><g transform="translate(1512.7089670126734 1993.634297598297) rotate(0 73.5250015258789 22.5)"><text x="73.5250015258789" y="31.536" font-family="Virgil, Segoe UI Emoji" font-size="36px" fill="#1e1e1e" text-anchor="middle" style="white-space: pre;" direction="ltr" dominant-baseline="alphabetic">Client 19</text></g><g stroke-linecap="round" transform="translate(1424.278505418857 2209.4706334007114) rotate(0 163 40.56417751128356)"><path d="M20.28 0 C90.17 0, 160.05 0, 305.72 0 M20.28 0 C121.6 0, 222.92 0, 305.72 0 M305.72 0 C319.24 0, 326 6.76, 326 20.28 M305.72 0 C319.24 0, 326 6.76, 326 20.28 M326 20.28 C326 32.84, 326 45.4, 326 60.85 M326 20.28 C326 33.16, 326 46.04, 326 60.85 M326 60.85 C326 74.37, 319.24 81.13, 305.72 81.13 M326 60.85 C326 74.37, 319.24 81.13, 305.72 81.13 M305.72 81.13 C194.26 81.13, 82.8 81.13, 20.28 81.13 M305.72 81.13 C204.91 81.13, 104.1 81.13, 20.28 81.13 M20.28 81.13 C6.76 81.13, 0 74.37, 0 60.85 M20.28 81.13 C6.76 81.13, 0 74.37, 0 60.85 M0 60.85 C0 46.25, 0 31.65, 0 20.28 M0 60.85 C0 51.84, 0 42.83, 0 20.28 M0 20.28 C0 6.76, 6.76 0, 20.28 0 M0 20.28 C0 6.76, 6.76 0, 20.28 0" stroke="#1e1e1e" stroke-width="4" fill="none"></path></g><g transform="translate(1519.903505418857 2227.534810911997) rotate(0 67.375 22.5)"><text x="67.375" y="31.536" font-family="Virgil, Segoe UI Emoji" font-size="36px" fill="#1e1e1e" text-anchor="middle" style="white-space: pre;" direction="ltr" dominant-baseline="alphabetic">Client 7</text></g><g stroke-linecap="round" transform="translate(1423.2339676582487 2420.355306779167) rotate(0 163 40.56417751128356)"><path d="M20.28 0 C95.03 0, 169.79 0, 305.72 0 M20.28 0 C91.73 0, 163.19 0, 305.72 0 M305.72 0 C319.24 0, 326 6.76, 326 20.28 M305.72 0 C319.24 0, 326 6.76, 326 20.28 M326 20.28 C326 34.59, 326 48.89, 326 60.85 M326 20.28 C326 36.07, 326 51.85, 326 60.85 M326 60.85 C326 74.37, 319.24 81.13, 305.72 81.13 M326 60.85 C326 74.37, 319.24 81.13, 305.72 81.13 M305.72 81.13 C248.44 81.13, 191.17 81.13, 20.28 81.13 M305.72 81.13 C198.64 81.13, 91.55 81.13, 20.28 81.13 M20.28 81.13 C6.76 81.13, 0 74.37, 0 60.85 M20.28 81.13 C6.76 81.13, 0 74.37, 0 60.85 M0 60.85 C0 45.56, 0 30.27, 0 20.28 M0 60.85 C0 51.05, 0 41.24, 0 20.28 M0 20.28 C0 6.76, 6.76 0, 20.28 0 M0 20.28 C0 6.76, 6.76 0, 20.28 0" stroke="#1e1e1e" stroke-width="4" fill="none"></path></g><g transform="translate(1517.0256317817839 2438.419484290451) rotate(0 69.20833587646484 22.5)"><text x="69.20833587646484" y="31.536" font-family="Virgil, Segoe UI Emoji" font-size="36px" fill="#1e1e1e" text-anchor="middle" style="white-space: pre;" direction="ltr" dominant-baseline="alphabetic">Client 4</text></g><g stroke-linecap="round" transform="translate(1423.233968038985 2623.9330256444264) rotate(0 163 40.56417751128356)"><path d="M20.28 0 C127.5 0, 234.72 0, 305.72 0 M20.28 0 C101.39 0, 182.49 0, 305.72 0 M305.72 0 C319.24 0, 326 6.76, 326 20.28 M305.72 0 C319.24 0, 326 6.76, 326 20.28 M326 20.28 C326 35.51, 326 50.74, 326 60.85 M326 20.28 C326 35.65, 326 51.03, 326 60.85 M326 60.85 C326 74.37, 319.24 81.13, 305.72 81.13 M326 60.85 C326 74.37, 319.24 81.13, 305.72 81.13 M305.72 81.13 C206.8 81.13, 107.88 81.13, 20.28 81.13 M305.72 81.13 C204.91 81.13, 104.1 81.13, 20.28 81.13 M20.28 81.13 C6.76 81.13, 0 74.37, 0 60.85 M20.28 81.13 C6.76 81.13, 0 74.37, 0 60.85 M0 60.85 C0 50.85, 0 40.86, 0 20.28 M0 60.85 C0 51.69, 0 42.53, 0 20.28 M0 20.28 C0 6.76, 6.76 0, 20.28 0 M0 20.28 C0 6.76, 6.76 0, 20.28 0" stroke="#1e1e1e" stroke-width="4" fill="none"></path></g><g transform="translate(1517.5839665131061 2641.99720315571) rotate(0 68.6500015258789 22.5)"><text x="68.6500015258789" y="31.536" font-family="Virgil, Segoe UI Emoji" font-size="36px" fill="#1e1e1e" text-anchor="middle" style="white-space: pre;" direction="ltr" dominant-baseline="alphabetic">Client 9</text></g><g stroke-linecap="round"><g transform="translate(1268.6626503246225 2662.680912777101) rotate(0 70.47851291125698 0)"><path d="M0 0 C23.49 0, 117.46 0, 140.96 0 M0 0 C23.49 0, 117.46 0, 140.96 0" stroke="#1e1e1e" stroke-width="4" fill="none"></path></g><g transform="translate(1268.6626503246225 2662.680912777101) rotate(0 70.47851291125698 0)"><path d="M117.46 8.55 C126.44 5.28, 135.42 2.02, 140.96 0 M117.46 8.55 C126.11 5.41, 134.75 2.26, 140.96 0" stroke="#1e1e1e" stroke-width="4" fill="none"></path></g><g transform="translate(1268.6626503246225 2662.680912777101) rotate(0 70.47851291125698 0)"><path d="M117.46 -8.55 C126.44 -5.28, 135.42 -2.02, 140.96 0 M117.46 -8.55 C126.11 -5.41, 134.75 -2.26, 140.96 0" stroke="#1e1e1e" stroke-width="4" fill="none"></path></g></g><mask></mask><g stroke-linecap="round"><g transform="translate(1268.6626503572188 2459.068926116748) rotate(0 70.47851289495884 0)"><path d="M0 0 C23.49 0, 117.46 0, 140.96 0 M0 0 C23.49 0, 117.46 0, 140.96 0" stroke="#1e1e1e" stroke-width="4" fill="none"></path></g><g transform="translate(1268.6626503572188 2459.068926116748) rotate(0 70.47851289495884 0)"><path d="M117.46 8.55 C122.72 6.64, 127.98 4.72, 140.96 0 M117.46 8.55 C124.81 5.88, 132.16 3.2, 140.96 0" stroke="#1e1e1e" stroke-width="4" fill="none"></path></g><g transform="translate(1268.6626503572188 2459.068926116748) rotate(0 70.47851289495884 0)"><path d="M117.46 -8.55 C122.72 -6.64, 127.98 -4.72, 140.96 0 M117.46 -8.55 C124.81 -5.88, 132.16 -3.2, 140.96 0" stroke="#1e1e1e" stroke-width="4" fill="none"></path></g></g><mask></mask><g stroke-linecap="round"><g transform="translate(1268.6626500990678 2250.1031731674248) rotate(0 70.47851302403433 0)"><path d="M0 0 C23.49 0, 117.46 0, 140.96 0 M0 0 C23.49 0, 117.46 0, 140.96 0" stroke="#1e1e1e" stroke-width="4" fill="none"></path></g><g transform="translate(1268.6626500990678 2250.1031731674248) rotate(0 70.47851302403433 0)"><path d="M117.46 8.55 C125.85 5.5, 134.24 2.45, 140.96 0 M117.46 8.55 C123.53 6.34, 129.59 4.14, 140.96 0" stroke="#1e1e1e" stroke-width="4" fill="none"></path></g><g transform="translate(1268.6626500990678 2250.1031731674248) rotate(0 70.47851302403433 0)"><path d="M117.46 -8.55 C125.85 -5.5, 134.24 -2.45, 140.96 0 M117.46 -8.55 C123.53 -6.34, 129.59 -4.14, 140.96 0" stroke="#1e1e1e" stroke-width="4" fill="none"></path></g></g><mask></mask><g stroke-linecap="round"><g transform="translate(1268.6626505505556 2014.5258129896556) rotate(0 70.47851279829047 0)"><path d="M0 0 C23.49 0, 117.46 0, 140.96 0 M0 0 C23.49 0, 117.46 0, 140.96 0" stroke="#1e1e1e" stroke-width="4" fill="none"></path></g><g transform="translate(1268.6626505505556 2014.5258129896556) rotate(0 70.47851279829047 0)"><path d="M117.46 8.55 C123.44 6.38, 129.41 4.2, 140.96 0 M117.46 8.55 C126.54 5.25, 135.61 1.95, 140.96 0" stroke="#1e1e1e" stroke-width="4" fill="none"></path></g><g transform="translate(1268.6626505505556 2014.5258129896556) rotate(0 70.47851279829047 0)"><path d="M117.46 -8.55 C123.44 -6.38, 129.41 -4.2, 140.96 0 M117.46 -8.55 C126.54 -5.25, 135.61 -1.95, 140.96 0" stroke="#1e1e1e" stroke-width="4" fill="none"></path></g></g><mask></mask><g stroke-linecap="round"><g transform="translate(1268.6626503231964 1799.3980463430016) rotate(0 70.47851291197003 0)"><path d="M0 0 C23.49 0, 117.46 0, 140.96 0 M0 0 C23.49 0, 117.46 0, 140.96 0" stroke="#1e1e1e" stroke-width="4" fill="none"></path></g><g transform="translate(1268.6626503231964 1799.3980463430016) rotate(0 70.47851291197003 0)"><path d="M117.46 8.55 C125.82 5.51, 134.17 2.47, 140.96 0 M117.46 8.55 C123.5 6.35, 129.53 4.16, 140.96 0" stroke="#1e1e1e" stroke-width="4" fill="none"></path></g><g transform="translate(1268.6626503231964 1799.3980463430016) rotate(0 70.47851291197003 0)"><path d="M117.46 -8.55 C125.82 -5.51, 134.17 -2.47, 140.96 0 M117.46 -8.55 C123.5 -6.35, 129.53 -4.16, 140.96 0" stroke="#1e1e1e" stroke-width="4" fill="none"></path></g></g><mask></mask><g transform="translate(1452.4803154085093 1657.1177120199336) rotate(0 131.71665954589844 45)"><text x="131.71665954589844" y="31.536" font-family="Virgil, Segoe UI Emoji" font-size="36px" fill="#1e1e1e" text-anchor="middle" style="white-space: pre;" direction="ltr" dominant-baseline="alphabetic">Random Chosen</text><text x="131.71665954589844" y="76.536" font-family="Virgil, Segoe UI Emoji" font-size="36px" fill="#1e1e1e" text-anchor="middle" style="white-space: pre;" direction="ltr" dominant-baseline="alphabetic">Clients</text></g><g stroke-linecap="round" transform="translate(1422.7200080554903 1644.3132204112608) rotate(0 163.78658165489833 530.8174214542842)"><path d="M32 0 C104.79 0, 177.58 0, 295.57 0 M32 0 C132.36 0, 232.72 0, 295.57 0 M295.57 0 C316.91 0, 327.57 10.67, 327.57 32 M295.57 0 C316.91 0, 327.57 10.67, 327.57 32 M327.57 32 C327.57 247.28, 327.57 462.56, 327.57 1029.63 M327.57 32 C327.57 287.9, 327.57 543.81, 327.57 1029.63 M327.57 1029.63 C327.57 1050.97, 316.91 1061.63, 295.57 1061.63 M327.57 1029.63 C327.57 1050.97, 316.91 1061.63, 295.57 1061.63 M295.57 1061.63 C230.59 1061.63, 165.61 1061.63, 32 1061.63 M295.57 1061.63 C215.23 1061.63, 134.89 1061.63, 32 1061.63 M32 1061.63 C10.67 1061.63, 0 1050.97, 0 1029.63 M32 1061.63 C10.67 1061.63, 0 1050.97, 0 1029.63 M0 1029.63 C0 659.28, 0 288.93, 0 32 M0 1029.63 C0 636.14, 0 242.65, 0 32 M0 32 C0 10.67, 10.67 0, 32 0 M0 32 C0 10.67, 10.67 0, 32 0" stroke="#1e1e1e" stroke-width="4" fill="none"></path></g><g stroke-linecap="round" transform="translate(53.24262336509855 795.779049138242) rotate(0 163 93)"><path d="M32 0 C122.16 0, 212.31 0, 294 0 M32 0 C130.56 0, 229.12 0, 294 0 M294 0 C315.33 0, 326 10.67, 326 32 M294 0 C315.33 0, 326 10.67, 326 32 M326 32 C326 70.86, 326 109.72, 326 154 M326 32 C326 76.98, 326 121.96, 326 154 M326 154 C326 175.33, 315.33 186, 294 186 M326 154 C326 175.33, 315.33 186, 294 186 M294 186 C219.87 186, 145.75 186, 32 186 M294 186 C213 186, 131.99 186, 32 186 M32 186 C10.67 186, 0 175.33, 0 154 M32 186 C10.67 186, 0 175.33, 0 154 M0 154 C0 116.66, 0 79.32, 0 32 M0 154 C0 114.52, 0 75.03, 0 32 M0 32 C0 10.67, 10.67 0, 32 0 M0 32 C0 10.67, 10.67 0, 32 0" stroke="#1e1e1e" stroke-width="4" fill="none"></path></g><g transform="translate(97.19262031334074 866.279049138242) rotate(0 119.05000305175781 22.5)"><text x="119.05000305175781" y="31.536" font-family="Virgil, Segoe UI Emoji" font-size="36px" fill="#1e1e1e" text-anchor="middle" style="white-space: pre;" direction="ltr" dominant-baseline="alphabetic">TTL Assigner</text></g><g stroke-linecap="round" transform="translate(1104.3405539023406 1647.8595800046442) rotate(0 81.449328161847 30.535655613329254)"><path d="M15.27 0 C60.09 0, 104.91 0, 147.63 0 M15.27 0 C46.45 0, 77.63 0, 147.63 0 M147.63 0 C157.81 0, 162.9 5.09, 162.9 15.27 M147.63 0 C157.81 0, 162.9 5.09, 162.9 15.27 M162.9 15.27 C162.9 24.28, 162.9 33.29, 162.9 45.8 M162.9 15.27 C162.9 21.74, 162.9 28.21, 162.9 45.8 M162.9 45.8 C162.9 55.98, 157.81 61.07, 147.63 61.07 M162.9 45.8 C162.9 55.98, 157.81 61.07, 147.63 61.07 M147.63 61.07 C117.05 61.07, 86.47 61.07, 15.27 61.07 M147.63 61.07 C106.05 61.07, 64.48 61.07, 15.27 61.07 M15.27 61.07 C5.09 61.07, 0 55.98, 0 45.8 M15.27 61.07 C5.09 61.07, 0 55.98, 0 45.8 M0 45.8 C0 37.9, 0 30, 0 15.27 M0 45.8 C0 38.94, 0 32.08, 0 15.27 M0 15.27 C0 5.09, 5.09 0, 15.27 0 M0 15.27 C0 5.09, 5.09 0, 15.27 0" stroke="#1e1e1e" stroke-width="4" fill="none"></path></g><g transform="translate(1146.0565484765393 1655.8952356179725) rotate(0 39.733333587646484 22.5)"><text x="39.733333587646484" y="31.536" font-family="Virgil, Segoe UI Emoji" font-size="36px" fill="#1e1e1e" text-anchor="middle" style="white-space: pre;" direction="ltr" dominant-baseline="alphabetic">TTL</text></g><g stroke-linecap="round"><g transform="translate(216.2426233651022 982.779049138242) rotate(0 0 64.89985670136411)"><path d="M0 0 C0 21.63, 0 108.17, 0 129.8 M0 0 C0 21.63, 0 108.17, 0 129.8" stroke="#1e1e1e" stroke-width="4" fill="none"></path></g><g transform="translate(216.2426233651022 982.779049138242) rotate(0 0 64.89985670136411)"><path d="M-8.55 106.31 C-5.45 114.84, -2.34 123.37, 0 129.8 M-8.55 106.31 C-6.07 113.11, -3.6 119.91, 0 129.8" stroke="#1e1e1e" stroke-width="4" fill="none"></path></g><g transform="translate(216.2426233651022 982.779049138242) rotate(0 0 64.89985670136411)"><path d="M8.55 106.31 C5.45 114.84, 2.34 123.37, 0 129.8 M8.55 106.31 C6.07 113.11, 3.6 119.91, 0 129.8" stroke="#1e1e1e" stroke-width="4" fill="none"></path></g></g><mask></mask><g stroke-linecap="round" transform="translate(1105.636552641623 1864.2913694650997) rotate(0 81.449328161847 30.535655613329254)"><path d="M15.27 0 C44.88 0, 74.5 0, 147.63 0 M15.27 0 C59.57 0, 103.87 0, 147.63 0 M147.63 0 C157.81 0, 162.9 5.09, 162.9 15.27 M147.63 0 C157.81 0, 162.9 5.09, 162.9 15.27 M162.9 15.27 C162.9 26.95, 162.9 38.62, 162.9 45.8 M162.9 15.27 C162.9 24.33, 162.9 33.4, 162.9 45.8 M162.9 45.8 C162.9 55.98, 157.81 61.07, 147.63 61.07 M162.9 45.8 C162.9 55.98, 157.81 61.07, 147.63 61.07 M147.63 61.07 C99.28 61.07, 50.93 61.07, 15.27 61.07 M147.63 61.07 C107.78 61.07, 67.93 61.07, 15.27 61.07 M15.27 61.07 C5.09 61.07, 0 55.98, 0 45.8 M15.27 61.07 C5.09 61.07, 0 55.98, 0 45.8 M0 45.8 C0 37.4, 0 29, 0 15.27 M0 45.8 C0 33.91, 0 22.02, 0 15.27 M0 15.27 C0 5.09, 5.09 0, 15.27 0 M0 15.27 C0 5.09, 5.09 0, 15.27 0" stroke="#1e1e1e" stroke-width="4" fill="none"></path></g><g transform="translate(1147.3525472158217 1872.327025078428) rotate(0 39.733333587646484 22.5)"><text x="39.733333587646484" y="31.536" font-family="Virgil, Segoe UI Emoji" font-size="36px" fill="#1e1e1e" text-anchor="middle" style="white-space: pre;" direction="ltr" dominant-baseline="alphabetic">TTL</text></g><g stroke-linecap="round" transform="translate(1103.0445551630546 2091.7391482094663) rotate(0 81.449328161847 30.535655613329254)"><path d="M15.27 0 C54.31 0, 93.34 0, 147.63 0 M15.27 0 C52.02 0, 88.78 0, 147.63 0 M147.63 0 C157.81 0, 162.9 5.09, 162.9 15.27 M147.63 0 C157.81 0, 162.9 5.09, 162.9 15.27 M162.9 15.27 C162.9 23.6, 162.9 31.93, 162.9 45.8 M162.9 15.27 C162.9 22.71, 162.9 30.15, 162.9 45.8 M162.9 45.8 C162.9 55.98, 157.81 61.07, 147.63 61.07 M162.9 45.8 C162.9 55.98, 157.81 61.07, 147.63 61.07 M147.63 61.07 C113.13 61.07, 78.62 61.07, 15.27 61.07 M147.63 61.07 C114.54 61.07, 81.45 61.07, 15.27 61.07 M15.27 61.07 C5.09 61.07, 0 55.98, 0 45.8 M15.27 61.07 C5.09 61.07, 0 55.98, 0 45.8 M0 45.8 C0 39.09, 0 32.38, 0 15.27 M0 45.8 C0 38.19, 0 30.58, 0 15.27 M0 15.27 C0 5.09, 5.09 0, 15.27 0 M0 15.27 C0 5.09, 5.09 0, 15.27 0" stroke="#1e1e1e" stroke-width="4" fill="none"></path></g><g transform="translate(1144.760549737257 2099.7748038227965) rotate(0 39.733333587646484 22.5)"><text x="39.733333587646484" y="31.536" font-family="Virgil, Segoe UI Emoji" font-size="36px" fill="#1e1e1e" text-anchor="middle" style="white-space: pre;" direction="ltr" dominant-baseline="alphabetic">TTL</text></g><g stroke-linecap="round" transform="translate(1103.0445551630546 2315.946930105625) rotate(0 81.449328161847 30.535655613329254)"><path d="M15.27 0 C46.79 0, 78.31 0, 147.63 0 M15.27 0 C47.66 0, 80.06 0, 147.63 0 M147.63 0 C157.81 0, 162.9 5.09, 162.9 15.27 M147.63 0 C157.81 0, 162.9 5.09, 162.9 15.27 M162.9 15.27 C162.9 25.03, 162.9 34.8, 162.9 45.8 M162.9 15.27 C162.9 26.18, 162.9 37.09, 162.9 45.8 M162.9 45.8 C162.9 55.98, 157.81 61.07, 147.63 61.07 M162.9 45.8 C162.9 55.98, 157.81 61.07, 147.63 61.07 M147.63 61.07 C111.59 61.07, 75.56 61.07, 15.27 61.07 M147.63 61.07 C114.27 61.07, 80.91 61.07, 15.27 61.07 M15.27 61.07 C5.09 61.07, 0 55.98, 0 45.8 M15.27 61.07 C5.09 61.07, 0 55.98, 0 45.8 M0 45.8 C0 37.25, 0 28.69, 0 15.27 M0 45.8 C0 38.78, 0 31.76, 0 15.27 M0 15.27 C0 5.09, 5.09 0, 15.27 0 M0 15.27 C0 5.09, 5.09 0, 15.27 0" stroke="#1e1e1e" stroke-width="4" fill="none"></path></g><g transform="translate(1144.760549737257 2323.9825857189553) rotate(0 39.733333587646484 22.5)"><text x="39.733333587646484" y="31.536" font-family="Virgil, Segoe UI Emoji" font-size="36px" fill="#1e1e1e" text-anchor="middle" style="white-space: pre;" direction="ltr" dominant-baseline="alphabetic">TTL</text></g><g stroke-linecap="round" transform="translate(1099.1565589452002 2523.9547277607326) rotate(0 81.449328161847 30.535655613329254)"><path d="M15.27 0 C54.5 0, 93.72 0, 147.63 0 M15.27 0 C53.26 0, 91.25 0, 147.63 0 M147.63 0 C157.81 0, 162.9 5.09, 162.9 15.27 M147.63 0 C157.81 0, 162.9 5.09, 162.9 15.27 M162.9 15.27 C162.9 26.74, 162.9 38.22, 162.9 45.8 M162.9 15.27 C162.9 25.51, 162.9 35.76, 162.9 45.8 M162.9 45.8 C162.9 55.98, 157.81 61.07, 147.63 61.07 M162.9 45.8 C162.9 55.98, 157.81 61.07, 147.63 61.07 M147.63 61.07 C118.72 61.07, 89.81 61.07, 15.27 61.07 M147.63 61.07 C96.03 61.07, 44.44 61.07, 15.27 61.07 M15.27 61.07 C5.09 61.07, 0 55.98, 0 45.8 M15.27 61.07 C5.09 61.07, 0 55.98, 0 45.8 M0 45.8 C0 38.73, 0 31.65, 0 15.27 M0 45.8 C0 34.45, 0 23.1, 0 15.27 M0 15.27 C0 5.09, 5.09 0, 15.27 0 M0 15.27 C0 5.09, 5.09 0, 15.27 0" stroke="#1e1e1e" stroke-width="4" fill="none"></path></g><g transform="translate(1140.8725535193953 2531.9903833740627) rotate(0 39.733333587646484 22.5)"><text x="39.733333587646484" y="31.536" font-family="Virgil, Segoe UI Emoji" font-size="36px" fill="#1e1e1e" text-anchor="middle" style="white-space: pre;" direction="ltr" dominant-baseline="alphabetic">TTL</text></g><g stroke-linecap="round"><g transform="translate(1180.605887107049 2636.1383039489647) rotate(0 0 -23.327977307114452)"><path d="M0 0 C0 -7.78, 0 -38.88, 0 -46.66 M0 0 C0 -7.78, 0 -38.88, 0 -46.66" stroke="#1e1e1e" stroke-width="4" fill="none"></path></g></g><mask></mask><g stroke-linecap="round"><g transform="translate(1183.197884585621 2431.3705031420686) rotate(0 -1.8189894035458565e-12 -27.215973524967012)"><path d="M0 0 C0 -9.07, 0 -45.36, 0 -54.43 M0 0 C0 -9.07, 0 -45.36, 0 -54.43" stroke="#1e1e1e" stroke-width="4" fill="none"></path></g></g><mask></mask><g stroke-linecap="round"><g transform="translate(1187.0858808034827 2218.8267098994675) rotate(0 0 -31.10396974282048)"><path d="M0 0 C0 -10.37, 0 -51.84, 0 -62.21 M0 0 C0 -10.37, 0 -51.84, 0 -62.21" stroke="#1e1e1e" stroke-width="4" fill="none"></path></g></g><mask></mask><g stroke-linecap="round"><g transform="translate(1185.789882064193 1985.5469368283193) rotate(0 0 -29.807971003535386)"><path d="M0 0 C0 -9.94, 0 -49.68, 0 -59.62 M0 0 C0 -9.94, 0 -49.68, 0 -59.62" stroke="#1e1e1e" stroke-width="4" fill="none"></path></g></g><mask></mask><g stroke-linecap="round"><g transform="translate(1185.789882064193 1770.4111461071498) rotate(0 0 -30.240127437922638)"><path d="M0 0 C0 -10.08, 0 -50.4, 0 -60.48 M0 0 C0 -10.08, 0 -50.4, 0 -60.48" stroke="#1e1e1e" stroke-width="4" fill="none"></path></g></g><mask></mask><g stroke-linecap="round" transform="translate(1882.785494901298 1122.3382600745517) rotate(0 163 95.69497981839322)"><path d="M32 0 C91.78 0, 151.56 0, 294 0 M32 0 C100.83 0, 169.66 0, 294 0 M294 0 C315.33 0, 326 10.67, 326 32 M294 0 C315.33 0, 326 10.67, 326 32 M326 32 C326 80.81, 326 129.62, 326 159.39 M326 32 C326 62.48, 326 92.96, 326 159.39 M326 159.39 C326 180.72, 315.33 191.39, 294 191.39 M326 159.39 C326 180.72, 315.33 191.39, 294 191.39 M294 191.39 C226.15 191.39, 158.31 191.39, 32 191.39 M294 191.39 C241.5 191.39, 189.01 191.39, 32 191.39 M32 191.39 C10.67 191.39, 0 180.72, 0 159.39 M32 191.39 C10.67 191.39, 0 180.72, 0 159.39 M0 159.39 C0 121.23, 0 83.07, 0 32 M0 159.39 C0 128.33, 0 97.28, 0 32 M0 32 C0 10.67, 10.67 0, 32 0 M0 32 C0 10.67, 10.67 0, 32 0" stroke="#1e1e1e" stroke-width="4" fill="none"></path></g><g transform="translate(1931.3271590248332 1195.533239892944) rotate(0 114.45833587646484 22.5)"><text x="114.45833587646484" y="31.536" font-family="Virgil, Segoe UI Emoji" font-size="36px" fill="#1e1e1e" text-anchor="middle" style="white-space: pre;" direction="ltr" dominant-baseline="alphabetic">TTL Checker</text></g><g stroke-linecap="round" transform="translate(2391.930673082148 1031.0657205106709) rotate(0 179.17510749810208 184.47614618148236)"><path d="M225 46.25 C243.35 65.46, 261.7 84.68, 313.35 138.75 M225 46.25 C247.79 70.11, 270.57 93.97, 313.35 138.75 M313.35 138.75 C358.35 185, 358.35 185, 313.35 231.25 M313.35 138.75 C358.35 185, 358.35 185, 313.35 231.25 M313.35 231.25 C292.74 252.58, 272.14 273.91, 225 322.7 M313.35 231.25 C285.56 260.02, 257.77 288.78, 225 322.7 M225 322.7 C180 368.95, 180 368.95, 135 322.7 M225 322.7 C180 368.95, 180 368.95, 135 322.7 M135 322.7 C102.96 290.14, 70.92 257.58, 45 231.25 M135 322.7 C103.78 290.98, 72.56 259.26, 45 231.25 M45 231.25 C0 185, 0 185, 45 138.75 M45 231.25 C0 185, 0 185, 45 138.75 M45 138.75 C77.54 105.3, 110.08 71.86, 135 46.25 M45 138.75 C66.82 116.32, 88.64 93.9, 135 46.25 M135 46.25 C180 0, 180 0, 225 46.25 M135 46.25 C180 0, 180 0, 225 46.25" stroke="#1e1e1e" stroke-width="4" fill="none"></path></g><g transform="translate(2508.1182253053194 1170.3037936014134) rotate(0 62.900001525878906 45)"><text x="62.900001525878906" y="31.536" font-family="Virgil, Segoe UI Emoji" font-size="36px" fill="#1e1e1e" text-anchor="middle" style="white-space: pre;" direction="ltr" dominant-baseline="alphabetic">TTL </text><text x="62.900001525878906" y="76.536" font-family="Virgil, Segoe UI Emoji" font-size="36px" fill="#1e1e1e" text-anchor="middle" style="white-space: pre;" direction="ltr" dominant-baseline="alphabetic">Expired</text></g><g stroke-linecap="round"><g transform="translate(2209.785494901298 1216.3237761656565) rotate(0 91.0830081380991 0.33741574361920357)"><path d="M0 0 C30.36 0.11, 151.81 0.56, 182.17 0.67 M0 0 C30.36 0.11, 151.81 0.56, 182.17 0.67" stroke="#1e1e1e" stroke-width="4" fill="none"></path></g><g transform="translate(2209.785494901298 1216.3237761656565) rotate(0 91.0830081380991 0.33741574361920357)"><path d="M158.64 9.14 C165.41 6.71, 172.17 4.27, 182.17 0.67 M158.64 9.14 C168 5.77, 177.36 2.4, 182.17 0.67" stroke="#1e1e1e" stroke-width="4" fill="none"></path></g><g transform="translate(2209.785494901298 1216.3237761656565) rotate(0 91.0830081380991 0.33741574361920357)"><path d="M158.71 -7.96 C165.45 -5.48, 172.2 -3, 182.17 0.67 M158.71 -7.96 C168.04 -4.53, 177.38 -1.09, 182.17 0.67" stroke="#1e1e1e" stroke-width="4" fill="none"></path></g></g><mask></mask><g stroke-linecap="round"><g transform="translate(2566.958782485228 1033.9001245033305) rotate(0 0 -304.03981473621616)"><path d="M0 0 C0 -101.35, 0 -506.73, 0 -608.08 M0 0 C0 -101.35, 0 -506.73, 0 -608.08" stroke="#1e1e1e" stroke-width="4" fill="none"></path></g><g transform="translate(2566.958782485228 1033.9001245033305) rotate(0 0 -304.03981473621616)"><path d="M8.55 -584.59 C5.2 -593.8, 1.85 -603, 0 -608.08 M8.55 -584.59 C5.74 -592.3, 2.93 -600.02, 0 -608.08" stroke="#1e1e1e" stroke-width="4" fill="none"></path></g><g transform="translate(2566.958782485228 1033.9001245033305) rotate(0 0 -304.03981473621616)"><path d="M-8.55 -584.59 C-5.2 -593.8, -1.85 -603, 0 -608.08 M-8.55 -584.59 C-5.74 -592.3, -2.93 -600.02, 0 -608.08" stroke="#1e1e1e" stroke-width="4" fill="none"></path></g></g><mask></mask><g stroke-linecap="round"><g transform="translate(2570.4576979770427 1392.8050336598735) rotate(0 0 70.85303870936696)"><path d="M0 0 C0 23.62, 0 118.09, 0 141.71 M0 0 C0 23.62, 0 118.09, 0 141.71" stroke="#1e1e1e" stroke-width="4" fill="none"></path></g><g transform="translate(2570.4576979770427 1392.8050336598735) rotate(0 0 70.85303870936696)"><path d="M-8.55 118.21 C-6.57 123.65, -4.59 129.09, 0 141.71 M-8.55 118.21 C-5.4 126.88, -2.25 135.54, 0 141.71" stroke="#1e1e1e" stroke-width="4" fill="none"></path></g><g transform="translate(2570.4576979770427 1392.8050336598735) rotate(0 0 70.85303870936696)"><path d="M8.55 118.21 C6.57 123.65, 4.59 129.09, 0 141.71 M8.55 118.21 C5.4 126.88, 2.25 135.54, 0 141.71" stroke="#1e1e1e" stroke-width="4" fill="none"></path></g></g><mask></mask><g transform="translate(2526.042116454344 372.35003031700217) rotate(0 28.91666603088379 22.5)"><text x="28.91666603088379" y="31.536" font-family="Virgil, Segoe UI Emoji" font-size="36px" fill="#1e1e1e" text-anchor="middle" style="white-space: pre;" direction="ltr" dominant-baseline="alphabetic">Yes</text></g><g transform="translate(2548.8910304202873 1551.130959664757) rotate(0 21.566667556762695 22.5)"><text x="21.566667556762695" y="31.536" font-family="Virgil, Segoe UI Emoji" font-size="36px" fill="#1e1e1e" text-anchor="middle" style="white-space: pre;" direction="ltr" dominant-baseline="alphabetic">No</text></g><g stroke-linecap="round"><g transform="translate(2533.7190853129287 1573.8739103615899) rotate(0 -241.42516893561697 -132.08405981622673)"><path d="M0 0 C-71.44 -6.12, -348.14 7.29, -428.62 -36.74 C-509.09 -80.77, -473.81 -226.26, -482.85 -264.17 M0 0 C-71.44 -6.12, -348.14 7.29, -428.62 -36.74 C-509.09 -80.77, -473.81 -226.26, -482.85 -264.17" stroke="#1e1e1e" stroke-width="4" fill="none"></path></g><g transform="translate(2533.7190853129287 1573.8739103615899) rotate(0 -241.42516893561697 -132.08405981622673)"><path d="M-474.1 -240.75 C-476.46 -247.06, -478.82 -253.37, -482.85 -264.17 M-474.1 -240.75 C-476.98 -248.45, -479.86 -256.16, -482.85 -264.17" stroke="#1e1e1e" stroke-width="4" fill="none"></path></g><g transform="translate(2533.7190853129287 1573.8739103615899) rotate(0 -241.42516893561697 -132.08405981622673)"><path d="M-491.2 -240.6 C-488.95 -246.96, -486.7 -253.31, -482.85 -264.17 M-491.2 -240.6 C-488.45 -248.36, -485.71 -256.11, -482.85 -264.17" stroke="#1e1e1e" stroke-width="4" fill="none"></path></g></g><mask></mask><g mask="url(#mask-HLniN_SnXU9cBBpnmfhoW)" stroke-linecap="round"><g transform="translate(2514.7212543292917 388.2234428514057) rotate(0 -1071.3337615437486 -38.88129423845203)"><path d="M0 0 C-223.17 2.11, -981.9 27.71, -1339.01 12.64 C-1696.12 -2.43, -2008.73 -73.23, -2142.67 -90.4 M0 0 C-223.17 2.11, -981.9 27.71, -1339.01 12.64 C-1696.12 -2.43, -2008.73 -73.23, -2142.67 -90.4" stroke="#1e1e1e" stroke-width="4" fill="none"></path></g><g transform="translate(2514.7212543292917 388.2234428514057) rotate(0 -1071.3337615437486 -38.88129423845203)"><path d="M-2118.1 -95.05 C-2123.22 -94.09, -2128.34 -93.12, -2142.67 -90.4 M-2118.1 -95.05 C-2127.02 -93.37, -2135.93 -91.68, -2142.67 -90.4" stroke="#1e1e1e" stroke-width="4" fill="none"></path></g><g transform="translate(2514.7212543292917 388.2234428514057) rotate(0 -1071.3337615437486 -38.88129423845203)"><path d="M-2120.86 -78.18 C-2125.4 -80.72, -2129.95 -83.27, -2142.67 -90.4 M-2120.86 -78.18 C-2128.77 -82.61, -2136.69 -87.05, -2142.67 -90.4" stroke="#1e1e1e" stroke-width="4" fill="none"></path></g></g><mask id="mask-HLniN_SnXU9cBBpnmfhoW"><rect x="0" y="0" fill="#fff" width="4757.388777416789" height="591.2667500155203"></rect><rect x="990.4086056369852" y="378.3638021950119" fill="#000" width="370.6000061035156" height="45" opacity="1"></rect></mask><g transform="translate(990.4086056369852 378.363802195011) rotate(0 452.978887148558 -26.65928428447569)"><text x="185.3000030517578" y="31.536" font-family="Virgil, Segoe UI Emoji" font-size="36px" fill="#1e1e1e" text-anchor="middle" style="white-space: pre;" direction="ltr" dominant-baseline="alphabetic">Requests new secret</text></g><g stroke-linecap="round"><g transform="translate(1418.580247401369 1743.018907729309) rotate(0 165 0)"><path d="M0 0 C55 0, 275 0, 330 0 M0 0 C55 0, 275 0, 330 0" stroke="#1e1e1e" stroke-width="4" fill="none"></path></g></g><mask></mask><g stroke-linecap="round" transform="translate(41.46119978239585 528.8204950308964) rotate(0 163 92.99999999999955)"><path d="M32 0 C119.71 0, 207.42 0, 294 0 M32 0 C91.7 0, 151.4 0, 294 0 M294 0 C315.33 0, 326 10.67, 326 32 M294 0 C315.33 0, 326 10.67, 326 32 M326 32 C326 72.99, 326 113.98, 326 154 M326 32 C326 77.12, 326 122.24, 326 154 M326 154 C326 175.33, 315.33 186, 294 186 M326 154 C326 175.33, 315.33 186, 294 186 M294 186 C216.37 186, 138.75 186, 32 186 M294 186 C240.9 186, 187.79 186, 32 186 M32 186 C10.67 186, 0 175.33, 0 154 M32 186 C10.67 186, 0 175.33, 0 154 M0 154 C0 109.66, 0 65.32, 0 32 M0 154 C0 116.05, 0 78.1, 0 32 M0 32 C0 10.67, 10.67 0, 32 0 M0 32 C0 10.67, 10.67 0, 32 0" stroke="#1e1e1e" stroke-width="4" fill="none"></path></g><g transform="translate(70.46119978239585 599.3204950308964) rotate(0 134 22.5)"><text x="134" y="31.536" font-family="Virgil, Segoe UI Emoji" font-size="36px" fill="#1e1e1e" text-anchor="middle" style="white-space: pre;" direction="ltr" dominant-baseline="alphabetic">Secret Sharder</text></g><g stroke-linecap="round"><g transform="translate(202.46119978239585 715.8204950308973) rotate(0 0 40)"><path d="M0 0 C0 13.33, 0 66.67, 0 80 M0 0 C0 13.33, 0 66.67, 0 80" stroke="#1e1e1e" stroke-width="4" fill="none"></path></g><g transform="translate(202.46119978239585 715.8204950308973) rotate(0 0 40)"><path d="M-8.55 56.51 C-6.11 63.21, -3.67 69.9, 0 80 M-8.55 56.51 C-6.63 61.78, -4.71 67.06, 0 80" stroke="#1e1e1e" stroke-width="4" fill="none"></path></g><g transform="translate(202.46119978239585 715.8204950308973) rotate(0 0 40)"><path d="M8.55 56.51 C6.11 63.21, 3.67 69.9, 0 80 M8.55 56.51 C6.63 61.78, 4.71 67.06, 0 80" stroke="#1e1e1e" stroke-width="4" fill="none"></path></g></g><mask></mask><g stroke-linecap="round" transform="translate(37.46119978239585 208.8204950308982) rotate(0 163 93)"><path d="M32 0 C109.72 0, 187.45 0, 294 0 M32 0 C114.55 0, 197.1 0, 294 0 M294 0 C315.33 0, 326 10.67, 326 32 M294 0 C315.33 0, 326 10.67, 326 32 M326 32 C326 80.69, 326 129.38, 326 154 M326 32 C326 62.39, 326 92.77, 326 154 M326 154 C326 175.33, 315.33 186, 294 186 M326 154 C326 175.33, 315.33 186, 294 186 M294 186 C201.95 186, 109.91 186, 32 186 M294 186 C200.08 186, 106.15 186, 32 186 M32 186 C10.67 186, 0 175.33, 0 154 M32 186 C10.67 186, 0 175.33, 0 154 M0 154 C0 121.51, 0 89.02, 0 32 M0 154 C0 115.84, 0 77.69, 0 32 M0 32 C0 10.67, 10.67 0, 32 0 M0 32 C0 10.67, 10.67 0, 32 0" stroke="#1e1e1e" stroke-width="4" fill="none"></path></g><g transform="translate(43.93620588591148 279.3204950308982) rotate(0 156.52499389648438 22.5)"><text x="156.52499389648438" y="31.536" font-family="Virgil, Segoe UI Emoji" font-size="36px" fill="#1e1e1e" text-anchor="middle" style="white-space: pre;" direction="ltr" dominant-baseline="alphabetic">Secret Generator</text></g><g stroke-linecap="round"><g transform="translate(198.46119978239585 395.8204950308973) rotate(0 0 64)"><path d="M0 0 C0 21.33, 0 106.67, 0 128 M0 0 C0 21.33, 0 106.67, 0 128" stroke="#1e1e1e" stroke-width="4" fill="none"></path></g><g transform="translate(198.46119978239585 395.8204950308973) rotate(0 0 64)"><path d="M-8.55 104.51 C-6.64 109.75, -4.74 114.99, 0 128 M-8.55 104.51 C-6.36 110.54, -4.16 116.57, 0 128" stroke="#1e1e1e" stroke-width="4" fill="none"></path></g><g transform="translate(198.46119978239585 395.8204950308973) rotate(0 0 64)"><path d="M8.55 104.51 C6.64 109.75, 4.74 114.99, 0 128 M8.55 104.51 C6.36 110.54, 4.16 116.57, 0 128" stroke="#1e1e1e" stroke-width="4" fill="none"></path></g></g><mask></mask><g stroke-linecap="round" transform="translate(1414.9611997823959 1120.8204950308973) rotate(0 163 93)"><path d="M32 0 C104.47 0, 176.94 0, 294 0 M32 0 C109.34 0, 186.68 0, 294 0 M294 0 C315.33 0, 326 10.67, 326 32 M294 0 C315.33 0, 326 10.67, 326 32 M326 32 C326 73.95, 326 115.89, 326 154 M326 32 C326 62.13, 326 92.25, 326 154 M326 154 C326 175.33, 315.33 186, 294 186 M326 154 C326 175.33, 315.33 186, 294 186 M294 186 C203 186, 112 186, 32 186 M294 186 C192.82 186, 91.64 186, 32 186 M32 186 C10.67 186, 0 175.33, 0 154 M32 186 C10.67 186, 0 175.33, 0 154 M0 154 C0 114.71, 0 75.42, 0 32 M0 154 C0 106.42, 0 58.83, 0 32 M0 32 C0 10.67, 10.67 0, 32 0 M0 32 C0 10.67, 10.67 0, 32 0" stroke="#1e1e1e" stroke-width="4" fill="none"></path></g><g transform="translate(1447.4445371847396 1191.3204950308973) rotate(0 130.51666259765625 22.5)"><text x="130.51666259765625" y="31.536" font-family="Virgil, Segoe UI Emoji" font-size="36px" fill="#1e1e1e" text-anchor="middle" style="white-space: pre;" direction="ltr" dominant-baseline="alphabetic">Client Manager</text></g><g mask="url(#mask-sPoXXPK1ktj7Q1IlvpAfQ)" stroke-linecap="round"><g transform="translate(380.21414203648965 1207.8204950308973) rotate(0 516.8735288729531 0)"><path d="M0 0 C172.29 0, 861.46 0, 1033.75 0 M0 0 C172.29 0, 861.46 0, 1033.75 0" stroke="#1e1e1e" stroke-width="4" fill="none"></path></g><g transform="translate(380.21414203648965 1207.8204950308973) rotate(0 516.8735288729531 0)"><path d="M1010.25 8.55 C1017.99 5.74, 1025.72 2.92, 1033.75 0 M1010.25 8.55 C1015.31 6.71, 1020.36 4.87, 1033.75 0" stroke="#1e1e1e" stroke-width="4" fill="none"></path></g><g transform="translate(380.21414203648965 1207.8204950308973) rotate(0 516.8735288729531 0)"><path d="M1010.25 -8.55 C1017.99 -5.74, 1025.72 -2.92, 1033.75 0 M1010.25 -8.55 C1015.31 -6.71, 1020.36 -4.87, 1033.75 0" stroke="#1e1e1e" stroke-width="4" fill="none"></path></g></g><mask id="mask-sPoXXPK1ktj7Q1IlvpAfQ"><rect x="0" y="0" fill="#fff" width="1513.9611997823959" height="1307.8204950308973"></rect><rect x="579.4876648059253" y="1185.3204950308973" fill="#000" width="635.2000122070312" height="45" opacity="1"></rect></mask><g transform="translate(579.4876648059253 1185.3204950308973) rotate(0 317.60000610351744 22.5)"><text x="317.6000061035156" y="31.536" font-family="Virgil, Segoe UI Emoji" font-size="36px" fill="#1e1e1e" text-anchor="middle" style="white-space: pre;" direction="ltr" dominant-baseline="alphabetic">Notifies how many shards there are</text></g><g stroke-linecap="round"><g transform="translate(1874.4611997823959 1215.8204950308973) rotate(0 -66.25 0)"><path d="M0 0 C-22.08 0, -110.42 0, -132.5 0 M0 0 C-22.08 0, -110.42 0, -132.5 0" stroke="#1e1e1e" stroke-width="4" fill="none"></path></g><g transform="translate(1874.4611997823959 1215.8204950308973) rotate(0 -66.25 0)"><path d="M-109.01 -8.55 C-118.17 -5.22, -127.33 -1.88, -132.5 0 M-109.01 -8.55 C-117.43 -5.48, -125.86 -2.42, -132.5 0" stroke="#1e1e1e" stroke-width="4" fill="none"></path></g><g transform="translate(1874.4611997823959 1215.8204950308973) rotate(0 -66.25 0)"><path d="M-109.01 8.55 C-118.17 5.22, -127.33 1.88, -132.5 0 M-109.01 8.55 C-117.43 5.48, -125.86 2.42, -132.5 0" stroke="#1e1e1e" stroke-width="4" fill="none"></path></g></g><mask></mask><g mask="url(#mask-Yenq-N7IjAzbHIgGNPHbQ)" stroke-linecap="round"><g transform="translate(1585.9611997823959 1307.8204950308973) rotate(0 0 167)"><path d="M0 0 C0 55.67, 0 278.33, 0 334 M0 0 C0 55.67, 0 278.33, 0 334" stroke="#1e1e1e" stroke-width="4" fill="none"></path></g><g transform="translate(1585.9611997823959 1307.8204950308973) rotate(0 0 167)"><path d="M-8.55 310.51 C-6.72 315.54, -4.89 320.57, 0 334 M-8.55 310.51 C-6.61 315.84, -4.67 321.17, 0 334" stroke="#1e1e1e" stroke-width="4" fill="none"></path></g><g transform="translate(1585.9611997823959 1307.8204950308973) rotate(0 0 167)"><path d="M8.55 310.51 C6.72 315.54, 4.89 320.57, 0 334 M8.55 310.51 C6.61 315.84, 4.67 321.17, 0 334" stroke="#1e1e1e" stroke-width="4" fill="none"></path></g></g><mask id="mask-Yenq-N7IjAzbHIgGNPHbQ"><rect x="0" y="0" fill="#fff" width="1685.9611997823959" height="1741.8204950308973"></rect><rect x="1426.4362058859115" y="1407.3204950308973" fill="#000" width="319.04998779296875" height="135" opacity="1"></rect></mask><g transform="translate(1426.4362058859115 1407.3204950308973) rotate(0 159.52499389648438 67.5)"><text x="159.52499389648438" y="31.536" font-family="Virgil, Segoe UI Emoji" font-size="36px" fill="#1e1e1e" text-anchor="middle" style="white-space: pre;" direction="ltr" dominant-baseline="alphabetic">Selects n random </text><text x="159.52499389648438" y="76.536" font-family="Virgil, Segoe UI Emoji" font-size="36px" fill="#1e1e1e" text-anchor="middle" style="white-space: pre;" direction="ltr" dominant-baseline="alphabetic">clients where n = </text><text x="159.52499389648438" y="121.536" font-family="Virgil, Segoe UI Emoji" font-size="36px" fill="#1e1e1e" text-anchor="middle" style="white-space: pre;" direction="ltr" dominant-baseline="alphabetic">number of shards</text></g><g stroke-linecap="round" transform="translate(1086.627866449071 1536.3204950308973) rotate(0 98.75 605)"><path d="M32 0 C62.47 0, 92.94 0, 165.5 0 M32 0 C78.84 0, 125.69 0, 165.5 0 M165.5 0 C186.83 0, 197.5 10.67, 197.5 32 M165.5 0 C186.83 0, 197.5 10.67, 197.5 32 M197.5 32 C197.5 469.07, 197.5 906.14, 197.5 1178 M197.5 32 C197.5 392.2, 197.5 752.4, 197.5 1178 M197.5 1178 C197.5 1199.33, 186.83 1210, 165.5 1210 M197.5 1178 C197.5 1199.33, 186.83 1210, 165.5 1210 M165.5 1210 C125.29 1210, 85.08 1210, 32 1210 M165.5 1210 C114.95 1210, 64.4 1210, 32 1210 M32 1210 C10.67 1210, 0 1199.33, 0 1178 M32 1210 C10.67 1210, 0 1199.33, 0 1178 M0 1178 C0 775.27, 0 372.53, 0 32 M0 1178 C0 860.85, 0 543.71, 0 32 M0 32 C0 10.67, 10.67 0, 32 0 M0 32 C0 10.67, 10.67 0, 32 0" stroke="#1e1e1e" stroke-width="4" fill="none"></path></g><g transform="translate(1121.5195366761218 1537.8204950308973) rotate(0 64.60832977294922 45)"><text x="64.60832977294922" y="31.536" font-family="Virgil, Segoe UI Emoji" font-size="36px" fill="#1e1e1e" text-anchor="middle" style="white-space: pre;" direction="ltr" dominant-baseline="alphabetic">Tagged</text><text x="64.60832977294922" y="76.536" font-family="Virgil, Segoe UI Emoji" font-size="36px" fill="#1e1e1e" text-anchor="middle" style="white-space: pre;" direction="ltr" dominant-baseline="alphabetic">Shards</text></g><g stroke-linecap="round"><g transform="translate(1087.127866449071 1625.3204950308973) rotate(0 97.5 0)"><path d="M0 0 C32.5 0, 162.5 0, 195 0 M0 0 C32.5 0, 162.5 0, 195 0" stroke="#1e1e1e" stroke-width="4" fill="none"></path></g></g><mask></mask><g mask="url(#mask-PC_KkGA6LSYoOU2zQ0tU4)" stroke-linecap="round"><g transform="translate(217.6868595475098 1300.5787625409685) rotate(0 117.18396083771586 383.17819597818834)"><path d="M0 0 C2.27 102.72, -25.44 488.6, 13.62 616.32 C52.68 744.05, 197.58 741.35, 234.37 766.36 M0 0 C2.27 102.72, -25.44 488.6, 13.62 616.32 C52.68 744.05, 197.58 741.35, 234.37 766.36" stroke="#1e1e1e" stroke-width="4" fill="none"></path></g><g transform="translate(217.6868595475098 1300.5787625409685) rotate(0 117.18396083771586 383.17819597818834)"><path d="M209.37 766.86 C217.41 766.7, 225.45 766.54, 234.37 766.36 M209.37 766.86 C216.14 766.72, 222.9 766.59, 234.37 766.36" stroke="#1e1e1e" stroke-width="4" fill="none"></path></g><g transform="translate(217.6868595475098 1300.5787625409685) rotate(0 117.18396083771586 383.17819597818834)"><path d="M214.9 750.68 C221.16 755.72, 227.42 760.76, 234.37 766.36 M214.9 750.68 C220.17 754.92, 225.43 759.16, 234.37 766.36" stroke="#1e1e1e" stroke-width="4" fill="none"></path></g></g><mask id="mask-PC_KkGA6LSYoOU2zQ0tU4"><rect x="0" y="0" fill="#fff" width="552.0547812229415" height="2166.935154497345"></rect><rect x="47.6906379203574" y="1871.9025745428316" fill="#000" width="367.23333740234375" height="90" opacity="1"></rect></mask><g transform="translate(47.6906379203574 1871.9025745428316) rotate(0 283.4655645959847 -188.14561602367485)"><text x="183.61666870117188" y="31.536" font-family="Virgil, Segoe UI Emoji" font-size="36px" fill="#1e1e1e" text-anchor="middle" style="white-space: pre;" direction="ltr" dominant-baseline="alphabetic">Notifies which clients</text><text x="183.61666870117188" y="76.536" font-family="Virgil, Segoe UI Emoji" font-size="36px" fill="#1e1e1e" text-anchor="middle" style="white-space: pre;" direction="ltr" dominant-baseline="alphabetic">were selected</text></g><g stroke-linecap="round" transform="translate(458.05478122294153 1969.5163670384245) rotate(0 163 93)"><path d="M32 0 C119.5 0, 206.99 0, 294 0 M32 0 C110.86 0, 189.73 0, 294 0 M294 0 C315.33 0, 326 10.67, 326 32 M294 0 C315.33 0, 326 10.67, 326 32 M326 32 C326 65.52, 326 99.04, 326 154 M326 32 C326 80.25, 326 128.51, 326 154 M326 154 C326 175.33, 315.33 186, 294 186 M326 154 C326 175.33, 315.33 186, 294 186 M294 186 C200.7 186, 107.41 186, 32 186 M294 186 C200.91 186, 107.83 186, 32 186 M32 186 C10.67 186, 0 175.33, 0 154 M32 186 C10.67 186, 0 175.33, 0 154 M0 154 C0 125.29, 0 96.58, 0 32 M0 154 C0 123.99, 0 93.98, 0 32 M0 32 C0 10.67, 10.67 0, 32 0 M0 32 C0 10.67, 10.67 0, 32 0" stroke="#1e1e1e" stroke-width="4" fill="none"></path></g><g transform="translate(484.85478427469934 2040.0163670384245) rotate(0 136.1999969482422 22.5)"><text x="136.1999969482422" y="31.536" font-family="Virgil, Segoe UI Emoji" font-size="36px" fill="#1e1e1e" text-anchor="middle" style="white-space: pre;" direction="ltr" dominant-baseline="alphabetic">Storage Worker</text></g><g stroke-linecap="round"><g transform="translate(790.0547812229452 2061.6992785918774) rotate(0 143.72260938852742 -3.809400400555205)"><path d="M0 0 C47.91 -1.27, 239.54 -6.35, 287.45 -7.62 M0 0 C47.91 -1.27, 239.54 -6.35, 287.45 -7.62" stroke="#1e1e1e" stroke-width="4" fill="none"></path></g><g transform="translate(790.0547812229452 2061.6992785918774) rotate(0 143.72260938852742 -3.809400400555205)"><path d="M264.19 1.55 C271.71 -1.42, 279.24 -4.38, 287.45 -7.62 M264.19 1.55 C269.09 -0.38, 273.98 -2.31, 287.45 -7.62" stroke="#1e1e1e" stroke-width="4" fill="none"></path></g><g transform="translate(790.0547812229452 2061.6992785918774) rotate(0 143.72260938852742 -3.809400400555205)"><path d="M263.73 -15.54 C271.41 -12.98, 279.08 -10.42, 287.45 -7.62 M263.73 -15.54 C268.73 -13.87, 273.72 -12.21, 287.45 -7.62" stroke="#1e1e1e" stroke-width="4" fill="none"></path></g></g><mask></mask><g stroke-linecap="round" transform="translate(12.5 10) rotate(0 1380 1372.499999999999)"><path d="M32 0 C840.49 0, 1648.97 0, 2728 0 M32 0 C928.39 0, 1824.77 0, 2728 0 M2728 0 C2749.33 0, 2760 10.67, 2760 32 M2728 0 C2749.33 0, 2760 10.67, 2760 32 M2760 32 C2760 805.44, 2760 1578.89, 2760 2713 M2760 32 C2760 1072.42, 2760 2112.84, 2760 2713 M2760 2713 C2760 2734.33, 2749.33 2745, 2728 2745 M2760 2713 C2760 2734.33, 2749.33 2745, 2728 2745 M2728 2745 C1977.67 2745, 1227.34 2745, 32 2745 M2728 2745 C1894.99 2745, 1061.98 2745, 32 2745 M32 2745 C10.67 2745, 0 2734.33, 0 2713 M32 2745 C10.67 2745, 0 2734.33, 0 2713 M0 2713 C0 1657.14, 0 601.27, 0 32 M0 2713 C0 1787.03, 0 861.06, 0 32 M0 32 C0 10.67, 10.67 0, 32 0 M0 32 C0 10.67, 10.67 0, 32 0" stroke="#1e1e1e" stroke-width="4" fill="none"></path></g><g transform="translate(864.8583374023438 22.5) rotate(0 483.3467508951817 46.25)"><text x="483.3467508951823" y="64.82399999999996" font-family="Virgil, Segoe UI Emoji" font-size="73.99999999999996px" fill="#1e1e1e" text-anchor="middle" style="white-space: pre;" direction="ltr" dominant-baseline="alphabetic">Storage and TTL Process</text></g><g stroke-linecap="round"><g transform="translate(10 165) rotate(0 1380 0)"><path d="M0 0 C460 0, 2300 0, 2760 0 M0 0 C460 0, 2300 0, 2760 0" stroke="#1e1e1e" stroke-width="4" fill="none"></path></g></g><mask></mask></svg>