<svg version="1.1" xmlns="http://www.w3.org/2000/svg" viewBox="0 0 1558 1233.5" width="1558" height="1233.5" filter="invert(93%) hue-rotate(180deg)">
  <!-- svg-source:excalidraw -->
  
  <defs>
    <style class="style-fonts">
      @font-face {
        font-family: "Virgil";
        src: url("https://excalidraw.com/Virgil.woff2");
      }
      @font-face {
        font-family: "Cascadia";
        src: url("https://excalidraw.com/Cascadia.woff2");
      }
      @font-face {
        font-family: "Assistant";
        src: url("https://excalidraw.com/Assistant-Regular.woff2");
      }
    </style>
    
  </defs>
  <rect x="0" y="0" width="1558" height="1233.5" fill="#ffffff"></rect><g stroke-linecap="round" transform="translate(527.9243739978156 601.3344196272892) rotate(0 222 93)"><path d="M32 0 C181.62 0, 331.23 0, 412 0 M32 0 C122.78 0, 213.56 0, 412 0 M412 0 C433.33 0, 444 10.67, 444 32 M412 0 C433.33 0, 444 10.67, 444 32 M444 32 C444 70.54, 444 109.08, 444 154 M444 32 C444 64.74, 444 97.49, 444 154 M444 154 C444 175.33, 433.33 186, 412 186 M444 154 C444 175.33, 433.33 186, 412 186 M412 186 C264.33 186, 116.66 186, 32 186 M412 186 C299.47 186, 186.94 186, 32 186 M32 186 C10.67 186, 0 175.33, 0 154 M32 186 C10.67 186, 0 175.33, 0 154 M0 154 C0 126.89, 0 99.78, 0 32 M0 154 C0 106.31, 0 58.62, 0 32 M0 32 C0 10.67, 10.67 0, 32 0 M0 32 C0 10.67, 10.67 0, 32 0" stroke="#1e1e1e" stroke-width="4" fill="none"></path></g><g transform="translate(605.0327114001593 632.2344196272888) rotate(0 144.89166259765625 62.09999999999991)"><text x="144.89166259765625" y="33.120703125" font-family="Helvetica, Segoe UI Emoji" font-size="36px" fill="#1e1e1e" text-anchor="middle" style="white-space: pre;" direction="ltr" dominant-baseline="alphabetic">Table Row Builder</text><text x="144.89166259765625" y="74.520703125" font-family="Helvetica, Segoe UI Emoji" font-size="36px" fill="#1e1e1e" text-anchor="middle" style="white-space: pre;" direction="ltr" dominant-baseline="alphabetic">-----------------------</text><text x="144.89166259765625" y="115.92070312499999" font-family="Helvetica, Segoe UI Emoji" font-size="36px" fill="#1e1e1e" text-anchor="middle" style="white-space: pre;" direction="ltr" dominant-baseline="alphabetic">(shard,TTL)</text></g><g stroke-linecap="round" transform="translate(58.075626002184435 908.0000000000009) rotate(0 147.5 147.5)"><path d="M295 147.5 C295 151.36, 294.85 155.23, 294.55 159.07 C294.24 162.92, 293.79 166.76, 293.18 170.57 C292.58 174.38, 291.83 178.18, 290.92 181.93 C290.02 185.68, 288.97 189.41, 287.78 193.08 C286.59 196.75, 285.25 200.38, 283.77 203.95 C282.3 207.51, 280.67 211.03, 278.92 214.46 C277.17 217.9, 275.28 221.28, 273.26 224.57 C271.25 227.86, 269.1 231.08, 266.83 234.2 C264.56 237.32, 262.17 240.36, 259.66 243.29 C257.15 246.23, 254.53 249.07, 251.8 251.8 C249.07 254.53, 246.23 257.15, 243.29 259.66 C240.36 262.17, 237.32 264.56, 234.2 266.83 C231.08 269.1, 227.86 271.25, 224.57 273.26 C221.28 275.28, 217.9 277.17, 214.46 278.92 C211.03 280.67, 207.51 282.3, 203.95 283.77 C200.38 285.25, 196.75 286.59, 193.08 287.78 C189.41 288.97, 185.68 290.02, 181.93 290.92 C178.18 291.83, 174.38 292.58, 170.57 293.18 C166.76 293.79, 162.92 294.24, 159.07 294.55 C155.23 294.85, 151.36 295, 147.5 295 C143.64 295, 139.77 294.85, 135.93 294.55 C132.08 294.24, 128.24 293.79, 124.43 293.18 C120.62 292.58, 116.82 291.83, 113.07 290.92 C109.32 290.02, 105.59 288.97, 101.92 287.78 C98.25 286.59, 94.62 285.25, 91.05 283.77 C87.49 282.3, 83.97 280.67, 80.54 278.92 C77.1 277.17, 73.72 275.28, 70.43 273.26 C67.14 271.25, 63.92 269.1, 60.8 266.83 C57.68 264.56, 54.64 262.17, 51.71 259.66 C48.77 257.15, 45.93 254.53, 43.2 251.8 C40.47 249.07, 37.85 246.23, 35.34 243.29 C32.83 240.36, 30.44 237.32, 28.17 234.2 C25.9 231.08, 23.75 227.86, 21.74 224.57 C19.72 221.28, 17.83 217.9, 16.08 214.46 C14.33 211.03, 12.7 207.51, 11.23 203.95 C9.75 200.38, 8.41 196.75, 7.22 193.08 C6.03 189.41, 4.98 185.68, 4.08 181.93 C3.17 178.18, 2.42 174.38, 1.82 170.57 C1.21 166.76, 0.76 162.92, 0.45 159.07 C0.15 155.23, 0 151.36, 0 147.5 C0 143.64, 0.15 139.77, 0.45 135.93 C0.76 132.08, 1.21 128.24, 1.82 124.43 C2.42 120.62, 3.17 116.82, 4.08 113.07 C4.98 109.32, 6.03 105.59, 7.22 101.92 C8.41 98.25, 9.75 94.62, 11.23 91.05 C12.7 87.49, 14.33 83.97, 16.08 80.54 C17.83 77.1, 19.72 73.72, 21.74 70.43 C23.75 67.14, 25.9 63.92, 28.17 60.8 C30.44 57.68, 32.83 54.64, 35.34 51.71 C37.85 48.77, 40.47 45.93, 43.2 43.2 C45.93 40.47, 48.77 37.85, 51.71 35.34 C54.64 32.83, 57.68 30.44, 60.8 28.17 C63.92 25.9, 67.14 23.75, 70.43 21.74 C73.72 19.72, 77.1 17.83, 80.54 16.08 C83.97 14.33, 87.49 12.7, 91.05 11.23 C94.62 9.75, 98.25 8.41, 101.92 7.22 C105.59 6.03, 109.32 4.98, 113.07 4.08 C116.82 3.17, 120.62 2.42, 124.43 1.82 C128.24 1.21, 132.08 0.76, 135.93 0.45 C139.77 0.15, 143.64 0, 147.5 0 C151.36 0, 155.23 0.15, 159.07 0.45 C162.92 0.76, 166.76 1.21, 170.57 1.82 C174.38 2.42, 178.18 3.17, 181.93 4.08 C185.68 4.98, 189.41 6.03, 193.08 7.22 C196.75 8.41, 200.38 9.75, 203.95 11.23 C207.51 12.7, 211.03 14.33, 214.46 16.08 C217.9 17.83, 221.28 19.72, 224.57 21.74 C227.86 23.75, 231.08 25.9, 234.2 28.17 C237.32 30.44, 240.36 32.83, 243.29 35.34 C246.23 37.85, 249.07 40.47, 251.8 43.2 C254.53 45.93, 257.15 48.77, 259.66 51.71 C262.17 54.64, 264.56 57.68, 266.83 60.8 C269.1 63.92, 271.25 67.14, 273.26 70.43 C275.28 73.72, 277.17 77.1, 278.92 80.54 C280.67 83.97, 282.3 87.49, 283.77 91.05 C285.25 94.62, 286.59 98.25, 287.78 101.92 C288.97 105.59, 290.02 109.32, 290.92 113.07 C291.83 116.82, 292.58 120.62, 293.18 124.43 C293.79 128.24, 294.24 132.08, 294.55 135.93 C294.85 139.77, 295 143.64, 295 147.5" stroke="#1e1e1e" stroke-width="4" fill="none"></path></g><g transform="translate(144.90237577716834 1013.8559553824616) rotate(0 60.875 41.8457943925232)"><text x="60.875" y="29.325532710280385" font-family="Virgil, Segoe UI Emoji" font-size="33.476635514018696px" fill="#1e1e1e" text-anchor="middle" style="white-space: pre;" direction="ltr" dominant-baseline="alphabetic">Desired</text><text x="60.875" y="71.17132710280376" font-family="Virgil, Segoe UI Emoji" font-size="33.476635514018696px" fill="#1e1e1e" text-anchor="middle" style="white-space: pre;" direction="ltr" dominant-baseline="alphabetic">TTL</text></g><g stroke-linecap="round"><g transform="translate(334.0683610320011 981.0562827059439) rotate(0 96.42800648290722 -98.55385602552087)"><path d="M0 0 C32.14 -32.85, 160.71 -164.26, 192.86 -197.11 M0 0 C32.14 -32.85, 160.71 -164.26, 192.86 -197.11" stroke="#1e1e1e" stroke-width="4" fill="none"></path></g><g transform="translate(334.0683610320011 981.0562827059439) rotate(0 96.42800648290722 -98.55385602552087)"><path d="M182.54 -174.34 C184.91 -179.57, 187.28 -184.8, 192.86 -197.11 M182.54 -174.34 C185.92 -181.79, 189.29 -189.24, 192.86 -197.11" stroke="#1e1e1e" stroke-width="4" fill="none"></path></g><g transform="translate(334.0683610320011 981.0562827059439) rotate(0 96.42800648290722 -98.55385602552087)"><path d="M170.31 -186.3 C175.49 -188.78, 180.67 -191.26, 192.86 -197.11 M170.31 -186.3 C177.69 -189.84, 185.07 -193.37, 192.86 -197.11" stroke="#1e1e1e" stroke-width="4" fill="none"></path></g></g><mask></mask><g stroke-linecap="round" transform="translate(32.50000000000364 178.0000000000009) rotate(0 147.5 147.5)"><path d="M295 147.5 C295 151.36, 294.85 155.23, 294.55 159.07 C294.24 162.92, 293.79 166.76, 293.18 170.57 C292.58 174.38, 291.83 178.18, 290.92 181.93 C290.02 185.68, 288.97 189.41, 287.78 193.08 C286.59 196.75, 285.25 200.38, 283.77 203.95 C282.3 207.51, 280.67 211.03, 278.92 214.46 C277.17 217.9, 275.28 221.28, 273.26 224.57 C271.25 227.86, 269.1 231.08, 266.83 234.2 C264.56 237.32, 262.17 240.36, 259.66 243.29 C257.15 246.23, 254.53 249.07, 251.8 251.8 C249.07 254.53, 246.23 257.15, 243.29 259.66 C240.36 262.17, 237.32 264.56, 234.2 266.83 C231.08 269.1, 227.86 271.25, 224.57 273.26 C221.28 275.28, 217.9 277.17, 214.46 278.92 C211.03 280.67, 207.51 282.3, 203.95 283.77 C200.38 285.25, 196.75 286.59, 193.08 287.78 C189.41 288.97, 185.68 290.02, 181.93 290.92 C178.18 291.83, 174.38 292.58, 170.57 293.18 C166.76 293.79, 162.92 294.24, 159.07 294.55 C155.23 294.85, 151.36 295, 147.5 295 C143.64 295, 139.77 294.85, 135.93 294.55 C132.08 294.24, 128.24 293.79, 124.43 293.18 C120.62 292.58, 116.82 291.83, 113.07 290.92 C109.32 290.02, 105.59 288.97, 101.92 287.78 C98.25 286.59, 94.62 285.25, 91.05 283.77 C87.49 282.3, 83.97 280.67, 80.54 278.92 C77.1 277.17, 73.72 275.28, 70.43 273.26 C67.14 271.25, 63.92 269.1, 60.8 266.83 C57.68 264.56, 54.64 262.17, 51.71 259.66 C48.77 257.15, 45.93 254.53, 43.2 251.8 C40.47 249.07, 37.85 246.23, 35.34 243.29 C32.83 240.36, 30.44 237.32, 28.17 234.2 C25.9 231.08, 23.75 227.86, 21.74 224.57 C19.72 221.28, 17.83 217.9, 16.08 214.46 C14.33 211.03, 12.7 207.51, 11.23 203.95 C9.75 200.38, 8.41 196.75, 7.22 193.08 C6.03 189.41, 4.98 185.68, 4.08 181.93 C3.17 178.18, 2.42 174.38, 1.82 170.57 C1.21 166.76, 0.76 162.92, 0.45 159.07 C0.15 155.23, 0 151.36, 0 147.5 C0 143.64, 0.15 139.77, 0.45 135.93 C0.76 132.08, 1.21 128.24, 1.82 124.43 C2.42 120.62, 3.17 116.82, 4.08 113.07 C4.98 109.32, 6.03 105.59, 7.22 101.92 C8.41 98.25, 9.75 94.62, 11.23 91.05 C12.7 87.49, 14.33 83.97, 16.08 80.54 C17.83 77.1, 19.72 73.72, 21.74 70.43 C23.75 67.14, 25.9 63.92, 28.17 60.8 C30.44 57.68, 32.83 54.64, 35.34 51.71 C37.85 48.77, 40.47 45.93, 43.2 43.2 C45.93 40.47, 48.77 37.85, 51.71 35.34 C54.64 32.83, 57.68 30.44, 60.8 28.17 C63.92 25.9, 67.14 23.75, 70.43 21.74 C73.72 19.72, 77.1 17.83, 80.54 16.08 C83.97 14.33, 87.49 12.7, 91.05 11.23 C94.62 9.75, 98.25 8.41, 101.92 7.22 C105.59 6.03, 109.32 4.98, 113.07 4.08 C116.82 3.17, 120.62 2.42, 124.43 1.82 C128.24 1.21, 132.08 0.76, 135.93 0.45 C139.77 0.15, 143.64 0, 147.5 0 C151.36 0, 155.23 0.15, 159.07 0.45 C162.92 0.76, 166.76 1.21, 170.57 1.82 C174.38 2.42, 178.18 3.17, 181.93 4.08 C185.68 4.98, 189.41 6.03, 193.08 7.22 C196.75 8.41, 200.38 9.75, 203.95 11.23 C207.51 12.7, 211.03 14.33, 214.46 16.08 C217.9 17.83, 221.28 19.72, 224.57 21.74 C227.86 23.75, 231.08 25.9, 234.2 28.17 C237.32 30.44, 240.36 32.83, 243.29 35.34 C246.23 37.85, 249.07 40.47, 251.8 43.2 C254.53 45.93, 257.15 48.77, 259.66 51.71 C262.17 54.64, 264.56 57.68, 266.83 60.8 C269.1 63.92, 271.25 67.14, 273.26 70.43 C275.28 73.72, 277.17 77.1, 278.92 80.54 C280.67 83.97, 282.3 87.49, 283.77 91.05 C285.25 94.62, 286.59 98.25, 287.78 101.92 C288.97 105.59, 290.02 109.32, 290.92 113.07 C291.83 116.82, 292.58 120.62, 293.18 124.43 C293.79 128.24, 294.24 132.08, 294.55 135.93 C294.85 139.77, 295 143.64, 295 147.5" stroke="#1e1e1e" stroke-width="4" fill="none"></path></g><g transform="translate(87.9934138985227 306.4526843544245) rotate(0 92.20833587646484 19.249065420560783)"><text x="92.20833587646484" y="30.799158513434577" font-family="Helvetica, Segoe UI Emoji" font-size="33.476635514018696px" fill="#1e1e1e" text-anchor="middle" style="white-space: pre;" direction="ltr" dominant-baseline="alphabetic">Vec&lt;Shard&gt;</text></g><g stroke-linecap="round"><g transform="translate(266.7918152389502 445.99660081317234) rotate(0 130.0662793794345 82.24425119083662)"><path d="M0 0 C43.36 27.41, 216.78 137.07, 260.13 164.49 M0 0 C43.36 27.41, 216.78 137.07, 260.13 164.49" stroke="#1e1e1e" stroke-width="4" fill="none"></path></g><g transform="translate(266.7918152389502 445.99660081317234) rotate(0 130.0662793794345 82.24425119083662)"><path d="M235.71 159.16 C242.71 160.69, 249.71 162.22, 260.13 164.49 M235.71 159.16 C244.47 161.07, 253.22 162.98, 260.13 164.49" stroke="#1e1e1e" stroke-width="4" fill="none"></path></g><g transform="translate(266.7918152389502 445.99660081317234) rotate(0 130.0662793794345 82.24425119083662)"><path d="M244.85 144.71 C249.23 150.38, 253.61 156.05, 260.13 164.49 M244.85 144.71 C250.33 151.8, 255.81 158.89, 260.13 164.49" stroke="#1e1e1e" stroke-width="4" fill="none"></path></g></g><mask></mask><g stroke-linecap="round"><g transform="translate(972.9243739978156 689.5000000000009) rotate(0 121.53781300109222 0)"><path d="M0 0 C40.51 0, 202.56 0, 243.08 0 M0 0 C40.51 0, 202.56 0, 243.08 0" stroke="#1e1e1e" stroke-width="4" fill="none"></path></g><g transform="translate(972.9243739978156 689.5000000000009) rotate(0 121.53781300109222 0)"><path d="M219.58 8.55 C225.5 6.4, 231.41 4.24, 243.08 0 M219.58 8.55 C226.83 5.91, 234.08 3.28, 243.08 0" stroke="#1e1e1e" stroke-width="4" fill="none"></path></g><g transform="translate(972.9243739978156 689.5000000000009) rotate(0 121.53781300109222 0)"><path d="M219.58 -8.55 C225.5 -6.4, 231.41 -4.24, 243.08 0 M219.58 -8.55 C226.83 -5.91, 234.08 -3.28, 243.08 0" stroke="#1e1e1e" stroke-width="4" fill="none"></path></g></g><mask></mask><g stroke-linecap="round" transform="translate(1226.4999999999964 542.0000000000009) rotate(0 147.5 147.5)"><path d="M295 147.5 C295 151.36, 294.85 155.23, 294.55 159.07 C294.24 162.92, 293.79 166.76, 293.18 170.57 C292.58 174.38, 291.83 178.18, 290.92 181.93 C290.02 185.68, 288.97 189.41, 287.78 193.08 C286.59 196.75, 285.25 200.38, 283.77 203.95 C282.3 207.51, 280.67 211.03, 278.92 214.46 C277.17 217.9, 275.28 221.28, 273.26 224.57 C271.25 227.86, 269.1 231.08, 266.83 234.2 C264.56 237.32, 262.17 240.36, 259.66 243.29 C257.15 246.23, 254.53 249.07, 251.8 251.8 C249.07 254.53, 246.23 257.15, 243.29 259.66 C240.36 262.17, 237.32 264.56, 234.2 266.83 C231.08 269.1, 227.86 271.25, 224.57 273.26 C221.28 275.28, 217.9 277.17, 214.46 278.92 C211.03 280.67, 207.51 282.3, 203.95 283.77 C200.38 285.25, 196.75 286.59, 193.08 287.78 C189.41 288.97, 185.68 290.02, 181.93 290.92 C178.18 291.83, 174.38 292.58, 170.57 293.18 C166.76 293.79, 162.92 294.24, 159.07 294.55 C155.23 294.85, 151.36 295, 147.5 295 C143.64 295, 139.77 294.85, 135.93 294.55 C132.08 294.24, 128.24 293.79, 124.43 293.18 C120.62 292.58, 116.82 291.83, 113.07 290.92 C109.32 290.02, 105.59 288.97, 101.92 287.78 C98.25 286.59, 94.62 285.25, 91.05 283.77 C87.49 282.3, 83.97 280.67, 80.54 278.92 C77.1 277.17, 73.72 275.28, 70.43 273.26 C67.14 271.25, 63.92 269.1, 60.8 266.83 C57.68 264.56, 54.64 262.17, 51.71 259.66 C48.77 257.15, 45.93 254.53, 43.2 251.8 C40.47 249.07, 37.85 246.23, 35.34 243.29 C32.83 240.36, 30.44 237.32, 28.17 234.2 C25.9 231.08, 23.75 227.86, 21.74 224.57 C19.72 221.28, 17.83 217.9, 16.08 214.46 C14.33 211.03, 12.7 207.51, 11.23 203.95 C9.75 200.38, 8.41 196.75, 7.22 193.08 C6.03 189.41, 4.98 185.68, 4.08 181.93 C3.17 178.18, 2.42 174.38, 1.82 170.57 C1.21 166.76, 0.76 162.92, 0.45 159.07 C0.15 155.23, 0 151.36, 0 147.5 C0 143.64, 0.15 139.77, 0.45 135.93 C0.76 132.08, 1.21 128.24, 1.82 124.43 C2.42 120.62, 3.17 116.82, 4.08 113.07 C4.98 109.32, 6.03 105.59, 7.22 101.92 C8.41 98.25, 9.75 94.62, 11.23 91.05 C12.7 87.49, 14.33 83.97, 16.08 80.54 C17.83 77.1, 19.72 73.72, 21.74 70.43 C23.75 67.14, 25.9 63.92, 28.17 60.8 C30.44 57.68, 32.83 54.64, 35.34 51.71 C37.85 48.77, 40.47 45.93, 43.2 43.2 C45.93 40.47, 48.77 37.85, 51.71 35.34 C54.64 32.83, 57.68 30.44, 60.8 28.17 C63.92 25.9, 67.14 23.75, 70.43 21.74 C73.72 19.72, 77.1 17.83, 80.54 16.08 C83.97 14.33, 87.49 12.7, 91.05 11.23 C94.62 9.75, 98.25 8.41, 101.92 7.22 C105.59 6.03, 109.32 4.98, 113.07 4.08 C116.82 3.17, 120.62 2.42, 124.43 1.82 C128.24 1.21, 132.08 0.76, 135.93 0.45 C139.77 0.15, 143.64 0, 147.5 0 C151.36 0, 155.23 0.15, 159.07 0.45 C162.92 0.76, 166.76 1.21, 170.57 1.82 C174.38 2.42, 178.18 3.17, 181.93 4.08 C185.68 4.98, 189.41 6.03, 193.08 7.22 C196.75 8.41, 200.38 9.75, 203.95 11.23 C207.51 12.7, 211.03 14.33, 214.46 16.08 C217.9 17.83, 221.28 19.72, 224.57 21.74 C227.86 23.75, 231.08 25.9, 234.2 28.17 C237.32 30.44, 240.36 32.83, 243.29 35.34 C246.23 37.85, 249.07 40.47, 251.8 43.2 C254.53 45.93, 257.15 48.77, 259.66 51.71 C262.17 54.64, 264.56 57.68, 266.83 60.8 C269.1 63.92, 271.25 67.14, 273.26 70.43 C275.28 73.72, 277.17 77.1, 278.92 80.54 C280.67 83.97, 282.3 87.49, 283.77 91.05 C285.25 94.62, 286.59 98.25, 287.78 101.92 C288.97 105.59, 290.02 109.32, 290.92 113.07 C291.83 116.82, 292.58 120.62, 293.18 124.43 C293.79 128.24, 294.24 132.08, 294.55 135.93 C294.85 139.77, 295 143.64, 295 147.5" stroke="#1e1e1e" stroke-width="4" fill="none"></path></g><g transform="translate(1293.5350856514451 670.4526843544245) rotate(0 80.66666412353516 19.249065420560783)"><text x="80.66666412353516" y="30.799158513434577" font-family="Helvetica, Segoe UI Emoji" font-size="33.476635514018696px" fill="#1e1e1e" text-anchor="middle" style="white-space: pre;" direction="ltr" dominant-baseline="alphabetic">Vec&lt;Row&gt;</text></g><g stroke-linecap="round" transform="translate(14 10) rotate(0 767 606.75)"><path d="M32 0 C600.34 0, 1168.68 0, 1502 0 M32 0 C456.81 0, 881.63 0, 1502 0 M1502 0 C1523.33 0, 1534 10.67, 1534 32 M1502 0 C1523.33 0, 1534 10.67, 1534 32 M1534 32 C1534 476.1, 1534 920.2, 1534 1181.5 M1534 32 C1534 409.1, 1534 786.19, 1534 1181.5 M1534 1181.5 C1534 1202.83, 1523.33 1213.5, 1502 1213.5 M1534 1181.5 C1534 1202.83, 1523.33 1213.5, 1502 1213.5 M1502 1213.5 C1105.74 1213.5, 709.48 1213.5, 32 1213.5 M1502 1213.5 C922.81 1213.5, 343.63 1213.5, 32 1213.5 M32 1213.5 C10.67 1213.5, 0 1202.83, 0 1181.5 M32 1213.5 C10.67 1213.5, 0 1202.83, 0 1181.5 M0 1181.5 C0 888.35, 0 595.21, 0 32 M0 1181.5 C0 733.71, 0 285.92, 0 32 M0 32 C0 10.67, 10.67 0, 32 0 M0 32 C0 10.67, 10.67 0, 32 0" stroke="#1e1e1e" stroke-width="4" fill="none"></path></g><g transform="translate(547.9583358764648 27) rotate(0 219.29814368353982 39.5)"><text x="219.2981436835395" y="55.36319999999998" font-family="Virgil, Segoe UI Emoji" font-size="63.19999999999998px" fill="#1e1e1e" text-anchor="middle" style="white-space: pre;" direction="ltr" dominant-baseline="alphabetic">TTL_Assigner</text></g><g stroke-linecap="round"><g transform="translate(10 131) rotate(0 769 0)"><path d="M0 0 C256.33 0, 1281.67 0, 1538 0 M0 0 C256.33 0, 1281.67 0, 1538 0" stroke="#1e1e1e" stroke-width="4" fill="none"></path></g></g><mask></mask></svg>